SeymourOne-Regular.ufo
<glyph name="exclam" format="1">
  <advance width="1179"/>
  <unicode hex="0021"/>
  <outline>
    <contour>
      <point x="723" y="-1" type="curve"/>
      <point x="698" y="-6"/>
      <point x="410" y="-3"/>
      <point x="237" y="-3" type="curve"/>
      <point x="276" y="385" type="line"/>
      <point x="405" y="388"/>
      <point x="622" y="378"/>
      <point x="759" y="378" type="curve"/>
      <point x="756" y="339"/>
      <point x="735" y="113"/>
    </contour>
    <contour>
      <point x="1118" y="1637" type="line"/>
      <point x="705" y="570" type="line"/>
      <point x="369" y="570" type="line"/>
      <point x="319" y="1601" type="line"/>
      <point x="320" y="1626"/>
      <point x="333" y="1634"/>
      <point x="352" y="1634" type="curve" smooth="yes"/>
      <point x="432" y="1634"/>
      <point x="700" y="1637"/>
      <point x="909" y="1637" type="curve" smooth="yes"/>
    </contour>
  </outline>
</glyph>
<glyph name="quotedbl" format="1">
  <advance width="1199"/>
  <unicode hex="0022"/>
  <outline>
    <contour>
      <point x="717" y="785" type="curve" smooth="yes"/>
      <point x="708" y="973"/>
      <point x="700" y="1186"/>
      <point x="691" y="1387" type="curve"/>
      <point x="683" y="1448" type="line"/>
      <point x="823" y="1448"/>
      <point x="991" y="1450"/>
      <point x="1125" y="1450" type="curve"/>
      <point x="1123" y="1420" type="line"/>
      <point x="990" y="783" type="line" smooth="yes"/>
      <point x="981" y="740"/>
      <point x="979" y="723"/>
      <point x="954" y="723" type="curve" smooth="yes"/>
      <point x="882" y="723"/>
      <point x="818" y="721"/>
      <point x="738" y="721" type="curve" smooth="yes"/>
      <point x="718" y="721"/>
      <point x="717" y="771"/>
    </contour>
    <contour>
      <point x="114" y="785" type="curve" smooth="yes"/>
      <point x="105" y="973"/>
      <point x="97" y="1186"/>
      <point x="88" y="1387" type="curve" smooth="yes"/>
      <point x="85" y="1448" type="line"/>
      <point x="231" y="1448"/>
      <point x="406" y="1450"/>
      <point x="546" y="1450" type="curve"/>
      <point x="543" y="1420" type="line"/>
      <point x="387" y="783" type="line" smooth="yes"/>
      <point x="376" y="740"/>
      <point x="376" y="723"/>
      <point x="351" y="723" type="curve" smooth="yes"/>
      <point x="279" y="723"/>
      <point x="215" y="721"/>
      <point x="135" y="721" type="curve" smooth="yes"/>
      <point x="115" y="721"/>
      <point x="114" y="771"/>
    </contour>
  </outline>
</glyph>
<glyph name="numbersign" format="1">
  <advance width="2006"/>
  <unicode hex="0023"/>
  <outline>
    <contour>
      <point x="878" y="705" type="line"/>
      <point x="1118" y="705" type="line"/>
      <point x="1141" y="839" type="line"/>
      <point x="900" y="840" type="line"/>
    </contour>
    <contour>
      <point x="94" y="715" type="line"/>
      <point x="369" y="715" type="line"/>
      <point x="385" y="837" type="line"/>
      <point x="99" y="840" type="line"/>
      <point x="129" y="1097" type="line"/>
      <point x="429" y="1094" type="line"/>
      <point x="481" y="1437" type="line"/>
      <point x="986" y="1442" type="line"/>
      <point x="941" y="1089" type="line"/>
      <point x="1183" y="1087" type="line"/>
      <point x="1234" y="1436" type="line"/>
      <point x="1751" y="1447" type="line"/>
      <point x="1696" y="1088" type="line"/>
      <point x="1948" y="1088" type="line"/>
      <point x="1912" y="842" type="line"/>
      <point x="1654" y="842" type="line"/>
      <point x="1632" y="712" type="line"/>
      <point x="1910" y="712" type="line"/>
      <point x="1877" y="445" type="line"/>
      <point x="1586" y="445" type="line"/>
      <point x="1527" y="-2" type="line"/>
      <point x="1023" y="7" type="line"/>
      <point x="1079" y="451" type="line"/>
      <point x="833" y="453" type="line"/>
      <point x="761" y="3" type="line"/>
      <point x="269" y="12" type="line"/>
      <point x="330" y="455" type="line"/>
      <point x="62" y="455" type="line"/>
    </contour>
  </outline>
</glyph>
<glyph name="dollar" format="1">
  <advance width="1593"/>
  <unicode hex="0024"/>
  <outline>
    <contour>
      <point x="1212" y="1593" type="line"/>
      <point x="1190" y="1385" type="line"/>
      <point x="1314" y="1385"/>
      <point x="1409" y="1374"/>
      <point x="1469" y="1365" type="curve"/>
      <point x="1510" y="1065" type="line"/>
      <point x="1501" y="1065"/>
      <point x="1421" y="1081"/>
      <point x="1338" y="1081" type="curve" smooth="yes"/>
      <point x="1247" y="1081"/>
      <point x="1153" y="1061"/>
      <point x="1153" y="980" type="curve" smooth="yes"/>
      <point x="1153" y="823"/>
      <point x="1471" y="766"/>
      <point x="1471" y="496" type="curve" smooth="yes"/>
      <point x="1471" y="344"/>
      <point x="1297" y="230"/>
      <point x="1059" y="161" type="curve"/>
      <point x="1055" y="115"/>
      <point x="1036" y="-52"/>
      <point x="1029" y="-152" type="curve"/>
      <point x="1024" y="-152" type="line" smooth="yes"/>
      <point x="987" y="-152"/>
      <point x="859" y="-161"/>
      <point x="817" y="-162" type="curve"/>
      <point x="836" y="119" type="line"/>
      <point x="673" y="85" type="line"/>
      <point x="651" y="-157" type="line"/>
      <point x="571" y="-159"/>
      <point x="445" y="-161"/>
      <point x="433" y="-161" type="curve"/>
      <point x="450" y="54" type="line"/>
      <point x="361" y="39"/>
      <point x="263" y="27"/>
      <point x="122" y="27" type="curve"/>
      <point x="165" y="326" type="line"/>
      <point x="440" y="342"/>
      <point x="448" y="398"/>
      <point x="448" y="481" type="curve" smooth="yes"/>
      <point x="448" y="555"/>
      <point x="251" y="764"/>
      <point x="251" y="967" type="curve" smooth="yes"/>
      <point x="251" y="1093"/>
      <point x="297" y="1217"/>
      <point x="544" y="1305" type="curve"/>
      <point x="562" y="1550" type="line"/>
      <point x="795" y="1570" type="line"/>
      <point x="774" y="1357" type="line"/>
      <point x="952" y="1376" type="line"/>
      <point x="981" y="1582" type="line"/>
    </contour>
  </outline>
</glyph>
<glyph name="ampersand" format="1">
  <advance width="1967"/>
  <unicode hex="0026"/>
  <outline>
    <contour>
      <point x="825" y="1082" type="curve" smooth="yes"/>
      <point x="825" y="1022"/>
      <point x="868" y="958"/>
      <point x="934" y="922" type="curve"/>
      <point x="1019" y="959"/>
      <point x="1069" y="1034"/>
      <point x="1069" y="1098" type="curve" smooth="yes"/>
      <point x="1069" y="1167"/>
      <point x="1009" y="1205"/>
      <point x="949" y="1205" type="curve" smooth="yes"/>
      <point x="887" y="1205"/>
      <point x="825" y="1166"/>
    </contour>
    <contour>
      <point x="1088" y="335" type="curve"/>
      <point x="820" y="540" type="line"/>
      <point x="768" y="500"/>
      <point x="738" y="447"/>
      <point x="738" y="399" type="curve" smooth="yes"/>
      <point x="738" y="315"/>
      <point x="815" y="278"/>
      <point x="903" y="278" type="curve" smooth="yes"/>
      <point x="968" y="278"/>
      <point x="1039" y="299"/>
    </contour>
    <contour>
      <point x="1389" y="91" type="line"/>
      <point x="1290" y="24"/>
      <point x="1063" y="-45"/>
      <point x="853" y="-45" type="curve" smooth="yes"/>
      <point x="454" y="-45"/>
      <point x="245" y="139"/>
      <point x="245" y="347" type="curve" smooth="yes"/>
      <point x="245" y="497"/>
      <point x="353" y="660"/>
      <point x="577" y="776" type="curve"/>
      <point x="454" y="864"/>
      <point x="396" y="981"/>
      <point x="396" y="1096" type="curve" smooth="yes"/>
      <point x="396" y="1292"/>
      <point x="591" y="1481"/>
      <point x="944" y="1481" type="curve" smooth="yes"/>
      <point x="1258" y="1481"/>
      <point x="1447" y="1311"/>
      <point x="1447" y="1116" type="curve" smooth="yes"/>
      <point x="1447" y="978"/>
      <point x="1365" y="829"/>
      <point x="1182" y="714" type="curve"/>
      <point x="1417" y="562" type="line"/>
      <point x="1524" y="640"/>
      <point x="1639" y="779"/>
      <point x="1698" y="844" type="curve"/>
      <point x="2002" y="627" type="line"/>
      <point x="1730" y="352" type="line"/>
      <point x="1891" y="234" type="line"/>
      <point x="1891" y="232"/>
      <point x="1664" y="7"/>
      <point x="1611" y="-63" type="curve"/>
    </contour>
  </outline>
</glyph>
<glyph name="quotesingle" format="1">
  <advance width="626"/>
  <unicode hex="0027"/>
  <outline>
    <contour>
      <point x="200" y="784" type="curve" smooth="yes"/>
      <point x="191" y="972"/>
      <point x="183" y="1185"/>
      <point x="174" y="1386" type="curve"/>
      <point x="174" y="1399" type="line" smooth="yes"/>
      <point x="174" y="1434"/>
      <point x="179.655" y="1447"/>
      <point x="203" y="1447" type="curve" smooth="yes"/>
      <point x="331" y="1447"/>
      <point x="485" y="1449"/>
      <point x="608" y="1449" type="curve" smooth="yes"/>
      <point x="620" y="1449"/>
      <point x="630.386" y="1443.66"/>
      <point x="630.386" y="1424.66" type="curve"/>
      <point x="473" y="782" type="line" smooth="yes"/>
      <point x="462" y="739"/>
      <point x="462" y="722"/>
      <point x="437" y="722" type="curve" smooth="yes"/>
      <point x="365" y="722"/>
      <point x="301" y="720"/>
      <point x="221" y="720" type="curve" smooth="yes"/>
      <point x="201" y="720"/>
      <point x="200" y="770"/>
    </contour>
  </outline>
</glyph>
<glyph name="parenright" format="1">
  <advance width="955"/>
  <unicode hex="0029"/>
  <outline>
    <contour>
      <point x="157" y="-180" type="curve"/>
      <point x="146" y="-150"/>
      <point x="146" y="-38"/>
      <point x="146" y="11" type="curve" smooth="yes"/>
      <point x="146" y="76"/>
      <point x="148" y="113"/>
      <point x="157" y="146" type="curve"/>
      <point x="346" y="173"/>
      <point x="435" y="436"/>
      <point x="435" y="689" type="curve" smooth="yes"/>
      <point x="435" y="890.365"/>
      <point x="326.183" y="1197.97"/>
      <point x="165" y="1221" type="curve"/>
      <point x="165" y="1393"/>
      <point x="197" y="1500"/>
      <point x="205" y="1534" type="curve"/>
      <point x="650.689" y="1519.09"/>
      <point x="909" y="1146.03"/>
      <point x="909" y="706" type="curve" smooth="yes"/>
      <point x="909" y="303.862"/>
      <point x="666.447" y="-180"/>
    </contour>
  </outline>
</glyph>
<glyph name="asterisk" format="1">
  <advance width="1456"/>
  <unicode hex="002A"/>
  <outline>
    <contour>
      <point x="829" y="138" type="curve" smooth="yes"/>
      <point x="829" y="124"/>
      <point x="819" y="123"/>
      <point x="805" y="123" type="curve" smooth="yes"/>
      <point x="794" y="123" type="line" smooth="yes"/>
      <point x="753" y="123"/>
      <point x="672" y="131"/>
      <point x="518" y="137" type="curve"/>
      <point x="514" y="137" type="line" smooth="yes"/>
      <point x="494" y="137"/>
      <point x="480" y="147.981"/>
      <point x="480" y="174" type="curve" smooth="yes"/>
      <point x="480" y="260.209"/>
      <point x="494" y="340"/>
      <point x="502" y="429" type="curve"/>
      <point x="442" y="395"/>
      <point x="305" y="300"/>
      <point x="272" y="300" type="curve" smooth="yes"/>
      <point x="258" y="300"/>
      <point x="247.993" y="305.786"/>
      <point x="240" y="315" type="curve" smooth="yes"/>
      <point x="175.993" y="388.786"/>
      <point x="123" y="440"/>
      <point x="109" y="461" type="curve"/>
      <point x="99" y="495"/>
      <point x="90" y="504"/>
      <point x="90" y="507" type="curve"/>
      <point x="418" y="778" type="line"/>
      <point x="174" y="945"/>
      <point x="72" y="1015"/>
      <point x="72" y="1028" type="curve" smooth="yes"/>
      <point x="72" y="1035"/>
      <point x="92" y="1065"/>
      <point x="163" y="1172" type="curve" smooth="yes"/>
      <point x="189" y="1212"/>
      <point x="231" y="1291"/>
      <point x="261" y="1291" type="curve" smooth="yes"/>
      <point x="295" y="1291"/>
      <point x="478" y="1139"/>
      <point x="550" y="1086" type="curve"/>
      <point x="600" y="1447" type="line" smooth="yes"/>
      <point x="600" y="1450"/>
      <point x="602" y="1455"/>
      <point x="604" y="1460" type="curve"/>
      <point x="629" y="1461"/>
      <point x="730" y="1462"/>
      <point x="879" y="1462" type="curve" smooth="yes"/>
      <point x="925" y="1462"/>
      <point x="961" y="1462"/>
      <point x="966" y="1463" type="curve"/>
      <point x="980" y="1463"/>
      <point x="984.225" y="1447.71"/>
      <point x="981.835" y="1430.88" type="curve" smooth="yes"/>
      <point x="935" y="1101" type="line"/>
      <point x="1046" y="1193"/>
      <point x="1164" y="1303"/>
      <point x="1194" y="1303" type="curve" smooth="yes"/>
      <point x="1196" y="1303"/>
      <point x="1197" y="1302"/>
      <point x="1198" y="1302" type="curve" smooth="yes"/>
      <point x="1199" y="1302"/>
      <point x="1200" y="1303"/>
      <point x="1201" y="1303" type="curve" smooth="yes"/>
      <point x="1203" y="1303"/>
      <point x="1204" y="1303"/>
      <point x="1205" y="1302" type="curve" smooth="yes"/>
      <point x="1330" y="1124"/>
      <point x="1384" y="1046"/>
      <point x="1384" y="1041" type="curve" smooth="yes"/>
      <point x="1384" y="1039" type="line" smooth="yes"/>
      <point x="1384" y="1023"/>
      <point x="1377" y="1021"/>
      <point x="1037" y="778" type="curve"/>
      <point x="1367" y="507" type="line"/>
      <point x="1367" y="503"/>
      <point x="1358" y="497"/>
      <point x="1347" y="461" type="curve"/>
      <point x="1326" y="432"/>
      <point x="1276" y="364"/>
      <point x="1203" y="266" type="curve" smooth="yes"/>
      <point x="1195" y="256"/>
      <point x="1184" y="251"/>
      <point x="1171" y="251" type="curve"/>
      <point x="886" y="438" type="line"/>
      <point x="871" y="354"/>
      <point x="851" y="290"/>
      <point x="842" y="205" type="curve" smooth="yes"/>
      <point x="836" y="150"/>
      <point x="838" y="149"/>
      <point x="822" y="149" type="curve"/>
      <point x="825" y="148"/>
      <point x="829" y="144"/>
    </contour>
  </outline>
</glyph>
<glyph name="plus" format="1">
  <advance width="1073"/>
  <unicode hex="002B"/>
  <outline>
    <contour>
      <point x="69" y="450" type="line"/>
      <point x="73" y="520"/>
      <point x="94" y="668"/>
      <point x="105" y="754" type="curve"/>
      <point x="418.809" y="754" type="line"/>
      <point x="436" y="1089" type="line"/>
      <point x="756" y="1089" type="line"/>
      <point x="749" y="962"/>
      <point x="741" y="834"/>
      <point x="737" y="756" type="curve"/>
      <point x="1047" y="756" type="line"/>
      <point x="1045" y="715"/>
      <point x="1039.16" y="643.898"/>
      <point x="1032" y="569" type="curve" smooth="yes"/>
      <point x="1021" y="454" type="line"/>
      <point x="706" y="454" type="line"/>
      <point x="688.525" y="120.025" type="line"/>
      <point x="606.525" y="120.025"/>
      <point x="453.095" y="120.995"/>
      <point x="366.095" y="120.995" type="curve"/>
      <point x="383" y="450" type="line"/>
    </contour>
  </outline>
</glyph>
<glyph name="comma" format="1">
  <advance width="652"/>
  <unicode hex="002C"/>
  <outline>
    <contour>
      <point x="164" y="-331" type="curve" smooth="yes"/>
      <point x="142" y="-331"/>
      <point x="122" y="-329"/>
      <point x="104" y="-324" type="curve"/>
      <point x="120" y="-171" type="line"/>
      <point x="218" y="-158"/>
      <point x="253" y="-88"/>
      <point x="267" y="-13" type="curve"/>
      <point x="128" y="-13" type="line"/>
      <point x="161" y="347" type="line"/>
      <point x="570" y="347" type="line"/>
      <point x="549" y="18" type="line" smooth="yes"/>
      <point x="533" y="-235"/>
      <point x="305" y="-331"/>
    </contour>
  </outline>
</glyph>
<glyph name="hyphen" format="1">
  <advance width="1261"/>
  <unicode hex="002D"/>
  <outline>
    <contour>
      <point x="142" y="887" type="line"/>
      <point x="409" y="897"/>
      <point x="908" y="907"/>
      <point x="1178" y="915" type="curve"/>
      <point x="1178" y="881" type="line" smooth="yes"/>
      <point x="1178" y="853"/>
      <point x="1153" y="588"/>
      <point x="1142" y="538" type="curve"/>
      <point x="832" y="532"/>
      <point x="364" y="526"/>
      <point x="233" y="526" type="curve" smooth="yes"/>
      <point x="79" y="526" type="line"/>
    </contour>
  </outline>
</glyph>
<glyph name="slash" format="1">
  <advance width="1310"/>
  <unicode hex="002F"/>
  <unicode hex="2215"/>
  <outline>
    <contour>
      <point x="1199" y="1471" type="line"/>
      <point x="391" y="-182" type="line"/>
      <point x="41" y="-104" type="line"/>
      <point x="334.056" y="498.277"/>
      <point x="626.064" y="1101.6"/>
      <point x="933" y="1690" type="curve"/>
      <point x="1268" y="1619" type="line"/>
      <point x="1232" y="1549" type="line"/>
    </contour>
  </outline>
</glyph>
<glyph name="one" format="1">
  <advance width="1293"/>
  <unicode hex="0031"/>
  <outline>
    <contour>
      <point x="332" y="-25" type="line"/>
      <point x="341" y="18"/>
      <point x="409" y="800"/>
      <point x="437" y="1051" type="curve"/>
      <point x="166" y="1006" type="line"/>
      <point x="132" y="1306" type="line"/>
      <point x="1096" y="1438" type="line"/>
      <point x="1096" y="1438"/>
      <point x="1096" y="1437"/>
      <point x="1095" y="1436" type="curve"/>
      <point x="1101" y="1436"/>
      <point x="1105" y="1434"/>
      <point x="1105" y="1427" type="curve" smooth="yes"/>
      <point x="1105" y="1424" type="line"/>
      <point x="1115" y="1423"/>
      <point x="1117" y="1416"/>
      <point x="1117" y="1402" type="curve" smooth="yes"/>
      <point x="1117" y="934.216"/>
      <point x="1045.59" y="462.074"/>
      <point x="1009" y="-7" type="curve"/>
      <point x="415" y="-25" type="line"/>
    </contour>
  </outline>
</glyph>
<glyph name="three" format="1">
  <advance width="1637"/>
  <unicode hex="0033"/>
  <outline>
    <contour>
      <point x="1553" y="430" type="curve" smooth="yes"/>
      <point x="1553" y="166"/>
      <point x="1305" y="-45"/>
      <point x="815" y="-45" type="curve" smooth="yes"/>
      <point x="595" y="-45"/>
      <point x="372" y="3"/>
      <point x="251" y="57" type="curve"/>
      <point x="253" y="405" type="line"/>
      <point x="360" y="378"/>
      <point x="489" y="356"/>
      <point x="593" y="356" type="curve" smooth="yes"/>
      <point x="689" y="356"/>
      <point x="738" y="423"/>
      <point x="738" y="489" type="curve" smooth="yes"/>
      <point x="738" y="552"/>
      <point x="693" y="614"/>
      <point x="600" y="614" type="curve" smooth="yes"/>
      <point x="380" y="614" type="line"/>
      <point x="411" y="902" type="line"/>
      <point x="553" y="902" type="line" smooth="yes"/>
      <point x="670" y="902"/>
      <point x="721" y="968"/>
      <point x="721" y="1035" type="curve" smooth="yes"/>
      <point x="721" y="1103"/>
      <point x="669" y="1171"/>
      <point x="580" y="1171" type="curve" smooth="yes"/>
      <point x="465" y="1171"/>
      <point x="332" y="1144"/>
      <point x="241" y="1121" type="curve"/>
      <point x="241" y="1422" type="line"/>
      <point x="432" y="1459"/>
      <point x="630" y="1481"/>
      <point x="811" y="1481" type="curve" smooth="yes"/>
      <point x="1207" y="1481"/>
      <point x="1524" y="1373"/>
      <point x="1524" y="1106" type="curve" smooth="yes"/>
      <point x="1524" y="941"/>
      <point x="1369" y="838"/>
      <point x="1264" y="782" type="curve"/>
      <point x="1382" y="738"/>
      <point x="1553" y="642"/>
    </contour>
  </outline>
</glyph>
<glyph name="four" format="1">
  <advance width="1956"/>
  <unicode hex="0034"/>
  <outline>
    <contour>
      <point x="723" y="568" type="line"/>
      <point x="944" y="568" type="line"/>
      <point x="1013" y="1032" type="line"/>
    </contour>
    <contour>
      <point x="1893.51" y="547.929" type="curve" smooth="yes"/>
      <point x="1855" y="270" type="line"/>
      <point x="1845" y="239"/>
      <point x="1874" y="231"/>
      <point x="1763" y="231" type="curve" smooth="yes"/>
      <point x="1630" y="231" type="line"/>
      <point x="1612.88" y="-4.9914" type="line"/>
      <point x="878.635" y="-11.955" type="line"/>
      <point x="908" y="226" type="line"/>
      <point x="135" y="226" type="line" smooth="yes"/>
      <point x="99" y="226"/>
      <point x="79" y="241"/>
      <point x="79" y="261" type="curve" smooth="yes"/>
      <point x="79" y="267"/>
      <point x="80.0055" y="272.611"/>
      <point x="84" y="278" type="curve" smooth="yes"/>
      <point x="946" y="1441" type="line"/>
      <point x="1661" y="1444.21" type="line" smooth="yes"/>
      <point x="1692" y="1444.21"/>
      <point x="1705.09" y="1433.92"/>
      <point x="1703.44" y="1407.97" type="curve" smooth="yes"/>
      <point x="1651" y="581" type="line"/>
      <point x="1800" y="582"/>
      <point x="1815" y="585"/>
      <point x="1832" y="585" type="curve" smooth="yes"/>
      <point x="1860.16" y="585"/>
      <point x="1897.5" y="576.654"/>
    </contour>
  </outline>
</glyph>
<glyph name="five" format="1">
  <advance width="1554"/>
  <unicode hex="0035"/>
  <outline>
    <contour>
      <point x="161" y="-45" type="curve"/>
      <point x="163" y="371" type="line" smooth="yes"/>
      <point x="163" y="379"/>
      <point x="760" y="368"/>
      <point x="760" y="568" type="curve" smooth="yes"/>
      <point x="760" y="697"/>
      <point x="445" y="703"/>
      <point x="230" y="703" type="curve"/>
      <point x="226" y="749" type="line"/>
      <point x="265" y="1439" type="line"/>
      <point x="1394" y="1443" type="line"/>
      <point x="1387" y="1235" type="line" smooth="yes"/>
      <point x="1383" y="1114"/>
      <point x="1128" y="1098"/>
      <point x="945" y="1098" type="curve" smooth="yes"/>
      <point x="875" y="1098"/>
      <point x="815" y="1100"/>
      <point x="784" y="1100" type="curve"/>
      <point x="784" y="973" type="line"/>
      <point x="1204" y="927"/>
      <point x="1441" y="864"/>
      <point x="1441" y="559" type="curve" smooth="yes"/>
      <point x="1441" y="6"/>
      <point x="827" y="-45"/>
    </contour>
  </outline>
</glyph>
<glyph name="seven" format="1">
  <advance width="1695"/>
  <unicode hex="0037"/>
  <outline>
    <contour>
      <point x="1338" y="1445" type="curve" smooth="yes"/>
      <point x="1690" y="1436" type="line"/>
      <point x="1459.57" y="960.433"/>
      <point x="1236.37" y="477.632"/>
      <point x="1016" y="-8" type="curve"/>
      <point x="282" y="-2" type="line"/>
      <point x="282" y="3"/>
      <point x="286" y="9"/>
      <point x="289" y="14" type="curve" smooth="yes"/>
      <point x="300" y="38"/>
      <point x="422.082" y="306.165"/>
      <point x="558" y="614" type="curve" smooth="yes"/>
      <point x="743" y="1033" type="line"/>
      <point x="314.004" y="1030.33" type="line" smooth="yes"/>
      <point x="268.004" y="1030.33"/>
      <point x="230.656" y="1032.11"/>
      <point x="232" y="1040" type="curve" smooth="yes"/>
      <point x="300" y="1439" type="line"/>
      <point x="867" y="1443"/>
      <point x="1059.09" y="1452.13"/>
    </contour>
  </outline>
</glyph>
<glyph name="nine" format="1">
  <advance width="2024"/>
  <unicode hex="0039"/>
  <outline>
    <contour>
      <point x="1021" y="1166" type="curve" smooth="yes"/>
      <point x="874" y="1166"/>
      <point x="833" y="1047"/>
      <point x="833" y="898" type="curve" smooth="yes"/>
      <point x="833" y="747"/>
      <point x="878" y="662"/>
      <point x="1011" y="662" type="curve" smooth="yes"/>
      <point x="1161" y="662"/>
      <point x="1199" y="812"/>
      <point x="1199" y="940" type="curve" smooth="yes"/>
      <point x="1199" y="1072"/>
      <point x="1155" y="1166"/>
    </contour>
    <contour>
      <point x="1217" y="-125" type="line"/>
      <point x="1167" y="-114"/>
      <point x="584" y="7"/>
      <point x="556" y="22" type="curve"/>
      <point x="651" y="135"/>
      <point x="809" y="318"/>
      <point x="889" y="433" type="curve"/>
      <point x="832" y="426"/>
      <point x="810" y="422"/>
      <point x="761" y="422" type="curve" smooth="yes"/>
      <point x="320" y="422"/>
      <point x="151" y="695"/>
      <point x="151" y="885" type="curve" smooth="yes"/>
      <point x="151" y="1255"/>
      <point x="460" y="1481"/>
      <point x="1082" y="1481" type="curve" smooth="yes"/>
      <point x="1768" y="1481"/>
      <point x="1915" y="1063"/>
      <point x="1915" y="890" type="curve" smooth="yes"/>
      <point x="1915" y="743"/>
      <point x="1864" y="623"/>
      <point x="1728" y="466" type="curve" smooth="yes"/>
    </contour>
  </outline>
</glyph>
<glyph name="colon" format="1">
  <advance width="820"/>
  <unicode hex="003A"/>
  <outline>
    <contour>
      <point x="642.996" y="414.533" type="line"/>
      <point x="637" y="4" type="line"/>
      <point x="502" y="0"/>
      <point x="371" y="-1"/>
      <point x="261" y="-1" type="curve" smooth="yes"/>
      <point x="201" y="-1" type="line"/>
      <point x="199" y="71" type="line"/>
      <point x="199" y="411" type="line"/>
    </contour>
    <contour>
      <point x="642.996" y="1111.53" type="line"/>
      <point x="637" y="701" type="line"/>
      <point x="502" y="697"/>
      <point x="371" y="696"/>
      <point x="261" y="696" type="curve" smooth="yes"/>
      <point x="201" y="696" type="line"/>
      <point x="199" y="768" type="line"/>
      <point x="199" y="1108" type="line"/>
    </contour>
  </outline>
</glyph>
<glyph name="semicolon" format="1">
  <advance width="848"/>
  <unicode hex="003B"/>
  <outline>
    <contour>
      <point x="626" y="30" type="line" smooth="yes"/>
      <point x="626" y="-150"/>
      <point x="473" y="-359"/>
      <point x="171" y="-411" type="curve"/>
      <point x="171" y="-262" type="line"/>
      <point x="296" y="-227"/>
      <point x="399" y="-89"/>
      <point x="416" y="-35" type="curve"/>
      <point x="197" y="-35" type="line"/>
      <point x="197" y="22" type="line" smooth="yes"/>
      <point x="197" y="93"/>
      <point x="201" y="332"/>
      <point x="200" y="386" type="curve"/>
      <point x="309" y="386"/>
      <point x="467" y="387"/>
      <point x="575" y="387" type="curve" smooth="yes"/>
      <point x="592" y="387"/>
      <point x="609" y="386"/>
      <point x="624" y="384" type="curve"/>
      <point x="625" y="367"/>
      <point x="626" y="287.026"/>
      <point x="626" y="268" type="curve" smooth="yes"/>
    </contour>
    <contour>
      <point x="642.996" y="1111.53" type="line"/>
      <point x="637" y="701" type="line"/>
      <point x="502" y="697"/>
      <point x="371" y="696"/>
      <point x="261" y="696" type="curve" smooth="yes"/>
      <point x="201" y="696" type="line"/>
      <point x="199" y="768" type="line"/>
      <point x="199" y="1108" type="line"/>
    </contour>
  </outline>
</glyph>
<glyph name="less" format="1">
  <advance width="1076"/>
  <unicode hex="003C"/>
  <outline>
    <contour>
      <point x="128" y="761" type="curve"/>
      <point x="261" y="825"/>
      <point x="643.419" y="961.734"/>
      <point x="924" y="1068" type="curve" smooth="yes"/>
      <point x="944.419" y="1075.73"/>
      <point x="960" y="1077"/>
      <point x="969" y="1077" type="curve" smooth="yes"/>
      <point x="978" y="1077"/>
      <point x="984.023" y="1072.13"/>
      <point x="985" y="1061" type="curve" smooth="yes"/>
      <point x="994.023" y="958.132"/>
      <point x="1000" y="840"/>
      <point x="1024" y="740" type="curve"/>
      <point x="1024" y="725"/>
      <point x="1020" y="718"/>
      <point x="1012" y="717" type="curve"/>
      <point x="572" y="555" type="line"/>
      <point x="617" y="531"/>
      <point x="959" y="360"/>
      <point x="1028" y="324" type="curve" smooth="yes"/>
      <point x="1033" y="321"/>
      <point x="1036" y="317"/>
      <point x="1036" y="313" type="curve" smooth="yes"/>
      <point x="1036" y="309"/>
      <point x="1035" y="305"/>
      <point x="1034" y="301" type="curve"/>
      <point x="978" y="201"/>
      <point x="946" y="94"/>
      <point x="909" y="-10" type="curve" smooth="yes"/>
      <point x="904" y="-23"/>
      <point x="896" y="-29"/>
      <point x="884" y="-29" type="curve" smooth="yes"/>
      <point x="873" y="-29"/>
      <point x="863.815" y="-27.3741"/>
      <point x="846" y="-17" type="curve" smooth="yes"/>
      <point x="190" y="365" type="line"/>
      <point x="147" y="386"/>
      <point x="136" y="394"/>
      <point x="136" y="421" type="curve" smooth="yes"/>
      <point x="136" y="522.079"/>
      <point x="128" y="625"/>
      <point x="116" y="737" type="curve" smooth="yes"/>
      <point x="116" y="740"/>
      <point x="115" y="741"/>
      <point x="115" y="742" type="curve" smooth="yes"/>
      <point x="116" y="752"/>
      <point x="120" y="761"/>
    </contour>
  </outline>
</glyph>
<glyph name="equal" format="1">
  <advance width="979"/>
  <unicode hex="003D"/>
  <outline>
    <contour>
      <point x="444" y="257" type="curve" smooth="yes"/>
      <point x="282" y="257"/>
      <point x="139" y="258"/>
      <point x="98" y="258" type="curve"/>
      <point x="104" y="572" type="line"/>
      <point x="590" y="572" type="line"/>
      <point x="872" y="576" type="line"/>
      <point x="874" y="260" type="line"/>
      <point x="747" y="257"/>
      <point x="590" y="257"/>
    </contour>
    <contour>
      <point x="235" y="765" type="curve" smooth="yes"/>
      <point x="96" y="765" type="line"/>
      <point x="113.832" y="1075.01" type="line"/>
      <point x="423" y="1075.01" type="line"/>
      <point x="887" y="1078" type="line"/>
      <point x="876" y="774" type="line"/>
      <point x="619" y="769"/>
      <point x="345" y="765"/>
    </contour>
  </outline>
</glyph>
<glyph name="greater" format="1">
  <advance width="1051"/>
  <unicode hex="003E"/>
  <outline>
    <contour>
      <point x="1053" y="742" type="curve" smooth="yes"/>
      <point x="1053" y="741"/>
      <point x="1052" y="740"/>
      <point x="1052" y="737" type="curve" smooth="yes"/>
      <point x="1040" y="625"/>
      <point x="1032" y="522.079"/>
      <point x="1032" y="421" type="curve" smooth="yes"/>
      <point x="1032" y="394"/>
      <point x="1019.35" y="389.081"/>
      <point x="978" y="365" type="curve" smooth="yes"/>
      <point x="322" y="-17" type="line"/>
      <point x="303" y="-25"/>
      <point x="295" y="-29"/>
      <point x="284" y="-29" type="curve" smooth="yes"/>
      <point x="269" y="-29"/>
      <point x="264" y="-23"/>
      <point x="259" y="-10" type="curve" smooth="yes"/>
      <point x="220" y="94"/>
      <point x="186" y="201"/>
      <point x="134" y="301" type="curve" smooth="yes"/>
      <point x="133" y="305"/>
      <point x="132" y="309"/>
      <point x="132" y="313" type="curve" smooth="yes"/>
      <point x="132" y="318"/>
      <point x="133" y="321"/>
      <point x="140" y="324" type="curve" smooth="yes"/>
      <point x="209" y="360"/>
      <point x="551" y="531"/>
      <point x="596" y="555" type="curve"/>
      <point x="156" y="717" type="line"/>
      <point x="148" y="718"/>
      <point x="144" y="725"/>
      <point x="144" y="740" type="curve"/>
      <point x="168" y="840"/>
      <point x="173.977" y="958.132"/>
      <point x="183" y="1061" type="curve" smooth="yes"/>
      <point x="183.977" y="1072.13"/>
      <point x="190" y="1077"/>
      <point x="199" y="1077" type="curve" smooth="yes"/>
      <point x="208" y="1077"/>
      <point x="223.581" y="1075.73"/>
      <point x="244" y="1068" type="curve" smooth="yes"/>
      <point x="524.581" y="961.734"/>
      <point x="907" y="825"/>
      <point x="1040" y="761" type="curve"/>
      <point x="1048" y="761"/>
      <point x="1052" y="752"/>
    </contour>
  </outline>
</glyph>
<glyph name="question" format="1">
  <advance width="1531"/>
  <unicode hex="003F"/>
  <outline>
    <contour>
      <point x="659" y="-49" type="curve" smooth="yes"/>
      <point x="648" y="-49"/>
      <point x="648" y="-49"/>
      <point x="648" y="-38" type="curve" smooth="yes"/>
      <point x="650" y="274" type="line"/>
      <point x="809" y="274"/>
      <point x="874" y="276"/>
      <point x="1008" y="276" type="curve"/>
      <point x="1010" y="-46" type="line"/>
      <point x="950" y="-46" type="line"/>
      <point x="837" y="-47"/>
      <point x="788" y="-49"/>
    </contour>
    <contour>
      <point x="973" y="993" type="curve" smooth="yes"/>
      <point x="973" y="1079"/>
      <point x="917" y="1139"/>
      <point x="816" y="1139" type="curve" smooth="yes"/>
      <point x="739" y="1139"/>
      <point x="662" y="1101"/>
      <point x="662" y="1030" type="curve" smooth="yes"/>
      <point x="662" y="995"/>
      <point x="679" y="963"/>
      <point x="679" y="954" type="curve"/>
      <point x="604" y="936"/>
      <point x="342" y="881"/>
      <point x="274" y="866" type="curve"/>
      <point x="250" y="902"/>
      <point x="229" y="970"/>
      <point x="229" y="1012" type="curve" smooth="yes"/>
      <point x="229" y="1387"/>
      <point x="633" y="1482"/>
      <point x="883" y="1482" type="curve" smooth="yes"/>
      <point x="1224" y="1482"/>
      <point x="1463" y="1311"/>
      <point x="1463" y="1014" type="curve" smooth="yes"/>
      <point x="1463" y="719"/>
      <point x="1141" y="460"/>
      <point x="698" y="403" type="curve"/>
      <point x="589" y="613" type="line"/>
      <point x="905" y="746"/>
      <point x="973" y="888"/>
    </contour>
  </outline>
</glyph>
<glyph name="at" format="1">
  <advance width="1951"/>
  <unicode hex="0040"/>
  <outline>
    <contour>
      <point x="1390" y="235" type="curve" smooth="yes"/>
      <point x="1277" y="239"/>
      <point x="1147" y="268"/>
      <point x="1102" y="435" type="curve"/>
      <point x="1058" y="322"/>
      <point x="950" y="269"/>
      <point x="885" y="269" type="curve" smooth="yes"/>
      <point x="731" y="269"/>
      <point x="588" y="374"/>
      <point x="588" y="590" type="curve" smooth="yes"/>
      <point x="588" y="612" type="line"/>
      <point x="600" y="880"/>
      <point x="780" y="1064"/>
      <point x="985" y="1064" type="curve" smooth="yes"/>
      <point x="1045" y="1064"/>
      <point x="1115" y="1029"/>
      <point x="1138" y="970" type="curve"/>
      <point x="1177" y="1056" type="line"/>
      <point x="1395" y="1046" type="line"/>
      <point x="1329" y="564" type="line" smooth="yes"/>
      <point x="1328" y="557"/>
      <point x="1328" y="507"/>
      <point x="1328" y="498" type="curve" smooth="yes"/>
      <point x="1328" y="428"/>
      <point x="1376" y="380"/>
      <point x="1432" y="380" type="curve" smooth="yes"/>
      <point x="1514" y="380"/>
      <point x="1614" y="479"/>
      <point x="1614" y="751" type="curve" smooth="yes"/>
      <point x="1614" y="1088"/>
      <point x="1420" y="1284"/>
      <point x="1080" y="1284" type="curve" smooth="yes"/>
      <point x="655" y="1284"/>
      <point x="388" y="957"/>
      <point x="388" y="582" type="curve" smooth="yes"/>
      <point x="388" y="254"/>
      <point x="677" y="13"/>
      <point x="1080" y="13" type="curve"/>
      <point x="1022" y="-163" type="line"/>
      <point x="376" y="-163"/>
      <point x="132" y="247"/>
      <point x="132" y="592" type="curve" smooth="yes"/>
      <point x="132" y="1129"/>
      <point x="597" y="1481"/>
      <point x="1109" y="1481" type="curve" smooth="yes"/>
      <point x="1537" y="1481"/>
      <point x="1833" y="1191"/>
      <point x="1833" y="750" type="curve" smooth="yes"/>
      <point x="1833" y="470"/>
      <point x="1669" y="225"/>
    </contour>
    <contour>
      <point x="1060" y="493" type="curve"/>
      <point x="1106" y="837" type="line"/>
      <point x="1086" y="856"/>
      <point x="1022" y="882"/>
      <point x="985" y="882" type="curve" smooth="yes"/>
      <point x="878" y="882"/>
      <point x="803" y="740"/>
      <point x="803" y="619" type="curve" smooth="yes"/>
      <point x="803" y="531"/>
      <point x="843" y="455"/>
      <point x="941" y="455" type="curve" smooth="yes"/>
      <point x="965" y="455"/>
      <point x="1027" y="470"/>
    </contour>
  </outline>
</glyph>
<glyph name="A" format="1">
  <advance width="2276"/>
  <unicode hex="0041"/>
  <outline>
    <contour>
      <point x="1226" y="540" type="line"/>
      <point x="1179" y="691"/>
      <point x="1130" y="840"/>
      <point x="1083" y="1021" type="curve"/>
      <point x="1005" y="779"/>
      <point x="947" y="641"/>
      <point x="909" y="540" type="curve"/>
    </contour>
    <contour>
      <point x="580" y="-22" type="curve" smooth="yes"/>
      <point x="537" y="-22"/>
      <point x="176" y="-5"/>
      <point x="71" y="0" type="curve"/>
      <point x="122" y="107"/>
      <point x="340" y="590"/>
      <point x="711" y="1430" type="curve"/>
      <point x="912" y="1436"/>
      <point x="1156" y="1451"/>
      <point x="1415" y="1451" type="curve" smooth="yes"/>
      <point x="1478" y="1451"/>
      <point x="1541" y="1449"/>
      <point x="1596" y="1431" type="curve"/>
      <point x="1601" y="1414"/>
      <point x="1957" y="586"/>
      <point x="2121" y="205" type="curve" smooth="yes"/>
      <point x="2205" y="9" type="line"/>
      <point x="1585" y="-29"/>
      <point x="1566" y="-30"/>
      <point x="1547" y="-30" type="curve" smooth="yes"/>
      <point x="1506" y="-30"/>
      <point x="1466" y="-26"/>
      <point x="1427" y="-24" type="curve"/>
      <point x="1391" y="40"/>
      <point x="1371" y="93"/>
      <point x="1350" y="165" type="curve"/>
      <point x="1302" y="171"/>
      <point x="829" y="173"/>
      <point x="759" y="173" type="curve"/>
      <point x="731" y="101"/>
      <point x="714" y="68"/>
      <point x="684" y="-15" type="curve"/>
      <point x="655" y="-19"/>
      <point x="624" y="-22"/>
    </contour>
  </outline>
</glyph>
<glyph name="B" format="1">
  <advance width="2365"/>
  <unicode hex="0042"/>
  <outline>
    <contour>
      <point x="949" y="281" type="curve"/>
      <point x="1221" y="281"/>
      <point x="1568" y="330"/>
      <point x="1564" y="462" type="curve" smooth="yes"/>
      <point x="1564" y="468"/>
      <point x="1563" y="475"/>
      <point x="1562" y="481" type="curve" smooth="yes"/>
      <point x="1541" y="593"/>
      <point x="1366" y="627"/>
      <point x="974" y="627" type="curve"/>
      <point x="964" y="485"/>
      <point x="955" y="365"/>
    </contour>
    <contour>
      <point x="992" y="858" type="curve"/>
      <point x="1117" y="858" type="line" smooth="yes"/>
      <point x="1407" y="858"/>
      <point x="1484" y="916"/>
      <point x="1504" y="990" type="curve" smooth="yes"/>
      <point x="1507" y="1000"/>
      <point x="1509" y="1010"/>
      <point x="1509" y="1020" type="curve" smooth="yes"/>
      <point x="1506" y="1137"/>
      <point x="1283" y="1161"/>
      <point x="1103" y="1161" type="curve" smooth="yes"/>
      <point x="1053" y="1161"/>
      <point x="1052" y="1159"/>
      <point x="1014" y="1154" type="curve"/>
      <point x="1007" y="1094"/>
      <point x="999" y="994"/>
    </contour>
    <contour>
      <point x="1085" y="-25" type="curve" smooth="yes"/>
      <point x="842" y="-25"/>
      <point x="349" y="-12"/>
      <point x="238" y="-4" type="curve"/>
      <point x="211" y="3"/>
      <point x="204" y="18"/>
      <point x="204" y="35" type="curve"/>
      <point x="203" y="39"/>
      <point x="204" y="39"/>
      <point x="204" y="43" type="curve" smooth="yes"/>
      <point x="219" y="339"/>
      <point x="243" y="706"/>
      <point x="265" y="1022" type="curve"/>
      <point x="264" y="1022" type="line"/>
      <point x="297" y="1451" type="line"/>
      <point x="447" y="1457"/>
      <point x="987" y="1462"/>
      <point x="1256" y="1462" type="curve" smooth="yes"/>
      <point x="1817" y="1462"/>
      <point x="2167" y="1346"/>
      <point x="2173" y="1106" type="curve" smooth="yes"/>
      <point x="2175" y="991"/>
      <point x="2031" y="860"/>
      <point x="1867" y="820" type="curve"/>
      <point x="2066" y="788"/>
      <point x="2198" y="691"/>
      <point x="2225" y="551" type="curve" smooth="yes"/>
      <point x="2293" y="203"/>
      <point x="1989" y="-25"/>
    </contour>
  </outline>
</glyph>
<glyph name="C" format="1">
  <advance width="1742"/>
  <unicode hex="0043"/>
  <outline>
    <contour>
      <point x="133" y="702" type="curve" smooth="yes"/>
      <point x="133" y="1294"/>
      <point x="750" y="1481"/>
      <point x="1343" y="1481" type="curve" smooth="yes"/>
      <point x="1409" y="1481"/>
      <point x="1474" y="1478"/>
      <point x="1536" y="1471" type="curve"/>
      <point x="1536" y="997" type="line"/>
      <point x="1456" y="1008"/>
      <point x="1366" y="1015"/>
      <point x="1268" y="1015" type="curve" smooth="yes"/>
      <point x="1059" y="1015"/>
      <point x="903" y="933"/>
      <point x="903" y="710" type="curve" smooth="yes"/>
      <point x="903" y="461"/>
      <point x="1054.94" y="374"/>
      <point x="1262" y="374" type="curve" smooth="yes"/>
      <point x="1327" y="374"/>
      <point x="1442" y="391"/>
      <point x="1536" y="409" type="curve"/>
      <point x="1536" y="-30" type="line"/>
      <point x="1428" y="-42"/>
      <point x="1321" y="-45"/>
      <point x="1236" y="-45" type="curve" smooth="yes"/>
      <point x="698" y="-45"/>
      <point x="133" y="125"/>
    </contour>
  </outline>
</glyph>
<glyph name="D" format="1">
  <advance width="2319"/>
  <unicode hex="0044"/>
  <outline>
    <contour>
      <point x="955" y="1064" type="curve"/>
      <point x="922" y="360" type="line"/>
      <point x="1278" y="363"/>
      <point x="1490" y="406"/>
      <point x="1490" y="744" type="curve" smooth="yes"/>
      <point x="1490" y="976"/>
      <point x="1319" y="1072"/>
      <point x="1172" y="1072" type="curve" smooth="yes"/>
      <point x="1097" y="1072"/>
      <point x="990" y="1066"/>
    </contour>
    <contour>
      <point x="153" y="-22" type="line"/>
      <point x="169" y="76"/>
      <point x="242" y="750"/>
      <point x="267" y="1409" type="curve"/>
      <point x="267" y="1409"/>
      <point x="888" y="1461"/>
      <point x="1287" y="1461" type="curve" smooth="yes"/>
      <point x="1797" y="1461"/>
      <point x="2188" y="1264"/>
      <point x="2188" y="783" type="curve" smooth="yes"/>
      <point x="2188" y="19"/>
      <point x="1620.05" y="12.6294"/>
      <point x="1010" y="-14" type="curve" smooth="yes"/>
      <point x="864.055" y="-20.3706"/>
      <point x="720" y="-22"/>
      <point x="576" y="-22" type="curve" smooth="yes"/>
    </contour>
  </outline>
</glyph>
<glyph name="E" format="1">
  <advance width="2048"/>
  <unicode hex="0045"/>
  <outline>
    <contour>
      <point x="1318" y="-10" type="curve" smooth="yes"/>
      <point x="1042" y="-10"/>
      <point x="376" y="-2"/>
      <point x="376" y="-2" type="curve"/>
      <point x="175" y="-2" type="line" smooth="yes"/>
      <point x="174" y="-2"/>
      <point x="243" y="1408"/>
      <point x="243" y="1437" type="curve"/>
      <point x="309" y="1439"/>
      <point x="314.906" y="1442"/>
      <point x="400" y="1442" type="curve" smooth="yes"/>
      <point x="1043" y="1442" type="line"/>
      <point x="1333" y="1440"/>
      <point x="1803" y="1442"/>
      <point x="1957" y="1446" type="curve"/>
      <point x="1916" y="1069" type="line"/>
      <point x="1647" y="1045"/>
      <point x="1294" y="1049"/>
      <point x="952" y="1047" type="curve"/>
      <point x="946" y="1004"/>
      <point x="946" y="950"/>
      <point x="940" y="880" type="curve"/>
      <point x="1115" y="882"/>
      <point x="1285.04" y="886.102"/>
      <point x="1406" y="883" type="curve" smooth="yes"/>
      <point x="1562" y="879" type="line"/>
      <point x="1562" y="828"/>
      <point x="1542" y="646"/>
      <point x="1519" y="560" type="curve"/>
      <point x="1515" y="559"/>
      <point x="1462" y="556"/>
      <point x="1270" y="556" type="curve" smooth="yes"/>
      <point x="1223" y="556"/>
      <point x="1168" y="557"/>
      <point x="1104" y="557" type="curve" smooth="yes"/>
      <point x="1045" y="557"/>
      <point x="987" y="557"/>
      <point x="927" y="556" type="curve"/>
      <point x="916" y="361" type="line"/>
      <point x="1966" y="349" type="line"/>
      <point x="1966" y="87"/>
      <point x="1955" y="25"/>
      <point x="1955" y="-9" type="curve"/>
      <point x="1716" y="-9"/>
      <point x="1562" y="-10"/>
    </contour>
  </outline>
</glyph>
<glyph name="H" format="1">
  <advance width="2421"/>
  <unicode hex="0048"/>
  <outline>
    <contour>
      <point x="950" y="943" type="line"/>
      <point x="1488" y="943" type="line"/>
      <point x="1491" y="964"/>
      <point x="1519" y="1440"/>
      <point x="1519" y="1440" type="curve"/>
      <point x="1561" y="1440"/>
      <point x="1622" y="1438"/>
      <point x="1661" y="1439" type="curve" smooth="yes"/>
      <point x="2237" y="1454" type="line"/>
      <point x="2238" y="1434"/>
      <point x="2201" y="792"/>
      <point x="2201" y="717" type="curve" smooth="yes"/>
      <point x="2201" y="677"/>
      <point x="2197" y="698"/>
      <point x="2180" y="2" type="curve"/>
      <point x="2124" y="2"/>
      <point x="1537" y="-11"/>
      <point x="1462" y="-11" type="curve"/>
      <point x="1462" y="60"/>
      <point x="1470" y="317"/>
      <point x="1476" y="432" type="curve"/>
      <point x="942" y="432" type="line"/>
      <point x="916" y="2" type="line"/>
      <point x="226.005" y="-17.1665" type="line"/>
      <point x="226.005" y="102.833"/>
      <point x="229.736" y="261.01"/>
      <point x="234.988" y="402" type="curve" smooth="yes"/>
      <point x="256" y="966" type="line" smooth="yes"/>
      <point x="258" y="1027"/>
      <point x="279" y="1367"/>
      <point x="282" y="1444" type="curve"/>
      <point x="359" y="1448"/>
      <point x="853" y="1453"/>
      <point x="969" y="1453" type="curve" smooth="yes"/>
      <point x="988" y="1453" type="line"/>
    </contour>
  </outline>
</glyph>
<glyph name="I" format="1">
  <advance width="1183"/>
  <unicode hex="0049"/>
  <outline>
    <contour>
      <point x="990" y="1449" type="curve"/>
      <point x="998" y="1393"/>
      <point x="990.557" y="1332.98"/>
      <point x="989" y="1262" type="curve" smooth="yes"/>
      <point x="961.545" y="10.0319" type="line"/>
      <point x="771" y="5" type="line"/>
      <point x="632" y="5"/>
      <point x="378" y="0"/>
      <point x="248" y="0" type="curve"/>
      <point x="244" y="56"/>
      <point x="245.327" y="86.0209"/>
      <point x="247" y="153" type="curve" smooth="yes"/>
      <point x="279" y="1434" type="line"/>
      <point x="338" y="1437"/>
      <point x="702.929" y="1447"/>
      <point x="816" y="1447" type="curve" smooth="yes"/>
      <point x="875" y="1447"/>
      <point x="933" y="1449"/>
    </contour>
  </outline>
</glyph>
<glyph name="J" format="1">
  <advance width="1363"/>
  <unicode hex="004A"/>
  <outline>
    <contour>
      <point x="1209" y="1452" type="curve"/>
      <point x="1205" y="854" type="line"/>
      <point x="1171" y="155"/>
      <point x="946" y="-75"/>
      <point x="298" y="-129" type="curve"/>
      <point x="285" y="-109"/>
      <point x="203" y="21"/>
      <point x="96" y="236" type="curve"/>
      <point x="317" y="274"/>
      <point x="407" y="413"/>
      <point x="407" y="689" type="curve" smooth="yes"/>
      <point x="407" y="734"/>
      <point x="409" y="1238"/>
      <point x="408" y="1441" type="curve"/>
      <point x="456" y="1443"/>
      <point x="898" y="1447"/>
      <point x="1043" y="1447" type="curve" smooth="yes"/>
      <point x="1097" y="1447"/>
      <point x="1154" y="1450"/>
    </contour>
  </outline>
</glyph>
<glyph name="K" format="1">
  <advance width="2332"/>
  <unicode hex="004B"/>
  <outline>
    <contour>
      <point x="2154" y="1248" type="line"/>
      <point x="2154" y="1251" type="line"/>
      <point x="2155" y="1249"/>
      <point x="2158" y="1248"/>
      <point x="2158" y="1248" type="curve"/>
    </contour>
    <contour>
      <point x="2154" y="1249" type="curve"/>
      <point x="2154" y="1242" type="line"/>
      <point x="1986.21" y="1062.12"/>
      <point x="1809.49" y="891.177"/>
      <point x="1637" y="716" type="curve"/>
      <point x="2293" y="202" type="line"/>
      <point x="1738" y="-27" type="line"/>
      <point x="1632" y="-81" type="line"/>
      <point x="1459" y="61" type="line"/>
      <point x="1294" y="200"/>
      <point x="1020" y="446"/>
      <point x="939" y="532" type="curve"/>
      <point x="937" y="384"/>
      <point x="923" y="94"/>
      <point x="923" y="76" type="curve" smooth="yes"/>
      <point x="923" y="6" type="line"/>
      <point x="858" y="4"/>
      <point x="322" y="-10"/>
      <point x="186" y="-10" type="curve"/>
      <point x="183" y="40"/>
      <point x="179.208" y="93.0268"/>
      <point x="181" y="153" type="curve" smooth="yes"/>
      <point x="200" y="789" type="line"/>
      <point x="210" y="1003"/>
      <point x="221" y="1177"/>
      <point x="221" y="1312" type="curve" smooth="yes"/>
      <point x="221" y="1358"/>
      <point x="223" y="1397"/>
      <point x="227" y="1428" type="curve"/>
      <point x="288" y="1436"/>
      <point x="697" y="1450"/>
      <point x="858" y="1450" type="curve" smooth="yes"/>
      <point x="891" y="1450"/>
      <point x="923" y="1449"/>
      <point x="955" y="1449" type="curve"/>
      <point x="964" y="1393"/>
      <point x="967" y="1333"/>
      <point x="967" y="1262" type="curve" smooth="yes"/>
      <point x="967" y="1124.64"/>
      <point x="954" y="1008"/>
      <point x="950" y="891" type="curve"/>
      <point x="1365" y="1415" type="line"/>
      <point x="1430" y="1491" type="line"/>
      <point x="1667.06" y="1406.06"/>
      <point x="1908.57" y="1325.57"/>
    </contour>
  </outline>
</glyph>
<glyph name="L" format="1">
  <advance width="1936"/>
  <unicode hex="004C"/>
  <outline>
    <contour>
      <point x="168" y="0" type="curve"/>
      <point x="172" y="243" type="line"/>
      <point x="180" y="570" type="line"/>
      <point x="186" y="662"/>
      <point x="207" y="1231"/>
      <point x="221" y="1435" type="curve"/>
      <point x="323" y="1447"/>
      <point x="565" y="1457"/>
      <point x="965" y="1450" type="curve"/>
      <point x="942" y="950" type="line"/>
      <point x="937.513" y="758"/>
      <point x="929.179" y="624"/>
      <point x="917" y="360" type="curve"/>
      <point x="1688.04" y="378.471" type="line"/>
      <point x="1759.04" y="378.471"/>
      <point x="1820" y="376"/>
      <point x="1877" y="367" type="curve"/>
      <point x="1877" y="323"/>
      <point x="1873.34" y="279.458"/>
      <point x="1861" y="200" type="curve" smooth="yes"/>
      <point x="1829" y="-6" type="line"/>
      <point x="1796" y="-6"/>
      <point x="1442" y="-5"/>
      <point x="1075" y="-5" type="curve" smooth="yes"/>
      <point x="799" y="-5"/>
      <point x="517" y="-6"/>
      <point x="359" y="-7" type="curve" smooth="yes"/>
      <point x="274" y="-7"/>
      <point x="239" y="-5"/>
    </contour>
  </outline>
</glyph>
<glyph name="M" format="1">
  <advance width="2687"/>
  <unicode hex="004D"/>
  <outline>
    <contour>
      <point x="147" y="173" type="line"/>
      <point x="160" y="307"/>
      <point x="170" y="473"/>
      <point x="220" y="1437" type="curve"/>
      <point x="225" y="1437" type="line" smooth="yes"/>
      <point x="286" y="1437"/>
      <point x="831" y="1442"/>
      <point x="973" y="1447" type="curve"/>
      <point x="1009" y="1370" type="line"/>
      <point x="1331" y="779" type="line"/>
      <point x="1725" y="1454" type="line"/>
      <point x="2458" y="1456" type="line"/>
      <point x="2484" y="1064"/>
      <point x="2516.77" y="638.156"/>
      <point x="2521" y="580" type="curve" smooth="yes"/>
      <point x="2554" y="126" type="line"/>
      <point x="2561" y="3" type="line"/>
      <point x="2398" y="0"/>
      <point x="2100" y="-9"/>
      <point x="1939" y="-9" type="curve"/>
      <point x="1939" y="-9"/>
      <point x="1901.34" y="371.66"/>
      <point x="1893" y="518" type="curve" smooth="yes"/>
      <point x="1884" y="676" type="line"/>
      <point x="1470" y="21" type="line"/>
      <point x="1445" y="21"/>
      <point x="1269" y="18"/>
      <point x="1177" y="23" type="curve"/>
      <point x="1177" y="23"/>
      <point x="977" y="419"/>
      <point x="880" y="635" type="curve"/>
      <point x="807" y="-4" type="line"/>
      <point x="740" y="-6"/>
      <point x="670" y="-7"/>
      <point x="591" y="-7" type="curve" smooth="yes"/>
      <point x="448" y="-7"/>
      <point x="238" y="-2"/>
      <point x="134" y="4" type="curve"/>
    </contour>
  </outline>
</glyph>
<glyph name="N" format="1">
  <advance width="2368"/>
  <unicode hex="004E"/>
  <outline>
    <contour>
      <point x="187" y="1431" type="line"/>
      <point x="1076" y="1450" type="line"/>
      <point x="1107" y="1414"/>
      <point x="1471" y="1010"/>
      <point x="1620" y="839" type="curve"/>
      <point x="1620" y="1279" type="line"/>
      <point x="1621" y="1342"/>
      <point x="1622" y="1394"/>
      <point x="1626" y="1440" type="curve"/>
      <point x="2222" y="1446.7" type="line"/>
      <point x="2224" y="958" type="line" smooth="yes"/>
      <point x="2224" y="808"/>
      <point x="2222" y="616"/>
      <point x="2220" y="455" type="curve" smooth="yes"/>
      <point x="2216.99" y="228" type="line"/>
      <point x="2219" y="62" type="line"/>
      <point x="2131" y="47"/>
      <point x="2050" y="50"/>
      <point x="1532" y="-45" type="curve"/>
      <point x="787" y="623" type="line"/>
      <point x="775" y="154"/>
      <point x="773" y="51"/>
      <point x="773" y="23" type="curve" smooth="yes"/>
      <point x="773" y="12" type="line"/>
      <point x="617" y="9"/>
      <point x="362" y="-9"/>
      <point x="149" y="-9" type="curve"/>
      <point x="152" y="35"/>
      <point x="154" y="82"/>
      <point x="154" y="137" type="curve" smooth="yes"/>
      <point x="154" y="427.209"/>
      <point x="187" y="761.808"/>
      <point x="187" y="1077" type="curve" smooth="yes"/>
    </contour>
  </outline>
</glyph>
<glyph name="O" format="1">
  <advance width="2565"/>
  <unicode hex="004F"/>
  <outline>
    <contour>
      <point x="1283" y="361" type="curve" smooth="yes"/>
      <point x="1514.11" y="361"/>
      <point x="1646" y="484"/>
      <point x="1646" y="742" type="curve" smooth="yes"/>
      <point x="1646" y="989"/>
      <point x="1503" y="1066"/>
      <point x="1294" y="1066" type="curve" smooth="yes"/>
      <point x="1069" y="1066"/>
      <point x="927" y="944.008"/>
      <point x="927" y="705" type="curve" smooth="yes"/>
      <point x="927" y="454"/>
      <point x="1066" y="361"/>
    </contour>
    <contour>
      <point x="1235" y="-45" type="curve" smooth="yes"/>
      <point x="747" y="-45"/>
      <point x="126" y="106"/>
      <point x="126" y="689" type="curve" smooth="yes"/>
      <point x="126" y="1344"/>
      <point x="816" y="1481"/>
      <point x="1278" y="1481" type="curve" smooth="yes"/>
      <point x="1808" y="1481"/>
      <point x="2439" y="1340"/>
      <point x="2439" y="753" type="curve" smooth="yes"/>
      <point x="2439" y="113"/>
      <point x="1757" y="-45"/>
    </contour>
  </outline>
</glyph>
<glyph name="P" format="1">
  <advance width="2260"/>
  <unicode hex="0050"/>
  <outline>
    <contour>
      <point x="919" y="9" type="line"/>
      <point x="820" y="5"/>
      <point x="462" y="-9"/>
      <point x="302" y="-9" type="curve" smooth="yes"/>
      <point x="266" y="-9"/>
      <point x="240" y="-8"/>
      <point x="229" y="-5" type="curve"/>
      <point x="232" y="32"/>
      <point x="233" y="68"/>
      <point x="234" y="102" type="curve" smooth="yes"/>
      <point x="237" y="270" type="line"/>
      <point x="245" y="484"/>
      <point x="259" y="1167"/>
      <point x="265" y="1438" type="curve"/>
      <point x="595" y="1457"/>
      <point x="987" y="1468"/>
      <point x="1331" y="1468" type="curve" smooth="yes"/>
      <point x="1754" y="1468"/>
      <point x="2177" y="1361"/>
      <point x="2177" y="939" type="curve" smooth="yes"/>
      <point x="2177" y="532"/>
      <point x="1732" y="441"/>
      <point x="1306" y="441" type="curve" smooth="yes"/>
      <point x="1178" y="441"/>
      <point x="987" y="447"/>
      <point x="940" y="447" type="curve"/>
    </contour>
    <contour>
      <point x="1463" y="946" type="curve" smooth="yes"/>
      <point x="1463" y="1067"/>
      <point x="1359" y="1081"/>
      <point x="1265" y="1081" type="curve" smooth="yes"/>
      <point x="1221" y="1081"/>
      <point x="994" y="1068"/>
      <point x="966" y="1054" type="curve"/>
      <point x="953" y="908"/>
      <point x="952" y="813"/>
      <point x="952" y="799" type="curve"/>
      <point x="1032" y="788"/>
      <point x="1102" y="783"/>
      <point x="1162" y="783" type="curve" smooth="yes"/>
      <point x="1372" y="783"/>
      <point x="1463" y="845"/>
    </contour>
  </outline>
</glyph>
<glyph name="Q" format="1">
  <advance width="2516"/>
  <unicode hex="0051"/>
  <outline>
    <contour>
      <point x="1284" y="361" type="curve"/>
      <point x="1286" y="362"/>
      <point x="1287" y="363"/>
      <point x="1288" y="363" type="curve" smooth="yes"/>
      <point x="1289" y="363"/>
      <point x="1290" y="362"/>
      <point x="1291" y="362" type="curve" smooth="yes"/>
      <point x="1539" y="362"/>
      <point x="1621" y="549"/>
      <point x="1621" y="727" type="curve" smooth="yes"/>
      <point x="1621" y="967"/>
      <point x="1512" y="1067"/>
      <point x="1287" y="1067" type="curve" smooth="yes"/>
      <point x="1063" y="1067"/>
      <point x="904" y="952"/>
      <point x="904" y="705" type="curve" smooth="yes"/>
      <point x="904" y="456"/>
      <point x="1068" y="361"/>
    </contour>
    <contour>
      <point x="1621" y="-363" type="line"/>
      <point x="1610" y="-363"/>
      <point x="1411" y="-37"/>
      <point x="1398" y="-19" type="curve"/>
      <point x="1300" y="-34"/>
      <point x="1195" y="-44"/>
      <point x="1085" y="-44" type="curve" smooth="yes"/>
      <point x="587" y="-44"/>
      <point x="127" y="162"/>
      <point x="127" y="689" type="curve" smooth="yes"/>
      <point x="127" y="1348"/>
      <point x="804" y="1481"/>
      <point x="1274" y="1481" type="curve" smooth="yes"/>
      <point x="1735" y="1481"/>
      <point x="2397" y="1325"/>
      <point x="2434" y="833" type="curve" smooth="yes"/>
      <point x="2436" y="808"/>
      <point x="2437" y="783"/>
      <point x="2437" y="756" type="curve" smooth="yes"/>
      <point x="2437" y="495"/>
      <point x="2328" y="165"/>
      <point x="1722" y="43" type="curve"/>
      <point x="1907" y="-217" type="line"/>
    </contour>
  </outline>
</glyph>
<glyph name="R" format="1">
  <advance width="2398"/>
  <unicode hex="0052"/>
  <outline>
    <contour>
      <point x="1005" y="1064" type="curve"/>
      <point x="988" y="782" type="line"/>
      <point x="1255" y="812"/>
      <point x="1477" y="803"/>
      <point x="1477" y="954" type="curve" smooth="yes"/>
      <point x="1477" y="1057"/>
      <point x="1322" y="1070"/>
      <point x="1235" y="1070" type="curve" smooth="yes"/>
      <point x="1137" y="1070"/>
      <point x="1081" y="1067"/>
    </contour>
    <contour>
      <point x="1510.96" y="-85.6878" type="line"/>
      <point x="1463.96" y="0.312163"/>
      <point x="1270" y="400"/>
      <point x="1218" y="523" type="curve"/>
      <point x="973" y="506" type="line"/>
      <point x="953" y="9" type="line" smooth="yes"/>
      <point x="953" y="5"/>
      <point x="953" y="1"/>
      <point x="946" y="0" type="curve" smooth="yes"/>
      <point x="821" y="-2"/>
      <point x="596.939" y="-6.41235"/>
      <point x="492" y="-10" type="curve" smooth="yes"/>
      <point x="258" y="-18" type="line"/>
      <point x="258" y="158"/>
      <point x="269" y="413"/>
      <point x="278" y="646" type="curve" smooth="yes"/>
      <point x="284" y="811" type="line"/>
      <point x="314" y="1435" type="line"/>
      <point x="328" y="1435"/>
      <point x="420.65" y="1460"/>
      <point x="1313" y="1460" type="curve" smooth="yes"/>
      <point x="1772" y="1460"/>
      <point x="2188" y="1425"/>
      <point x="2188" y="1027" type="curve" smooth="yes"/>
      <point x="2188" y="822"/>
      <point x="2013" y="691"/>
      <point x="1831" y="629" type="curve"/>
      <point x="1943" y="501"/>
      <point x="2195" y="140"/>
      <point x="2292" y="19" type="curve"/>
    </contour>
  </outline>
</glyph>
<glyph name="S" format="1">
  <advance width="2157"/>
  <unicode hex="0053"/>
  <outline>
    <contour>
      <point x="1019" y="-45" type="curve" smooth="yes"/>
      <point x="764.992" y="-45"/>
      <point x="442" y="-2"/>
      <point x="165" y="90" type="curve"/>
      <point x="197" y="223"/>
      <point x="228" y="334"/>
      <point x="262" y="465" type="curve" smooth="yes"/>
      <point x="262" y="468"/>
      <point x="264" y="472"/>
      <point x="270" y="472" type="curve"/>
      <point x="561" y="399"/>
      <point x="760" y="350"/>
      <point x="1091" y="350" type="curve" smooth="yes"/>
      <point x="1158" y="350"/>
      <point x="1250" y="358"/>
      <point x="1250" y="405" type="curve" smooth="yes"/>
      <point x="1250" y="451"/>
      <point x="1201" y="453"/>
      <point x="1180" y="456" type="curve" smooth="yes"/>
      <point x="656" y="540"/>
      <point x="164" y="580"/>
      <point x="164" y="991" type="curve" smooth="yes"/>
      <point x="164" y="1436"/>
      <point x="724" y="1481"/>
      <point x="1209" y="1481" type="curve" smooth="yes"/>
      <point x="1441" y="1481"/>
      <point x="1780" y="1408"/>
      <point x="1907" y="1346" type="curve"/>
      <point x="1862" y="1177"/>
      <point x="1826" y="1059"/>
      <point x="1808" y="1004" type="curve"/>
      <point x="1669" y="1042"/>
      <point x="1308" y="1102"/>
      <point x="1082" y="1102" type="curve" smooth="yes"/>
      <point x="969" y="1102"/>
      <point x="890" y="1087"/>
      <point x="890" y="1046" type="curve" smooth="yes"/>
      <point x="890" y="1000"/>
      <point x="960" y="987"/>
      <point x="1085" y="966" type="curve" smooth="yes"/>
      <point x="1506" y="894"/>
      <point x="2019" y="851"/>
      <point x="2019" y="460" type="curve" smooth="yes"/>
      <point x="2019" y="75"/>
      <point x="1603" y="-45"/>
    </contour>
  </outline>
</glyph>
<glyph name="T" format="1">
  <advance width="1972"/>
  <unicode hex="0054"/>
  <outline>
    <contour>
      <point x="1293" y="4" type="curve"/>
      <point x="1238" y="3"/>
      <point x="696" y="-15"/>
      <point x="614" y="-15" type="curve" smooth="yes"/>
      <point x="609.167" y="-15" type="line"/>
      <point x="630" y="669" type="line" smooth="yes"/>
      <point x="635" y="826"/>
      <point x="638" y="919"/>
      <point x="645" y="1051" type="curve"/>
      <point x="99" y="1051" type="line"/>
      <point x="101" y="1093"/>
      <point x="122" y="1332"/>
      <point x="138" y="1437" type="curve"/>
      <point x="526" y="1442"/>
      <point x="1287" y="1448"/>
      <point x="1755" y="1449" type="curve" smooth="yes"/>
      <point x="1812" y="1449"/>
      <point x="1871" y="1447"/>
      <point x="1921" y="1446" type="curve"/>
      <point x="1911" y="1360"/>
      <point x="1881" y="1151"/>
      <point x="1850" y="1051" type="curve"/>
      <point x="1329" y="1051" type="line"/>
      <point x="1323" y="835" type="line"/>
      <point x="1312" y="579"/>
      <point x="1292" y="8"/>
    </contour>
  </outline>
</glyph>
<glyph name="U" format="1">
  <advance width="2435"/>
  <unicode hex="0055"/>
  <outline>
    <contour>
      <point x="1191" y="-45" type="curve" smooth="yes"/>
      <point x="725" y="-45"/>
      <point x="142.615" y="-4.01002"/>
      <point x="142.615" y="591.99" type="curve"/>
      <point x="149" y="984" type="line"/>
      <point x="156" y="1193"/>
      <point x="153" y="1327"/>
      <point x="169" y="1435" type="curve"/>
      <point x="653" y="1437" type="line"/>
      <point x="962" y="1443" type="line"/>
      <point x="959" y="1389"/>
      <point x="961.418" y="1335.94"/>
      <point x="959" y="1285" type="curve" smooth="yes"/>
      <point x="927.003" y="611" type="line"/>
      <point x="927.003" y="507"/>
      <point x="985" y="358"/>
      <point x="1209" y="358" type="curve" smooth="yes"/>
      <point x="1388" y="358"/>
      <point x="1507.84" y="483.145"/>
      <point x="1516" y="710" type="curve" smooth="yes"/>
      <point x="1541.69" y="1424.01" type="line"/>
      <point x="1742.69" y="1430.01"/>
      <point x="1959" y="1434"/>
      <point x="2316" y="1439" type="curve"/>
      <point x="2316" y="1185.9"/>
      <point x="2284.68" y="610.58"/>
      <point x="2267" y="545" type="curve" smooth="yes"/>
      <point x="2136.64" y="61.5859"/>
      <point x="1618" y="-45"/>
    </contour>
  </outline>
</glyph>
<glyph name="V" format="1">
  <advance width="2032"/>
  <unicode hex="0056"/>
  <outline>
    <contour>
      <point x="1771" y="1477" type="line"/>
      <point x="2034" y="1479" type="line"/>
      <point x="2034" y="1473"/>
      <point x="1478" y="308"/>
      <point x="1381" y="112" type="curve"/>
      <point x="1329" y="-7" type="line"/>
      <point x="1263" y="-16"/>
      <point x="843" y="-27"/>
      <point x="713" y="-27" type="curve"/>
      <point x="617" y="186"/>
      <point x="125" y="1319"/>
      <point x="113" y="1348" type="curve" smooth="yes"/>
      <point x="69" y="1459" type="line"/>
      <point x="558" y="1480" type="line"/>
      <point x="815" y="1480" type="line"/>
      <point x="1091" y="711" type="line"/>
      <point x="1332" y="1470" type="line"/>
    </contour>
  </outline>
</glyph>
<glyph name="W" format="1">
  <advance width="3026"/>
  <unicode hex="0057"/>
  <outline>
    <contour>
      <point x="1819" y="-17" type="curve"/>
      <point x="1563" y="673" type="line"/>
      <point x="1407" y="162" type="line"/>
      <point x="1350" y="-7" type="line"/>
      <point x="1275" y="-11"/>
      <point x="826" y="-17"/>
      <point x="678" y="-17" type="curve"/>
      <point x="179" y="1199" type="line"/>
      <point x="96" y="1449" type="line"/>
      <point x="583" y="1464" type="line"/>
      <point x="843" y="1470" type="line"/>
      <point x="1076" y="711" type="line"/>
      <point x="1298.72" y="1449.08" type="line"/>
      <point x="1847" y="1458" type="line"/>
      <point x="2110" y="761" type="line"/>
      <point x="2334" y="1451" type="line"/>
      <point x="3004" y="1458" type="line"/>
      <point x="2432.21" y="2.52597" type="line"/>
      <point x="2359.21" y="-4.47403"/>
      <point x="1963" y="-17"/>
    </contour>
  </outline>
</glyph>
<glyph name="X" format="1">
  <advance width="2260"/>
  <unicode hex="0058"/>
  <outline>
    <contour>
      <point x="1159" y="1130" type="line"/>
      <point x="1489" y="1478" type="line"/>
      <point x="2216" y="1350" type="line"/>
      <point x="1804" y="939"/>
      <point x="1677" y="806"/>
      <point x="1595" y="732" type="curve"/>
      <point x="1685" y="652"/>
      <point x="2040" y="321"/>
      <point x="2197" y="172" type="curve"/>
      <point x="1783" y="-23" type="line"/>
      <point x="1607" y="-88" type="line"/>
      <point x="1162" y="299" type="line"/>
      <point x="776" y="-92" type="line"/>
      <point x="164" y="123" type="line"/>
      <point x="316" y="294" type="line" smooth="yes"/>
      <point x="371" y="357"/>
      <point x="455" y="455"/>
      <point x="725" y="725" type="curve"/>
      <point x="124" y="1329" type="line"/>
      <point x="165" y="1339"/>
      <point x="338.858" y="1413.09"/>
      <point x="770" y="1489" type="curve" smooth="yes"/>
      <point x="781.858" y="1491.09"/>
      <point x="790" y="1492"/>
      <point x="790" y="1492" type="curve"/>
    </contour>
  </outline>
</glyph>
<glyph name="Y" format="1">
  <advance width="2033"/>
  <unicode hex="0059"/>
  <outline>
    <contour>
      <point x="667" y="-10" type="line"/>
      <point x="658" y="46"/>
      <point x="656" y="481"/>
      <point x="656" y="513" type="curve"/>
      <point x="55.9192" y="1439.6" type="line"/>
      <point x="55.9192" y="1439.6"/>
      <point x="759" y="1458"/>
      <point x="792" y="1458" type="curve"/>
      <point x="1065" y="1052" type="line"/>
      <point x="1336" y="1444" type="line"/>
      <point x="1364" y="1448"/>
      <point x="2025" y="1447"/>
      <point x="2045" y="1443" type="curve" smooth="yes"/>
      <point x="2051" y="1442"/>
      <point x="2023" y="1400"/>
      <point x="2019" y="1393" type="curve" smooth="yes"/>
      <point x="1398" y="561" type="line"/>
      <point x="1372" y="8" type="line"/>
      <point x="1233" y="2" type="line"/>
    </contour>
  </outline>
</glyph>
<glyph name="Z" format="1">
  <advance width="1984"/>
  <unicode hex="005A"/>
  <outline>
    <contour>
      <point x="1381" y="0" type="curve" smooth="yes"/>
      <point x="361" y="0" type="line" smooth="yes"/>
      <point x="292" y="0"/>
      <point x="219" y="1"/>
      <point x="161" y="5" type="curve"/>
      <point x="161" y="7"/>
      <point x="162" y="57"/>
      <point x="162" y="59" type="curve"/>
      <point x="879" y="996" type="line"/>
      <point x="759" y="997"/>
      <point x="229" y="1007"/>
      <point x="166" y="1011" type="curve"/>
      <point x="221" y="1443" type="line"/>
      <point x="358" y="1449"/>
      <point x="519" y="1450"/>
      <point x="675" y="1450" type="curve" smooth="yes"/>
      <point x="1071" y="1450"/>
      <point x="1460" y="1440"/>
      <point x="1854" y="1440" type="curve"/>
      <point x="1814" y="1364"/>
      <point x="1415" y="719"/>
      <point x="1191" y="420" type="curve"/>
      <point x="1494" y="420" type="line" smooth="yes"/>
      <point x="1575" y="420"/>
      <point x="1652" y="426"/>
      <point x="1732" y="426" type="curve" smooth="yes"/>
      <point x="1786" y="426"/>
      <point x="1839" y="426"/>
      <point x="1885" y="425" type="curve"/>
      <point x="1885" y="380"/>
      <point x="1830" y="56"/>
      <point x="1818" y="3" type="curve"/>
      <point x="1794" y="3"/>
      <point x="1537.03" y="0"/>
    </contour>
  </outline>
</glyph>
<glyph name="bracketleft" format="1">
  <advance width="1424"/>
  <unicode hex="005B"/>
  <outline>
    <contour>
      <point x="893" y="-171" type="line"/>
      <point x="660" y="-171"/>
      <point x="397" y="-168"/>
      <point x="167" y="-156" type="curve"/>
      <point x="161" y="-112"/>
      <point x="161" y="-64"/>
      <point x="161" y="-15" type="curve" smooth="yes"/>
      <point x="161" y="142"/>
      <point x="177.563" y="502.844"/>
      <point x="184" y="832" type="curve" smooth="yes"/>
      <point x="199" y="1599" type="line"/>
      <point x="384" y="1601" type="line"/>
      <point x="1360" y="1601" type="line"/>
      <point x="1349" y="1236" type="line"/>
      <point x="936" y="1226" type="line"/>
      <point x="933" y="1102"/>
      <point x="915.368" y="876.304"/>
      <point x="911" y="671" type="curve" smooth="yes"/>
      <point x="901" y="201" type="line"/>
      <point x="1013" y="201" type="line" smooth="yes"/>
      <point x="1107" y="201"/>
      <point x="1201" y="201"/>
      <point x="1291" y="197" type="curve"/>
      <point x="1291" y="109"/>
      <point x="1288" y="-80"/>
      <point x="1285" y="-169" type="curve"/>
    </contour>
  </outline>
</glyph>
<glyph name="backslash" format="1">
  <advance width="1372"/>
  <unicode hex="005C"/>
  <outline>
    <contour>
      <point x="624" y="1634" type="line"/>
      <point x="673" y="1501"/>
      <point x="722" y="1375"/>
      <point x="769" y="1259" type="curve"/>
      <point x="940" y="837"/>
      <point x="1101" y="440"/>
      <point x="1255" y="65" type="curve"/>
      <point x="1325" y="-119" type="line"/>
      <point x="822" y="-168" type="line"/>
      <point x="796" y="-121"/>
      <point x="779" y="-67"/>
      <point x="757" y="-10" type="curve"/>
      <point x="239" y="1244" type="line" smooth="yes"/>
      <point x="217" y="1297"/>
      <point x="194" y="1351"/>
      <point x="171" y="1403" type="curve"/>
      <point x="99" y="1588" type="line"/>
    </contour>
  </outline>
</glyph>
<glyph name="bracketright" format="1">
  <advance width="1425"/>
  <unicode hex="005D"/>
  <outline>
    <contour>
      <point x="296" y="-169" type="curve"/>
      <point x="130" y="-165" type="line"/>
      <point x="128" y="29" type="line"/>
      <point x="133" y="196" type="line"/>
      <point x="545" y="214" type="line"/>
      <point x="546" y="446"/>
      <point x="565" y="879"/>
      <point x="573" y="1239" type="curve"/>
      <point x="182" y="1241" type="line"/>
      <point x="182" y="1604" type="line"/>
      <point x="1307" y="1604" type="line"/>
      <point x="1314" y="1550"/>
      <point x="1314" y="1487"/>
      <point x="1314" y="1427" type="curve" smooth="yes"/>
      <point x="1314" y="1252"/>
      <point x="1296" y="901"/>
      <point x="1288" y="596" type="curve" smooth="yes"/>
      <point x="1269" y="-161" type="line"/>
      <point x="1088" y="-161" type="line"/>
      <point x="592" y="-165" type="line"/>
      <point x="480" y="-167"/>
      <point x="364" y="-169"/>
    </contour>
  </outline>
</glyph>
<glyph name="asciicircum" format="1">
  <advance width="1227"/>
  <unicode hex="005E"/>
  <outline>
    <contour>
      <point x="754" y="92" type="line" smooth="yes"/>
      <point x="734" y="157"/>
      <point x="643" y="486"/>
      <point x="632" y="528" type="curve"/>
      <point x="401" y="88" type="line" smooth="yes"/>
      <point x="399" y="84"/>
      <point x="141" y="160"/>
      <point x="64" y="176" type="curve"/>
      <point x="216" y="456"/>
      <point x="409" y="842"/>
      <point x="496" y="972" type="curve"/>
      <point x="873" y="960" type="line" smooth="yes"/>
      <point x="1135" y="214" type="line"/>
      <point x="1160" y="135" type="line" smooth="yes"/>
    </contour>
  </outline>
</glyph>
<glyph name="underscore" format="1">
  <advance width="1191"/>
  <unicode hex="005F"/>
  <outline>
    <contour>
      <point x="1083" y="-13" type="line"/>
      <point x="95" y="-10" type="line"/>
      <point x="110" y="292" type="line"/>
      <point x="113" y="292"/>
      <point x="277" y="292"/>
      <point x="280" y="291" type="curve"/>
      <point x="638" y="291" type="line" smooth="yes"/>
      <point x="667" y="291"/>
      <point x="1012" y="294"/>
      <point x="1094" y="294" type="curve"/>
    </contour>
  </outline>
</glyph>
<glyph name="grave" format="1">
  <advance width="664"/>
  <unicode hex="0060"/>
  <outline>
    <contour>
      <point x="595" y="1251" type="line"/>
      <point x="470" y="1206" type="line"/>
      <point x="442" y="1195" type="line"/>
      <point x="25" y="1560" type="line"/>
      <point x="86" y="1579"/>
      <point x="367" y="1670"/>
      <point x="372" y="1670" type="curve" smooth="yes"/>
      <point x="375" y="1670" type="line"/>
    </contour>
  </outline>
</glyph>
<glyph name="a" format="1">
  <advance width="1808"/>
  <unicode hex="0061"/>
  <outline>
    <contour>
      <point x="751" y="-37" type="curve" smooth="yes"/>
      <point x="451" y="-37"/>
      <point x="119" y="116"/>
      <point x="119" y="478" type="curve" smooth="yes"/>
      <point x="119" y="867"/>
      <point x="410" y="1070"/>
      <point x="735" y="1070" type="curve" smooth="yes"/>
      <point x="958" y="1070"/>
      <point x="1100" y="1026"/>
      <point x="1217" y="868" type="curve"/>
      <point x="1219" y="1081" type="line"/>
      <point x="1671" y="1043" type="line"/>
      <point x="1668" y="24" type="line"/>
      <point x="1292" y="-4" type="line"/>
      <point x="1231" y="193" type="line"/>
      <point x="1154" y="68"/>
      <point x="999" y="-37"/>
    </contour>
    <contour>
      <point x="921" y="266" type="curve"/>
      <point x="1068" y="269"/>
      <point x="1148" y="350"/>
      <point x="1148" y="502" type="curve" smooth="yes"/>
      <point x="1148" y="629"/>
      <point x="1067" y="726"/>
      <point x="928" y="726" type="curve" smooth="yes"/>
      <point x="777" y="726"/>
      <point x="705" y="612"/>
      <point x="705" y="498" type="curve" smooth="yes"/>
      <point x="705" y="382"/>
      <point x="779" y="266"/>
    </contour>
  </outline>
</glyph>
<glyph name="b" format="1">
  <advance width="1909"/>
  <unicode hex="0062"/>
  <outline>
    <contour>
      <point x="1106" y="-37" type="curve" smooth="yes"/>
      <point x="883" y="-37"/>
      <point x="669" y="41"/>
      <point x="548" y="190" type="curve"/>
      <point x="548" y="194" type="line"/>
      <point x="542" y="176"/>
      <point x="444" y="26"/>
      <point x="441" y="26" type="curve"/>
      <point x="426" y="17"/>
      <point x="223" y="-14"/>
      <point x="210" y="-14" type="curve" smooth="yes"/>
      <point x="183" y="-14"/>
      <point x="162" y="-8"/>
      <point x="145" y="6" type="curve"/>
      <point x="146" y="49"/>
      <point x="147" y="94"/>
      <point x="149" y="137" type="curve"/>
      <point x="148" y="140" type="line"/>
      <point x="196" y="1269" type="line"/>
      <point x="196" y="1403" type="line"/>
      <point x="248" y="1410"/>
      <point x="581" y="1449"/>
      <point x="628" y="1449" type="curve" smooth="yes"/>
      <point x="674" y="1449"/>
      <point x="721" y="1447"/>
      <point x="762" y="1438" type="curve"/>
      <point x="762" y="1406"/>
      <point x="760" y="1373"/>
      <point x="760" y="1341" type="curve" smooth="yes"/>
      <point x="760" y="1265"/>
      <point x="744" y="1017"/>
      <point x="742" y="943" type="curve"/>
      <point x="848" y="1015"/>
      <point x="1004" y="1070"/>
      <point x="1162" y="1070" type="curve" smooth="yes"/>
      <point x="1500" y="1070"/>
      <point x="1798" y="875"/>
      <point x="1798" y="528" type="curve" smooth="yes"/>
      <point x="1798" y="217"/>
      <point x="1477" y="-37"/>
    </contour>
    <contour>
      <point x="1201" y="509" type="curve" smooth="yes"/>
      <point x="1201" y="632"/>
      <point x="1121" y="754"/>
      <point x="960" y="754" type="curve" smooth="yes"/>
      <point x="801" y="754"/>
      <point x="722" y="628"/>
      <point x="722" y="503" type="curve" smooth="yes"/>
      <point x="722" y="378"/>
      <point x="800" y="254"/>
      <point x="953" y="254" type="curve" smooth="yes"/>
      <point x="1117" y="254"/>
      <point x="1201" y="382"/>
    </contour>
  </outline>
</glyph>
<glyph name="c" format="1">
  <advance width="1638"/>
  <unicode hex="0063"/>
  <outline>
    <contour>
      <point x="1020" y="-37" type="curve" smooth="yes"/>
      <point x="603" y="-37"/>
      <point x="119" y="81"/>
      <point x="119" y="492" type="curve" smooth="yes"/>
      <point x="119" y="921"/>
      <point x="552" y="1070"/>
      <point x="993" y="1070" type="curve" smooth="yes"/>
      <point x="1165" y="1070"/>
      <point x="1339" y="1047"/>
      <point x="1488" y="1010" type="curve"/>
      <point x="1463" y="689" type="line"/>
      <point x="1378" y="705"/>
      <point x="1265" y="718"/>
      <point x="1153" y="718" type="curve" smooth="yes"/>
      <point x="945" y="718"/>
      <point x="742" y="672"/>
      <point x="742" y="513" type="curve" smooth="yes"/>
      <point x="742" y="389"/>
      <point x="851" y="300"/>
      <point x="1103" y="300" type="curve" smooth="yes"/>
      <point x="1184" y="300"/>
      <point x="1321" y="309"/>
      <point x="1433" y="328" type="curve"/>
      <point x="1440" y="13" type="line"/>
      <point x="1330" y="-16"/>
      <point x="1196" y="-37"/>
    </contour>
  </outline>
</glyph>
<glyph name="d" format="1">
  <advance width="1898"/>
  <unicode hex="0064"/>
  <outline>
    <contour>
      <point x="1344" y="220" type="curve"/>
      <point x="1242" y="84"/>
      <point x="1095" y="-37"/>
      <point x="766" y="-37" type="curve" smooth="yes"/>
      <point x="404" y="-37"/>
      <point x="119" y="173"/>
      <point x="119" y="482" type="curve" smooth="yes"/>
      <point x="119" y="874"/>
      <point x="474" y="1070"/>
      <point x="820" y="1070" type="curve" smooth="yes"/>
      <point x="971" y="1070"/>
      <point x="1117" y="1015"/>
      <point x="1214" y="942" type="curve"/>
      <point x="1217" y="1056"/>
      <point x="1223" y="1194"/>
      <point x="1226" y="1309" type="curve" smooth="yes"/>
      <point x="1226" y="1346"/>
      <point x="1231" y="1409"/>
      <point x="1232" y="1425" type="curve"/>
      <point x="1328" y="1428"/>
      <point x="1688" y="1445"/>
      <point x="1749" y="1445" type="curve" smooth="yes"/>
      <point x="1752" y="1445" type="line"/>
      <point x="1752" y="38" type="line"/>
      <point x="1729" y="26"/>
      <point x="1569" y="9"/>
      <point x="1475" y="-15" type="curve"/>
      <point x="1425" y="73"/>
      <point x="1381" y="146"/>
    </contour>
    <contour>
      <point x="1188" y="509" type="curve" smooth="yes"/>
      <point x="1188" y="632"/>
      <point x="1108" y="754"/>
      <point x="947" y="754" type="curve" smooth="yes"/>
      <point x="788" y="754"/>
      <point x="709" y="628"/>
      <point x="709" y="503" type="curve" smooth="yes"/>
      <point x="709" y="378"/>
      <point x="787" y="254"/>
      <point x="940" y="254" type="curve" smooth="yes"/>
      <point x="1104" y="254"/>
      <point x="1188" y="382"/>
    </contour>
  </outline>
</glyph>
<glyph name="e" format="1">
  <advance width="1636"/>
  <unicode hex="0065"/>
  <outline>
    <contour>
      <point x="1048" y="626" type="line"/>
      <point x="1046" y="758"/>
      <point x="982" y="798"/>
      <point x="882" y="798" type="curve" smooth="yes"/>
      <point x="764" y="798"/>
      <point x="702" y="718"/>
      <point x="687" y="628" type="curve"/>
    </contour>
    <contour>
      <point x="878" y="-36" type="curve" smooth="yes"/>
      <point x="511" y="-36"/>
      <point x="114" y="73"/>
      <point x="114" y="476" type="curve" smooth="yes"/>
      <point x="114" y="947"/>
      <point x="522" y="1070"/>
      <point x="867" y="1070" type="curve" smooth="yes"/>
      <point x="1139" y="1070"/>
      <point x="1489" y="947"/>
      <point x="1489" y="605" type="curve" smooth="yes"/>
      <point x="1489" y="586" type="line" smooth="yes"/>
      <point x="1489" y="576"/>
      <point x="1488" y="574"/>
      <point x="1487" y="563" type="curve" smooth="yes"/>
      <point x="1478" y="440" type="line"/>
      <point x="667" y="444" type="line"/>
      <point x="699" y="323"/>
      <point x="829" y="250"/>
      <point x="1013" y="249" type="curve" smooth="yes"/>
      <point x="1126" y="249"/>
      <point x="1260" y="276"/>
      <point x="1405" y="336" type="curve"/>
      <point x="1459" y="336" type="line"/>
      <point x="1440" y="82" type="line"/>
      <point x="1361" y="22"/>
      <point x="1131" y="-36"/>
    </contour>
  </outline>
</glyph>
<glyph name="f" format="1">
  <advance width="1393"/>
  <unicode hex="0066"/>
  <outline>
    <contour>
      <point x="891" y="-4" type="line"/>
      <point x="385" y="-8" type="line" smooth="yes"/>
      <point x="354" y="-8"/>
      <point x="324" y="-7"/>
      <point x="294" y="-5" type="curve"/>
      <point x="293" y="22"/>
      <point x="290" y="51"/>
      <point x="290" y="84" type="curve" smooth="yes"/>
      <point x="292" y="215"/>
      <point x="306" y="478"/>
      <point x="322" y="745" type="curve"/>
      <point x="182" y="745" type="line" smooth="yes"/>
      <point x="127" y="745"/>
      <point x="131" y="743"/>
      <point x="104" y="750" type="curve"/>
      <point x="106" y="799"/>
      <point x="118" y="924"/>
      <point x="126" y="981" type="curve"/>
      <point x="335" y="981" type="line"/>
      <point x="352" y="1356"/>
      <point x="660" y="1519"/>
      <point x="1112" y="1519" type="curve" smooth="yes"/>
      <point x="1205" y="1519"/>
      <point x="1305" y="1512"/>
      <point x="1410" y="1498" type="curve"/>
      <point x="1410" y="1358"/>
      <point x="1403" y="1244"/>
      <point x="1398" y="1176" type="curve"/>
      <point x="1342" y="1184"/>
      <point x="1295" y="1188"/>
      <point x="1254" y="1188" type="curve" smooth="yes"/>
      <point x="1007" y="1188"/>
      <point x="952" y="1102"/>
      <point x="922" y="981" type="curve"/>
      <point x="1166" y="981" type="line" smooth="yes"/>
      <point x="1227" y="981"/>
      <point x="1290" y="979"/>
      <point x="1350" y="971" type="curve"/>
      <point x="1350" y="925"/>
      <point x="1342" y="819"/>
      <point x="1331" y="747" type="curve"/>
      <point x="921" y="747" type="line"/>
      <point x="910" y="514"/>
      <point x="894" y="274"/>
      <point x="894" y="124" type="curve"/>
    </contour>
  </outline>
</glyph>
<glyph name="g" format="1">
  <advance width="1900"/>
  <unicode hex="0067"/>
  <outline>
    <contour>
      <point x="760" y="-554" type="curve" smooth="yes"/>
      <point x="604" y="-554"/>
      <point x="452" y="-529"/>
      <point x="325" y="-476" type="curve"/>
      <point x="378" y="-168" type="line"/>
      <point x="425" y="-168" type="line"/>
      <point x="513" y="-196"/>
      <point x="627" y="-218"/>
      <point x="738" y="-218" type="curve" smooth="yes"/>
      <point x="938" y="-218"/>
      <point x="1128" y="-148"/>
      <point x="1141" y="74" type="curve"/>
      <point x="1041" y="19"/>
      <point x="909" y="-10"/>
      <point x="772" y="-10" type="curve" smooth="yes"/>
      <point x="456" y="-10"/>
      <point x="119" y="153"/>
      <point x="119" y="491" type="curve" smooth="yes"/>
      <point x="119" y="810"/>
      <point x="417" y="1070"/>
      <point x="794" y="1070" type="curve" smooth="yes"/>
      <point x="972" y="1070"/>
      <point x="1108" y="1019"/>
      <point x="1219" y="944" type="curve"/>
      <point x="1229" y="1047" type="line"/>
      <point x="1666" y="1013" type="line"/>
      <point x="1763" y="1006" type="line"/>
      <point x="1708" y="19" type="line"/>
      <point x="1691" y="-345"/>
      <point x="1209" y="-554"/>
    </contour>
    <contour>
      <point x="701" y="496" type="curve" smooth="yes"/>
      <point x="701" y="376"/>
      <point x="772" y="259"/>
      <point x="912" y="259" type="curve" smooth="yes"/>
      <point x="1101" y="259"/>
      <point x="1171" y="386"/>
      <point x="1171" y="512" type="curve" smooth="yes"/>
      <point x="1171" y="636"/>
      <point x="1103" y="760"/>
      <point x="945" y="760" type="curve" smooth="yes"/>
      <point x="782" y="760"/>
      <point x="701" y="626"/>
    </contour>
  </outline>
</glyph>
<glyph name="h" format="1">
  <advance width="1931"/>
  <unicode hex="0068"/>
  <outline>
    <contour>
      <point x="1794" y="1" type="line"/>
      <point x="1294" y="-3" type="line"/>
      <point x="1191" y="-3" type="line"/>
      <point x="1191" y="-2" type="line"/>
      <point x="1212" y="521" type="line"/>
      <point x="1212" y="597"/>
      <point x="1180" y="708"/>
      <point x="991" y="708" type="curve" smooth="yes"/>
      <point x="827" y="708"/>
      <point x="738" y="622"/>
      <point x="738" y="247" type="curve" smooth="yes"/>
      <point x="738" y="11" type="line"/>
      <point x="708" y="7"/>
      <point x="672" y="3"/>
      <point x="629" y="1" type="curve"/>
      <point x="135" y="-1" type="line"/>
      <point x="132" y="32"/>
      <point x="131" y="60"/>
      <point x="131" y="96" type="curve"/>
      <point x="178" y="1430" type="line"/>
      <point x="223" y="1432"/>
      <point x="286" y="1436"/>
      <point x="640" y="1470" type="curve"/>
      <point x="678" y="1471"/>
      <point x="719" y="1477"/>
      <point x="756" y="1477" type="curve"/>
      <point x="764" y="1453"/>
      <point x="767" y="1424"/>
      <point x="767" y="1392" type="curve" smooth="yes"/>
      <point x="767" y="1312"/>
      <point x="752" y="1033"/>
      <point x="747" y="936" type="curve"/>
      <point x="933" y="1029"/>
      <point x="1108" y="1070"/>
      <point x="1260" y="1070" type="curve" smooth="yes"/>
      <point x="1589" y="1070"/>
      <point x="1812" y="875"/>
      <point x="1812" y="607" type="curve" smooth="yes"/>
      <point x="1812" y="592" type="line"/>
    </contour>
  </outline>
</glyph>
<glyph name="j" format="1">
  <advance width="1087"/>
  <unicode hex="006A"/>
  <outline>
    <contour>
      <point x="-63" y="-438" type="line" smooth="yes"/>
      <point x="-63" y="-415"/>
      <point x="-28" y="-146"/>
      <point x="-28" y="-119" type="curve"/>
      <point x="10" y="-121"/>
      <point x="47" y="-123"/>
      <point x="80" y="-123" type="curve" smooth="yes"/>
      <point x="235" y="-123"/>
      <point x="340" y="-85"/>
      <point x="353" y="184" type="curve" smooth="yes"/>
      <point x="367" y="454"/>
      <point x="374" y="677"/>
      <point x="380" y="1000" type="curve"/>
      <point x="420" y="1003"/>
      <point x="753" y="1026"/>
      <point x="903" y="1026" type="curve" smooth="yes"/>
      <point x="926" y="1026"/>
      <point x="946" y="1025"/>
      <point x="965" y="1023" type="curve"/>
      <point x="936" y="103" type="line"/>
      <point x="915" y="-310"/>
      <point x="677" y="-448"/>
      <point x="267" y="-448" type="curve" smooth="yes"/>
      <point x="174" y="-448"/>
      <point x="-30" y="-441"/>
      <point x="-63" y="-439" type="curve"/>
    </contour>
    <contour>
      <point x="1026" y="1410" type="curve" smooth="yes"/>
      <point x="1026" y="1263"/>
      <point x="858" y="1198"/>
      <point x="676" y="1198" type="curve" smooth="yes"/>
      <point x="452" y="1198"/>
      <point x="371" y="1254"/>
      <point x="371" y="1415" type="curve" smooth="yes"/>
      <point x="371" y="1500"/>
      <point x="458" y="1606"/>
      <point x="738" y="1606" type="curve" smooth="yes"/>
      <point x="923" y="1606"/>
      <point x="1026" y="1546"/>
    </contour>
  </outline>
</glyph>
<glyph name="k" format="1">
  <advance width="1768"/>
  <unicode hex="006B"/>
  <outline>
    <contour>
      <point x="1156" y="-28" type="line"/>
      <point x="1071" y="40"/>
      <point x="902" y="298"/>
      <point x="803" y="412" type="curve"/>
      <point x="718" y="342" type="line"/>
      <point x="704" y="102" type="line" smooth="yes"/>
      <point x="701" y="-2" type="line" smooth="yes"/>
      <point x="130" y="-11" type="line"/>
      <point x="135" y="122" type="line"/>
      <point x="188" y="1318" type="line"/>
      <point x="195" y="1363"/>
      <point x="195" y="1407"/>
      <point x="195" y="1454" type="curve"/>
      <point x="392" y="1465"/>
      <point x="673" y="1482"/>
      <point x="778" y="1481" type="curve"/>
      <point x="771" y="1372" type="line"/>
      <point x="758" y="1111" type="line" smooth="yes"/>
      <point x="750" y="967"/>
      <point x="741" y="817"/>
      <point x="738" y="709" type="curve"/>
      <point x="912" y="872" type="line" smooth="yes"/>
      <point x="958" y="916"/>
      <point x="1001" y="958"/>
      <point x="1027" y="978" type="curve"/>
      <point x="1599" y="989" type="line" smooth="yes"/>
      <point x="1641" y="989"/>
      <point x="1681" y="988"/>
      <point x="1720" y="987" type="curve"/>
      <point x="1631" y="907" type="line"/>
      <point x="1384" y="671" type="line"/>
      <point x="1345" y="638"/>
      <point x="1302" y="602"/>
      <point x="1258" y="561" type="curve"/>
      <point x="1396" y="415"/>
      <point x="1529" y="255"/>
      <point x="1640" y="132" type="curve"/>
      <point x="1677" y="97"/>
      <point x="1707" y="61"/>
      <point x="1742" y="27" type="curve"/>
    </contour>
  </outline>
</glyph>
<glyph name="l" format="1">
  <advance width="892"/>
  <unicode hex="006C"/>
  <outline>
    <contour>
      <point x="146" y="-17" type="line"/>
      <point x="176" y="928" type="line"/>
      <point x="183" y="1095"/>
      <point x="195" y="1436"/>
      <point x="195" y="1438" type="curve"/>
      <point x="283" y="1443"/>
      <point x="595" y="1456"/>
      <point x="786" y="1466" type="curve"/>
      <point x="762.562" y="981.695"/>
      <point x="749.237" y="487.276"/>
      <point x="729.761" y="-0.991257" type="curve"/>
    </contour>
  </outline>
</glyph>
<glyph name="n" format="1">
  <advance width="1925"/>
  <unicode hex="006E"/>
  <outline>
    <contour>
      <point x="999" y="709" type="curve" smooth="yes"/>
      <point x="774" y="709"/>
      <point x="733" y="510"/>
      <point x="733" y="303" type="curve" smooth="yes"/>
      <point x="733" y="232"/>
      <point x="728" y="0"/>
      <point x="728" y="0" type="curve"/>
      <point x="131" y="-10" type="line"/>
      <point x="132" y="90"/>
      <point x="158" y="926"/>
      <point x="159" y="958" type="curve"/>
      <point x="494" y="1029" type="line"/>
      <point x="601" y="823" type="line"/>
      <point x="727" y="1009"/>
      <point x="972" y="1070"/>
      <point x="1183" y="1070" type="curve" smooth="yes"/>
      <point x="1495" y="1070"/>
      <point x="1731.22" y="946.28"/>
      <point x="1794" y="685" type="curve" smooth="yes"/>
      <point x="1805.22" y="638.28"/>
      <point x="1807" y="588"/>
      <point x="1807" y="540" type="curve" smooth="yes"/>
      <point x="1807" y="466"/>
      <point x="1799" y="361"/>
      <point x="1789" y="-3" type="curve"/>
      <point x="1193" y="-7" type="line"/>
      <point x="1199" y="469" type="line"/>
      <point x="1199" y="605"/>
      <point x="1117" y="709"/>
    </contour>
  </outline>
</glyph>
<glyph name="o" format="1">
  <advance width="1801"/>
  <unicode hex="006F"/>
  <outline>
    <contour>
      <point x="1146" y="522" type="curve" smooth="yes"/>
      <point x="1146" y="663"/>
      <point x="1059" y="773"/>
      <point x="899" y="773" type="curve" smooth="yes"/>
      <point x="735" y="773"/>
      <point x="668" y="631"/>
      <point x="668" y="500" type="curve" smooth="yes"/>
      <point x="668" y="332"/>
      <point x="742" y="236"/>
      <point x="904" y="236" type="curve" smooth="yes"/>
      <point x="1070.03" y="236"/>
      <point x="1146" y="360"/>
    </contour>
    <contour>
      <point x="114" y="492" type="curve" smooth="yes"/>
      <point x="114" y="914"/>
      <point x="459" y="1070"/>
      <point x="945" y="1070" type="curve" smooth="yes"/>
      <point x="1371" y="1070"/>
      <point x="1687" y="873"/>
      <point x="1687" y="526" type="curve" smooth="yes"/>
      <point x="1687" y="38"/>
      <point x="1241" y="-37"/>
      <point x="888" y="-37" type="curve" smooth="yes"/>
      <point x="521" y="-37"/>
      <point x="114" y="53"/>
    </contour>
  </outline>
</glyph>
<glyph name="p" format="1">
  <advance width="1918"/>
  <unicode hex="0070"/>
  <outline>
    <contour>
      <point x="1205" y="509" type="curve" smooth="yes"/>
      <point x="1205" y="632"/>
      <point x="1125" y="754"/>
      <point x="964" y="754" type="curve" smooth="yes"/>
      <point x="805" y="754"/>
      <point x="726" y="628"/>
      <point x="726" y="503" type="curve" smooth="yes"/>
      <point x="726" y="378"/>
      <point x="804" y="254"/>
      <point x="957" y="254" type="curve" smooth="yes"/>
      <point x="1121" y="254"/>
      <point x="1205" y="382"/>
    </contour>
    <contour>
      <point x="695" y="-311" type="curve"/>
      <point x="486" y="-332"/>
      <point x="232" y="-353"/>
      <point x="146" y="-353" type="curve" smooth="yes"/>
      <point x="136" y="-353" type="line"/>
      <point x="135" y="-316"/>
      <point x="131.289" y="-273.965"/>
      <point x="133" y="-232" type="curve" smooth="yes"/>
      <point x="183" y="994" type="line"/>
      <point x="206" y="1011"/>
      <point x="231.309" y="1013.07"/>
      <point x="264" y="1018" type="curve" smooth="yes"/>
      <point x="496" y="1053" type="line"/>
      <point x="604" y="854" type="line"/>
      <point x="735" y="1013"/>
      <point x="960" y="1070"/>
      <point x="1196" y="1070" type="curve" smooth="yes"/>
      <point x="1542" y="1070"/>
      <point x="1807" y="852"/>
      <point x="1807" y="560" type="curve" smooth="yes"/>
      <point x="1807" y="201"/>
      <point x="1483" y="-37"/>
      <point x="1121" y="-37" type="curve" smooth="yes"/>
      <point x="962" y="-37"/>
      <point x="809" y="8"/>
      <point x="709" y="72" type="curve"/>
      <point x="709" y="65" type="line" smooth="yes"/>
      <point x="709" y="32"/>
      <point x="695" y="-152"/>
    </contour>
  </outline>
</glyph>
<glyph name="q" format="1">
  <advance width="1913"/>
  <unicode hex="0071"/>
  <outline>
    <contour>
      <point x="918" y="241" type="curve" smooth="yes"/>
      <point x="1024.95" y="241"/>
      <point x="1122.07" y="280"/>
      <point x="1186" y="330" type="curve"/>
      <point x="1190.55" y="405.653"/>
      <point x="1192.9" y="512.184"/>
      <point x="1194" y="699" type="curve"/>
      <point x="1134" y="733.271"/>
      <point x="1061.05" y="760"/>
      <point x="951" y="760" type="curve" smooth="yes"/>
      <point x="812" y="760"/>
      <point x="707" y="624"/>
      <point x="707" y="464" type="curve" smooth="yes"/>
      <point x="707" y="332"/>
      <point x="781" y="241"/>
    </contour>
    <contour>
      <point x="1171" y="-354" type="curve"/>
      <point x="1167" y="-335"/>
      <point x="1165" y="-292"/>
      <point x="1165" y="-238" type="curve" smooth="yes"/>
      <point x="1165" y="-137"/>
      <point x="1171" y="1"/>
      <point x="1175" y="74" type="curve"/>
      <point x="1068" y="10"/>
      <point x="911" y="-37"/>
      <point x="752" y="-37" type="curve" smooth="yes"/>
      <point x="412" y="-37"/>
      <point x="119" y="147"/>
      <point x="119" y="481" type="curve" smooth="yes"/>
      <point x="119" y="761"/>
      <point x="377" y="1070"/>
      <point x="894" y="1070" type="curve" smooth="yes"/>
      <point x="1087" y="1070"/>
      <point x="1316" y="1023"/>
      <point x="1581" y="908" type="curve"/>
      <point x="1668" y="995" type="line"/>
      <point x="1723" y="986" type="line" smooth="yes"/>
      <point x="1744" y="982"/>
      <point x="1764" y="979"/>
      <point x="1786" y="976" type="curve"/>
      <point x="1783" y="953"/>
      <point x="1779" y="927"/>
      <point x="1778" y="903" type="curve" smooth="yes"/>
      <point x="1760" y="542"/>
      <point x="1751" y="185"/>
      <point x="1733" y="-177" type="curve"/>
      <point x="1733" y="-295" type="line"/>
      <point x="1689" y="-300"/>
      <point x="1640.89" y="-301.935"/>
      <point x="1583" y="-307" type="curve" smooth="yes"/>
      <point x="1560.89" y="-308.935"/>
      <point x="1333" y="-347"/>
      <point x="1333" y="-347" type="curve"/>
      <point x="1281" y="-349"/>
      <point x="1226" y="-354"/>
    </contour>
  </outline>
</glyph>
<glyph name="r" format="1">
  <advance width="1263"/>
  <unicode hex="0072"/>
  <outline>
    <contour>
      <point x="249" y="-9" type="line"/>
      <point x="150" y="-11" type="line"/>
      <point x="147" y="12"/>
      <point x="142.97" y="37.0212"/>
      <point x="144" y="62" type="curve" smooth="yes"/>
      <point x="181" y="959" type="line"/>
      <point x="458" y="1018" type="line"/>
      <point x="574" y="817" type="line"/>
      <point x="715" y="999"/>
      <point x="849" y="1062"/>
      <point x="955" y="1062" type="curve" smooth="yes"/>
      <point x="1065" y="1062"/>
      <point x="1195" y="1008"/>
      <point x="1230" y="962" type="curve"/>
      <point x="1125" y="672" type="line"/>
      <point x="1043" y="706"/>
      <point x="974" y="718"/>
      <point x="918" y="718" type="curve" smooth="yes"/>
      <point x="785" y="718"/>
      <point x="725" y="649"/>
      <point x="724" y="649" type="curve" smooth="yes"/>
      <point x="682" y="12" type="line"/>
    </contour>
  </outline>
</glyph>
<glyph name="s" format="1">
  <advance width="1565"/>
  <unicode hex="0073"/>
  <outline>
    <contour>
      <point x="748" y="-37" type="curve" smooth="yes"/>
      <point x="570" y="-37"/>
      <point x="258" y="-16"/>
      <point x="126" y="57" type="curve"/>
      <point x="192" y="334" type="line"/>
      <point x="426" y="285"/>
      <point x="611" y="268"/>
      <point x="736" y="268" type="curve" smooth="yes"/>
      <point x="850" y="268"/>
      <point x="913" y="283"/>
      <point x="913" y="300" type="curve" smooth="yes"/>
      <point x="913" y="338"/>
      <point x="872.076" y="345.374"/>
      <point x="790" y="362" type="curve" smooth="yes"/>
      <point x="482.076" y="424.374"/>
      <point x="125" y="434"/>
      <point x="125" y="722" type="curve" smooth="yes"/>
      <point x="125" y="1040"/>
      <point x="662" y="1070"/>
      <point x="856" y="1070" type="curve" smooth="yes"/>
      <point x="1056" y="1070"/>
      <point x="1220" y="1043"/>
      <point x="1363" y="1007" type="curve"/>
      <point x="1315" y="727" type="line"/>
      <point x="1233" y="747"/>
      <point x="973" y="778"/>
      <point x="797" y="778" type="curve" smooth="yes"/>
      <point x="723" y="778"/>
      <point x="671" y="769"/>
      <point x="671" y="744" type="curve" smooth="yes"/>
      <point x="671" y="712"/>
      <point x="713" y="705"/>
      <point x="785" y="696" type="curve" smooth="yes"/>
      <point x="1085" y="657"/>
      <point x="1447" y="633"/>
      <point x="1447" y="315" type="curve" smooth="yes"/>
      <point x="1447" y="104"/>
      <point x="1316" y="-37"/>
    </contour>
  </outline>
</glyph>
<glyph name="t" format="1">
  <advance width="1535"/>
  <unicode hex="0074"/>
  <outline>
    <contour>
      <point x="1397" y="44" type="curve"/>
      <point x="1257" y="-11"/>
      <point x="1028" y="-36"/>
      <point x="900" y="-36" type="curve" smooth="yes"/>
      <point x="533" y="-34"/>
      <point x="293" y="109"/>
      <point x="298" y="430" type="curve"/>
      <point x="298" y="442" type="line"/>
      <point x="304" y="499"/>
      <point x="304" y="720"/>
      <point x="309" y="747" type="curve"/>
      <point x="207" y="747" type="line" smooth="yes"/>
      <point x="152" y="747"/>
      <point x="113" y="749"/>
      <point x="89" y="756" type="curve"/>
      <point x="151" y="985" type="line"/>
      <point x="333" y="985" type="line"/>
      <point x="358" y="1170"/>
      <point x="354" y="1290"/>
      <point x="366" y="1388" type="curve"/>
      <point x="527" y="1403"/>
      <point x="809" y="1423"/>
      <point x="962" y="1422" type="curve"/>
      <point x="963" y="1397"/>
      <point x="963" y="1372"/>
      <point x="961" y="1345" type="curve" smooth="yes"/>
      <point x="944" y="982" type="line"/>
      <point x="1333" y="982" type="line" smooth="yes"/>
      <point x="1365" y="982"/>
      <point x="1394" y="978"/>
      <point x="1421" y="970" type="curve"/>
      <point x="1368" y="757" type="line"/>
      <point x="1340" y="748"/>
      <point x="1302" y="747"/>
      <point x="1260" y="747" type="curve" smooth="yes"/>
      <point x="925" y="747" type="line"/>
      <point x="915" y="468" type="line" smooth="yes"/>
      <point x="910" y="315"/>
      <point x="992.995" y="284"/>
      <point x="1103" y="284" type="curve" smooth="yes"/>
      <point x="1202.13" y="284"/>
      <point x="1330" y="324"/>
      <point x="1399" y="343" type="curve"/>
      <point x="1404" y="294"/>
      <point x="1402" y="224.442"/>
      <point x="1402" y="111" type="curve" smooth="yes"/>
      <point x="1402" y="86.9168"/>
      <point x="1399" y="65"/>
    </contour>
  </outline>
</glyph>
<glyph name="u" format="1">
  <advance width="1918"/>
  <unicode hex="0075"/>
  <outline>
    <contour>
      <point x="1310" y="190" type="curve"/>
      <point x="1173" y="34"/>
      <point x="953" y="-37"/>
      <point x="746" y="-37" type="curve" smooth="yes"/>
      <point x="444" y="-37"/>
      <point x="118" y="70"/>
      <point x="118" y="407" type="curve" smooth="yes"/>
      <point x="118" y="693.416"/>
      <point x="136" y="811.828"/>
      <point x="141" y="994" type="curve"/>
      <point x="214.028" y="999.409"/>
      <point x="418.217" y="1003.05"/>
      <point x="548" y="1011" type="curve" smooth="yes"/>
      <point x="744" y="1023" type="line"/>
      <point x="735" y="850"/>
      <point x="720" y="518"/>
      <point x="720" y="507" type="curve" smooth="yes"/>
      <point x="720" y="361"/>
      <point x="778" y="245"/>
      <point x="922" y="245" type="curve" smooth="yes"/>
      <point x="1185" y="245"/>
      <point x="1200" y="489"/>
      <point x="1200" y="847" type="curve" smooth="yes"/>
      <point x="1200" y="1007" type="line"/>
      <point x="1342" y="1011.12"/>
      <point x="1487" y="1014.41"/>
      <point x="1769" y="1021" type="curve"/>
      <point x="1770" y="986.363"/>
      <point x="1771.91" y="952.585"/>
      <point x="1770" y="918" type="curve" smooth="yes"/>
      <point x="1721" y="30" type="line"/>
      <point x="1406" y="-17" type="line"/>
      <point x="1386" y="23"/>
      <point x="1328" y="145"/>
    </contour>
  </outline>
</glyph>
<glyph name="v" format="1">
  <advance width="1672"/>
  <unicode hex="0076"/>
  <outline>
    <contour>
      <point x="452" y="90" type="line"/>
      <point x="365" y="325.192"/>
      <point x="172" y="818.072"/>
      <point x="94" y="996" type="curve"/>
      <point x="407" y="1009.1"/>
      <point x="603" y="1019.05"/>
      <point x="670" y="1018" type="curve"/>
      <point x="696" y="928" type="line"/>
      <point x="748" y="754"/>
      <point x="800" y="579"/>
      <point x="851" y="404" type="curve"/>
      <point x="877" y="472"/>
      <point x="1036" y="893"/>
      <point x="1096" y="1016" type="curve"/>
      <point x="1141" y="1018"/>
      <point x="1186" y="1018"/>
      <point x="1232" y="1018" type="curve" smooth="yes"/>
      <point x="1323" y="1018"/>
      <point x="1560" y="1012"/>
      <point x="1637" y="1009" type="curve"/>
      <point x="1559" y="864" type="line"/>
      <point x="1174" y="119" type="line"/>
      <point x="1111" y="0" type="line"/>
      <point x="1002.99" y="-3.90323"/>
      <point x="659.318" y="-11"/>
      <point x="568" y="-11" type="curve"/>
      <point x="493" y="-9" type="line"/>
    </contour>
  </outline>
</glyph>
<glyph name="w" format="1">
  <advance width="2355"/>
  <unicode hex="0077"/>
  <outline>
    <contour>
      <point x="1932" y="138" type="curve" smooth="yes"/>
      <point x="1914.34" y="91.2029"/>
      <point x="1894.5" y="47.6364"/>
      <point x="1877" y="-2" type="curve"/>
      <point x="1756.62" y="-5.52174"/>
      <point x="1529.17" y="-11"/>
      <point x="1371" y="-11" type="curve" smooth="yes"/>
      <point x="1331" y="-11"/>
      <point x="1298" y="-11"/>
      <point x="1262" y="-12" type="curve"/>
      <point x="1235" y="133"/>
      <point x="1205" y="279"/>
      <point x="1169" y="458" type="curve"/>
      <point x="1053.13" y="13.2178" type="line"/>
      <point x="928.573" y="6.62572"/>
      <point x="705.426" y="-5"/>
      <point x="544" y="-5" type="curve" smooth="yes"/>
      <point x="433" y="-5" type="line"/>
      <point x="340.71" y="295"/>
      <point x="237.385" y="647.041"/>
      <point x="115" y="995" type="curve"/>
      <point x="256.413" y="998.724"/>
      <point x="340.66" y="1000.59"/>
      <point x="457" y="1004" type="curve"/>
      <point x="557" y="1009" type="line"/>
      <point x="597" y="1009"/>
      <point x="631.02" y="1009.54"/>
      <point x="668.02" y="1011.83" type="curve"/>
      <point x="779" y="388" type="line"/>
      <point x="912" y="892" type="line"/>
      <point x="942" y="1015" type="line"/>
      <point x="1264" y="1018" type="line" smooth="yes"/>
      <point x="1335" y="1018"/>
      <point x="1400" y="1016"/>
      <point x="1466" y="1012" type="curve"/>
      <point x="1508.69" y="803.019"/>
      <point x="1557.66" y="600.33"/>
      <point x="1603" y="394" type="curve"/>
      <point x="1753.66" y="1011.84" type="line"/>
      <point x="1890" y="1022" type="line" smooth="yes"/>
      <point x="2274" y="1024" type="line"/>
      <point x="2154.3" y="742.649"/>
      <point x="2039.5" y="422.657"/>
    </contour>
  </outline>
</glyph>
<glyph name="x" format="1">
  <advance width="1869"/>
  <unicode hex="0078"/>
  <outline>
    <contour>
      <point x="1194" y="-14" type="curve" smooth="yes"/>
      <point x="1152.99" y="-14"/>
      <point x="1114" y="-16"/>
      <point x="1070" y="-19" type="curve"/>
      <point x="1044" y="0"/>
      <point x="964" y="94"/>
      <point x="899" y="184" type="curve"/>
      <point x="843" y="121"/>
      <point x="777.404" y="50.5322"/>
      <point x="765" y="37" type="curve" smooth="yes"/>
      <point x="732" y="1" type="line"/>
      <point x="695" y="-1"/>
      <point x="657.974" y="-2.39062"/>
      <point x="621" y="-1" type="curve" smooth="yes"/>
      <point x="116" y="18" type="line"/>
      <point x="141.053" y="43"/>
      <point x="165.19" y="72.9284"/>
      <point x="200" y="104" type="curve" smooth="yes"/>
      <point x="619" y="478" type="line"/>
      <point x="454" y="646"/>
      <point x="287" y="818"/>
      <point x="97" y="978" type="curve"/>
      <point x="837" y="1044" type="line"/>
      <point x="870" y="995" type="line"/>
      <point x="910" y="940"/>
      <point x="952" y="884"/>
      <point x="990" y="827" type="curve"/>
      <point x="1115" y="966" type="line"/>
      <point x="1155" y="1017" type="line"/>
      <point x="1196.57" y="1018"/>
      <point x="1243.17" y="1018"/>
      <point x="1286" y="1018" type="curve" smooth="yes"/>
      <point x="1746" y="1008" type="line"/>
      <point x="1565" y="874"/>
      <point x="1403" y="696"/>
      <point x="1250" y="552" type="curve"/>
      <point x="1784.09" y="-0.913086" type="line"/>
      <point x="1613.09" y="-3.03921"/>
      <point x="1361.3" y="-14"/>
    </contour>
  </outline>
</glyph>
<glyph name="y" format="1">
  <advance width="1707"/>
  <unicode hex="0079"/>
  <outline>
    <contour>
      <point x="665" y="-144" type="curve"/>
      <point x="581" y="7" type="line" smooth="yes"/>
      <point x="428" y="281"/>
      <point x="128" y="905"/>
      <point x="71" y="1000" type="curve"/>
      <point x="655" y="1025" type="line"/>
      <point x="936" y="374" type="line"/>
      <point x="982" y="498"/>
      <point x="1106" y="903"/>
      <point x="1155" y="1024" type="curve"/>
      <point x="1183" y="1026"/>
      <point x="1211.02" y="1027.15"/>
      <point x="1242" y="1026" type="curve" smooth="yes"/>
      <point x="1673" y="1010" type="line"/>
      <point x="1522.23" y="650.102"/>
      <point x="1365.73" y="296.968"/>
      <point x="1210" y="-59" type="curve" smooth="yes"/>
      <point x="1078.84" y="-358.805"/>
      <point x="892" y="-664"/>
      <point x="394" y="-664" type="curve"/>
      <point x="221" y="-384" type="line"/>
      <point x="280" y="-384"/>
      <point x="610" y="-291"/>
    </contour>
  </outline>
</glyph>
<glyph name="z" format="1">
  <advance width="1442"/>
  <unicode hex="007A"/>
  <outline>
    <contour>
      <point x="1180" y="0" type="line"/>
      <point x="314" y="0" type="line"/>
      <point x="260" y="4"/>
      <point x="184" y="4"/>
      <point x="157" y="4" type="curve"/>
      <point x="574" y="746" type="line"/>
      <point x="430.81" y="746"/>
      <point x="225.279" y="735"/>
      <point x="123" y="735" type="curve"/>
      <point x="123" y="736" type="line"/>
      <point x="166.867" y="853.349"/>
      <point x="221.246" y="960.187"/>
      <point x="269.167" y="1073.48" type="curve"/>
      <point x="592.429" y="1073.48"/>
      <point x="930.788" y="1059"/>
      <point x="1251" y="1059" type="curve" smooth="yes"/>
      <point x="1344" y="1059" type="line"/>
      <point x="1344" y="1050" type="line"/>
      <point x="1229.3" y="821.72"/>
      <point x="1112.06" y="597.757"/>
      <point x="994.657" y="372.639" type="curve"/>
      <point x="1102.16" y="374.535"/>
      <point x="1203.03" y="380"/>
      <point x="1308" y="380" type="curve"/>
      <point x="1316.21" y="373.56" type="line"/>
    </contour>
  </outline>
</glyph>
<glyph name="braceleft" format="1">
  <advance width="1121"/>
  <unicode hex="007B"/>
  <outline>
    <contour>
      <point x="1031" y="-111" type="line"/>
      <point x="940" y="-132"/>
      <point x="857" y="-142"/>
      <point x="781" y="-142" type="curve" smooth="yes"/>
      <point x="501" y="-142"/>
      <point x="332" y="-1"/>
      <point x="332" y="278" type="curve" smooth="yes"/>
      <point x="332" y="301" type="line" smooth="yes"/>
      <point x="332" y="455"/>
      <point x="328" y="592"/>
      <point x="164" y="592" type="curve"/>
      <point x="164" y="890" type="line"/>
      <point x="536" y="890"/>
      <point x="115" y="1563"/>
      <point x="699" y="1563" type="curve" smooth="yes"/>
      <point x="731" y="1563"/>
      <point x="1032" y="1557"/>
      <point x="1039" y="1556" type="curve"/>
      <point x="1072" y="1302" type="line"/>
      <point x="656" y="1302"/>
      <point x="1001" y="785"/>
      <point x="648" y="761" type="curve"/>
      <point x="780" y="719"/>
      <point x="865" y="641"/>
      <point x="865" y="460" type="curve" smooth="yes"/>
      <point x="865" y="221"/>
      <point x="865" y="88"/>
      <point x="1040" y="88" type="curve"/>
    </contour>
  </outline>
</glyph>
<glyph name="bar" format="1">
  <advance width="595"/>
  <unicode hex="007C"/>
  <outline>
    <contour>
      <point x="121" y="-91" type="line"/>
      <point x="131" y="14"/>
      <point x="252" y="1292"/>
      <point x="269" y="1532" type="curve"/>
      <point x="612" y="1516" type="line"/>
      <point x="462" y="-109" type="line"/>
      <point x="121" y="-97" type="line"/>
    </contour>
  </outline>
</glyph>
<glyph name="asciitilde" format="1">
  <advance width="1265"/>
  <unicode hex="007E"/>
  <outline>
    <contour>
      <point x="865" y="521" type="curve" smooth="yes"/>
      <point x="722.129" y="521"/>
      <point x="544.403" y="657"/>
      <point x="429" y="657" type="curve" smooth="yes"/>
      <point x="365" y="657"/>
      <point x="348" y="610"/>
      <point x="348" y="569" type="curve"/>
      <point x="114" y="562" type="line"/>
      <point x="114" y="754"/>
      <point x="229" y="899"/>
      <point x="407" y="899" type="curve" smooth="yes"/>
      <point x="561.27" y="899"/>
      <point x="732.802" y="776.309"/>
      <point x="810" y="760" type="curve" smooth="yes"/>
      <point x="818" y="758"/>
      <point x="825" y="758"/>
      <point x="831" y="758" type="curve" smooth="yes"/>
      <point x="893" y="758"/>
      <point x="893" y="828"/>
      <point x="895" y="845" type="curve"/>
      <point x="1130" y="837" type="line"/>
      <point x="1130" y="698"/>
      <point x="1043" y="521"/>
    </contour>
  </outline>
</glyph>
<glyph name="cent" format="1">
  <advance width="1613"/>
  <unicode hex="00A2"/>
  <outline>
    <component base="c"/>
    <contour>
      <point x="932" y="-242" type="line"/>
      <point x="1018" y="1244" type="line"/>
      <point x="1175" y="1244" type="line"/>
      <point x="1082" y="-245" type="line"/>
    </contour>
  </outline>
</glyph>
<glyph name="yen" format="1">
  <advance width="2152"/>
  <unicode hex="00A5"/>
  <outline>
    <contour>
      <point x="1434" y="-25" type="curve" smooth="yes"/>
      <point x="1408" y="-25"/>
      <point x="1314" y="-24"/>
      <point x="734" y="-38" type="curve"/>
      <point x="734" y="103" type="line"/>
      <point x="445" y="103" type="line"/>
      <point x="418" y="108" type="line"/>
      <point x="422" y="308" type="line"/>
      <point x="735" y="308" type="line"/>
      <point x="737" y="406" type="line"/>
      <point x="423" y="406" type="line"/>
      <point x="430" y="618" type="line"/>
      <point x="673" y="618" type="line"/>
      <point x="167" y="1432" type="line"/>
      <point x="170" y="1454" type="line"/>
      <point x="242" y="1454"/>
      <point x="478" y="1452"/>
      <point x="633" y="1452" type="curve" smooth="yes"/>
      <point x="744" y="1452"/>
      <point x="818" y="1451"/>
      <point x="858" y="1448" type="curve"/>
      <point x="1146" y="955" type="line"/>
      <point x="1452" y="1449" type="line"/>
      <point x="2079" y="1449" type="line"/>
      <point x="2081" y="1406" type="line"/>
      <point x="1546" y="630" type="line"/>
      <point x="1766" y="630" type="line"/>
      <point x="1754" y="409" type="line"/>
      <point x="1476" y="409" type="line"/>
      <point x="1471" y="308" type="line"/>
      <point x="1574" y="308"/>
      <point x="1645.97" y="309"/>
      <point x="1663" y="309" type="curve" smooth="yes"/>
      <point x="1751" y="309" type="line"/>
      <point x="1748" y="95" type="line"/>
      <point x="1460" y="98" type="line"/>
      <point x="1453" y="-23" type="line" smooth="yes"/>
      <point x="1453" y="-24"/>
      <point x="1446" y="-25"/>
    </contour>
  </outline>
</glyph>
<glyph name="brokenbar" format="1">
  <advance width="725"/>
  <unicode hex="00A6"/>
  <outline>
    <contour>
      <point x="129" y="-15" type="line"/>
      <point x="154" y="612" type="line"/>
      <point x="154" y="668" type="line"/>
      <point x="505" y="668" type="line"/>
      <point x="484.847" y="-12.9659" type="line"/>
      <point x="447" y="-15" type="line"/>
    </contour>
    <contour>
      <point x="159" y="894" type="line"/>
      <point x="184" y="1521" type="line"/>
      <point x="184" y="1577" type="line"/>
      <point x="535" y="1577" type="line"/>
      <point x="514.847" y="896.034" type="line"/>
      <point x="477" y="894" type="line"/>
    </contour>
  </outline>
</glyph>
<glyph name="section" format="1">
  <advance width="1475"/>
  <unicode hex="00A7"/>
  <outline>
    <contour>
      <point x="1362" y="210" type="curve" smooth="yes"/>
      <point x="1362" y="13"/>
      <point x="1221" y="-165"/>
      <point x="613" y="-165" type="curve" smooth="yes"/>
      <point x="422" y="-165"/>
      <point x="216" y="-136"/>
      <point x="64" y="-68" type="curve"/>
      <point x="135" y="228" type="line"/>
      <point x="378" y="166"/>
      <point x="571" y="141"/>
      <point x="703" y="141" type="curve" smooth="yes"/>
      <point x="840" y="141"/>
      <point x="913" y="168"/>
      <point x="913" y="211" type="curve" smooth="yes"/>
      <point x="913" y="245"/>
      <point x="868" y="278"/>
      <point x="775" y="291" type="curve" smooth="yes"/>
      <point x="372" y="348"/>
      <point x="172" y="401"/>
      <point x="151" y="596" type="curve" smooth="yes"/>
      <point x="150" y="605"/>
      <point x="149" y="615"/>
      <point x="149" y="624" type="curve" smooth="yes"/>
      <point x="149" y="709"/>
      <point x="190" y="802"/>
      <point x="280" y="845" type="curve"/>
      <point x="213" y="893"/>
      <point x="152" y="1000"/>
      <point x="152" y="1113" type="curve" smooth="yes"/>
      <point x="152" y="1387.54"/>
      <point x="453" y="1481"/>
      <point x="798" y="1481" type="curve" smooth="yes"/>
      <point x="999" y="1481"/>
      <point x="1215" y="1452.12"/>
      <point x="1395" y="1411" type="curve"/>
      <point x="1343" y="1149" type="line"/>
      <point x="1255" y="1168"/>
      <point x="977" y="1197"/>
      <point x="788" y="1197" type="curve" smooth="yes"/>
      <point x="695" y="1197"/>
      <point x="651" y="1165"/>
      <point x="651" y="1130" type="curve" smooth="yes"/>
      <point x="651" y="1095"/>
      <point x="694" y="1058"/>
      <point x="775" y="1046" type="curve" smooth="yes"/>
      <point x="1215" y="981"/>
      <point x="1445" y="944"/>
      <point x="1445" y="718" type="curve" smooth="yes"/>
      <point x="1445" y="593"/>
      <point x="1389" y="521"/>
      <point x="1194" y="484" type="curve"/>
      <point x="1318.5" y="444"/>
      <point x="1362" y="320"/>
    </contour>
    <contour>
      <point x="555" y="686" type="curve" smooth="yes"/>
      <point x="555" y="644"/>
      <point x="746" y="627"/>
      <point x="878" y="609" type="curve"/>
      <point x="882" y="609" type="line" smooth="yes"/>
      <point x="910" y="609"/>
      <point x="952" y="642"/>
      <point x="952" y="677" type="curve" smooth="yes"/>
      <point x="952" y="707"/>
      <point x="888" y="725"/>
      <point x="786" y="742" type="curve" smooth="yes"/>
      <point x="613" y="771" type="line" smooth="yes"/>
      <point x="612" y="771"/>
      <point x="555" y="728"/>
    </contour>
  </outline>
</glyph>
<glyph name="dieresis" format="1">
  <advance width="1189"/>
  <unicode hex="00A8"/>
  <outline>
    <contour>
      <point x="1101" y="1219" type="line"/>
      <point x="721" y="1219" type="line"/>
      <point x="729" y="1576" type="line"/>
      <point x="1101" y="1576" type="line"/>
    </contour>
    <contour>
      <point x="88.8881" y="1225" type="curve" smooth="yes"/>
      <point x="102" y="1576" type="line"/>
      <point x="129" y="1576" type="line" smooth="yes"/>
      <point x="233" y="1576"/>
      <point x="357" y="1578"/>
      <point x="457" y="1578" type="curve" smooth="yes"/>
      <point x="475" y="1578" type="line"/>
      <point x="470" y="1220" type="line"/>
      <point x="323" y="1220"/>
      <point x="216" y="1218"/>
      <point x="99" y="1218" type="curve" smooth="yes"/>
      <point x="92" y="1218"/>
      <point x="88.6268" y="1218.01"/>
    </contour>
  </outline>
</glyph>
<glyph name="copyright" format="1">
  <advance width="2072"/>
  <unicode hex="00A9"/>
  <outline>
    <contour>
      <point x="1330" y="322" type="curve"/>
      <point x="1251" y="271"/>
      <point x="1161" y="246"/>
      <point x="1072" y="246" type="curve" smooth="yes"/>
      <point x="840" y="246"/>
      <point x="611" y="409"/>
      <point x="594" y="675" type="curve" smooth="yes"/>
      <point x="576" y="966"/>
      <point x="776" y="1196"/>
      <point x="1064" y="1196" type="curve" smooth="yes"/>
      <point x="1217" y="1196"/>
      <point x="1295" y="1151"/>
      <point x="1334" y="1119" type="curve"/>
      <point x="1334" y="1114" type="line"/>
      <point x="1336" y="1088"/>
      <point x="1355" y="963"/>
      <point x="1359" y="899" type="curve"/>
      <point x="1335" y="899" type="line"/>
      <point x="1305" y="917"/>
      <point x="1223" y="974"/>
      <point x="1105" y="974" type="curve" smooth="yes"/>
      <point x="963" y="974"/>
      <point x="877.47" y="852.966"/>
      <point x="888" y="688" type="curve" smooth="yes"/>
      <point x="898.47" y="523.966"/>
      <point x="1019" y="450"/>
      <point x="1145" y="450" type="curve" smooth="yes"/>
      <point x="1201" y="450"/>
      <point x="1258" y="465"/>
      <point x="1307" y="493" type="curve"/>
      <point x="1322" y="493" type="line"/>
      <point x="1326" y="430"/>
      <point x="1333" y="322"/>
    </contour>
    <contour>
      <point x="983" y="108" type="curve" smooth="yes"/>
      <point x="1380" y="108"/>
      <point x="1693" y="355"/>
      <point x="1693" y="729" type="curve" smooth="yes"/>
      <point x="1693" y="1054.32"/>
      <point x="1436.61" y="1306"/>
      <point x="1085" y="1306" type="curve" smooth="yes"/>
      <point x="702" y="1306"/>
      <point x="383" y="1069"/>
      <point x="383" y="709" type="curve" smooth="yes"/>
      <point x="383" y="383.966"/>
      <point x="617.417" y="108"/>
    </contour>
    <contour>
      <point x="1098" y="1493" type="curve" smooth="yes"/>
      <point x="1565.65" y="1493"/>
      <point x="1910" y="1169.23"/>
      <point x="1910" y="749" type="curve" smooth="yes"/>
      <point x="1910" y="265"/>
      <point x="1491" y="-55"/>
      <point x="960" y="-55" type="curve" smooth="yes"/>
      <point x="475.51" y="-55"/>
      <point x="158" y="300.216"/>
      <point x="158" y="719" type="curve" smooth="yes"/>
      <point x="158" y="1186"/>
      <point x="586" y="1493"/>
    </contour>
  </outline>
</glyph>
<glyph name="guillemotleft" format="1">
  <advance width="2032"/>
  <unicode hex="00AB"/>
  <outline>
    <contour>
      <point x="956" y="825" type="curve"/>
      <point x="1071" y="889"/>
      <point x="1400" y="1022"/>
      <point x="1639" y="1131" type="curve"/>
      <point x="1657" y="1135"/>
      <point x="1669" y="1138"/>
      <point x="1677" y="1138" type="curve" smooth="yes"/>
      <point x="1684" y="1138"/>
      <point x="1689" y="1133"/>
      <point x="1690" y="1123" type="curve" smooth="yes"/>
      <point x="1712" y="804" type="line"/>
      <point x="1712" y="788"/>
      <point x="1708" y="782"/>
      <point x="1701" y="781" type="curve"/>
      <point x="1324" y="621" type="line"/>
      <point x="1361" y="597"/>
      <point x="1645" y="426"/>
      <point x="1701" y="392" type="curve" smooth="yes"/>
      <point x="1705" y="389"/>
      <point x="1709.33" y="383.499"/>
      <point x="1709.33" y="379.499" type="curve"/>
      <point x="1589" y="60" type="line" smooth="yes"/>
      <point x="1585" y="47"/>
      <point x="1578" y="41"/>
      <point x="1567" y="41" type="curve" smooth="yes"/>
      <point x="1558" y="41"/>
      <point x="1549.64" y="42.7234"/>
      <point x="1535" y="53" type="curve" smooth="yes"/>
      <point x="995" y="432" type="line"/>
      <point x="959" y="453"/>
      <point x="951" y="461"/>
      <point x="951" y="489" type="curve" smooth="yes"/>
      <point x="951" y="549" type="line" smooth="yes"/>
      <point x="951" y="629"/>
      <point x="951" y="712"/>
      <point x="945" y="802" type="curve" smooth="yes"/>
      <point x="945" y="804"/>
      <point x="944" y="805"/>
      <point x="944" y="806" type="curve" smooth="yes"/>
      <point x="946" y="815"/>
      <point x="949" y="825"/>
    </contour>
    <contour>
      <point x="120" y="825" type="curve"/>
      <point x="235" y="889"/>
      <point x="561.969" y="1025.02"/>
      <point x="803" y="1131" type="curve" smooth="yes"/>
      <point x="819.068" y="1138.06"/>
      <point x="833" y="1138"/>
      <point x="842" y="1138" type="curve" smooth="yes"/>
      <point x="849" y="1138"/>
      <point x="854.33" y="1133.18"/>
      <point x="855" y="1123" type="curve" smooth="yes"/>
      <point x="876" y="804" type="line"/>
      <point x="876" y="788"/>
      <point x="872" y="782"/>
      <point x="865" y="781" type="curve"/>
      <point x="489" y="621" type="line"/>
      <point x="524" y="597"/>
      <point x="809" y="426"/>
      <point x="865" y="392" type="curve" smooth="yes"/>
      <point x="869" y="389"/>
      <point x="873.299" y="383.515"/>
      <point x="873.299" y="379.515" type="curve"/>
      <point x="754" y="60" type="line" smooth="yes"/>
      <point x="750" y="47"/>
      <point x="743" y="41"/>
      <point x="731" y="41" type="curve" smooth="yes"/>
      <point x="722" y="41"/>
      <point x="713.642" y="42.7234"/>
      <point x="699" y="53" type="curve" smooth="yes"/>
      <point x="159" y="432" type="line"/>
      <point x="122" y="453"/>
      <point x="115" y="461"/>
      <point x="115" y="489" type="curve" smooth="yes"/>
      <point x="115" y="549" type="line" smooth="yes"/>
      <point x="115" y="629"/>
      <point x="114" y="712"/>
      <point x="109" y="802" type="curve" smooth="yes"/>
      <point x="109" y="804"/>
      <point x="108" y="805"/>
      <point x="108" y="806" type="curve" smooth="yes"/>
      <point x="110" y="815"/>
      <point x="113" y="825"/>
    </contour>
  </outline>
</glyph>
<glyph name="uni00AD" format="1">
  <advance width="1042"/>
  <unicode hex="00AD"/>
  <outline>
    <contour>
      <point x="1012" y="-2" type="line"/>
      <point x="960" y="-4"/>
      <point x="813" y="-4"/>
      <point x="742" y="-4" type="curve" smooth="yes"/>
      <point x="518" y="-4"/>
      <point x="379" y="-8"/>
      <point x="188" y="-12" type="curve"/>
      <point x="44" y="-12" type="line"/>
      <point x="46.9948" y="258.65" type="line"/>
      <point x="587" y="263" type="line"/>
      <point x="1014" y="263" type="line"/>
    </contour>
  </outline>
</glyph>
<glyph name="registered" format="1">
  <advance width="2071"/>
  <unicode hex="00AE"/>
  <outline>
    <contour>
      <point x="984" y="747" type="line"/>
      <point x="1077" y="747"/>
      <point x="1185" y="839"/>
      <point x="1182" y="897" type="curve" smooth="yes"/>
      <point x="1179" y="964"/>
      <point x="1139" y="997"/>
      <point x="1063" y="997" type="curve" smooth="yes"/>
      <point x="1037" y="997"/>
      <point x="1020" y="994"/>
      <point x="1000" y="991" type="curve"/>
    </contour>
    <contour>
      <point x="1244" y="243" type="curve"/>
      <point x="979" y="658" type="line"/>
      <point x="971" y="297" type="line"/>
      <point x="699" y="289" type="line"/>
      <point x="696" y="363"/>
      <point x="715" y="714"/>
      <point x="726" y="944" type="curve" smooth="yes"/>
      <point x="726" y="945"/>
      <point x="733" y="1053"/>
      <point x="735" y="1110" type="curve"/>
      <point x="825" y="1126"/>
      <point x="932" y="1141"/>
      <point x="1065" y="1141" type="curve" smooth="yes"/>
      <point x="1249" y="1141"/>
      <point x="1430" y="1082"/>
      <point x="1438" y="909" type="curve" smooth="yes"/>
      <point x="1444" y="771"/>
      <point x="1333" y="707"/>
      <point x="1231" y="689" type="curve"/>
      <point x="1231" y="686"/>
      <point x="1296" y="607"/>
      <point x="1483" y="346" type="curve"/>
      <point x="1402" y="308"/>
      <point x="1325" y="278"/>
    </contour>
    <contour>
      <point x="983" y="79" type="curve" smooth="yes"/>
      <point x="1390" y="79"/>
      <point x="1709" y="339"/>
      <point x="1692" y="730" type="curve" smooth="yes"/>
      <point x="1679" y="1034"/>
      <point x="1428" y="1277"/>
      <point x="1085" y="1277" type="curve" smooth="yes"/>
      <point x="692" y="1277"/>
      <point x="367" y="1028"/>
      <point x="384" y="652" type="curve" smooth="yes"/>
      <point x="397" y="346"/>
      <point x="624" y="79"/>
    </contour>
    <contour>
      <point x="960" y="-84" type="curve" smooth="yes"/>
      <point x="483" y="-84"/>
      <point x="177" y="261"/>
      <point x="159" y="655" type="curve" smooth="yes"/>
      <point x="137" y="1142"/>
      <point x="573" y="1464"/>
      <point x="1098" y="1464" type="curve" smooth="yes"/>
      <point x="1556" y="1464"/>
      <point x="1891" y="1150"/>
      <point x="1909" y="757" type="curve" smooth="yes"/>
      <point x="1931" y="252"/>
      <point x="1504" y="-84"/>
    </contour>
  </outline>
</glyph>
<glyph name="macron" format="1">
  <advance width="1389"/>
  <unicode hex="00AF"/>
  <outline>
    <contour>
      <point x="269" y="890" type="line"/>
      <point x="1132" y="908" type="line"/>
      <point x="1130" y="831"/>
      <point x="1121" y="687"/>
      <point x="1118" y="636" type="curve" smooth="yes"/>
      <point x="1116" y="602" type="line"/>
      <point x="860" y="594"/>
      <point x="491.987" y="587.701"/>
      <point x="384" y="586" type="curve" smooth="yes"/>
      <point x="257" y="584" type="line"/>
    </contour>
  </outline>
</glyph>
<glyph name="plusminus" format="1">
  <advance width="1045"/>
  <unicode hex="00B1"/>
  <outline>
    <contour>
      <point x="782.99" y="13" type="line"/>
      <point x="89.1232" y="6.98524" type="line"/>
      <point x="115" y="223" type="line"/>
      <point x="1005" y="229" type="line"/>
      <point x="995" y="13" type="line"/>
    </contour>
    <contour>
      <point x="1012" y="969" type="curve"/>
      <point x="994" y="668" type="line"/>
      <point x="721" y="665" type="line"/>
      <point x="708" y="393" type="line"/>
      <point x="656" y="393" type="line" smooth="yes"/>
      <point x="611" y="393"/>
      <point x="457.539" y="397.043"/>
      <point x="398.539" y="397.043" type="curve"/>
      <point x="423" y="660" type="line"/>
      <point x="355" y="659"/>
      <point x="181.032" y="659.103"/>
      <point x="150.032" y="659.103" type="curve"/>
      <point x="181.505" y="954.946" type="line"/>
      <point x="451.439" y="957.967" type="line"/>
      <point x="472" y="1235" type="line"/>
      <point x="488" y="1235"/>
      <point x="592.024" y="1236.45"/>
      <point x="641" y="1238" type="curve" smooth="yes"/>
      <point x="736" y="1241" type="line"/>
      <point x="764" y="1241" type="line"/>
      <point x="764" y="1232"/>
      <point x="745" y="963"/>
      <point x="745" y="963" type="curve"/>
      <point x="836" y="968"/>
      <point x="990" y="969"/>
    </contour>
  </outline>
</glyph>
<glyph name="uni00B2" format="1">
  <advance width="1060"/>
  <unicode hex="00B2"/>
  <outline>
    <contour>
      <point x="941" y="1272" type="curve" smooth="yes"/>
      <point x="941" y="1236"/>
      <point x="921.792" y="1198.87"/>
      <point x="885" y="1157" type="curve" smooth="yes"/>
      <point x="863.792" y="1132.87"/>
      <point x="789" y="1053"/>
      <point x="715" y="980" type="curve" smooth="yes"/>
      <point x="573" y="839" type="line"/>
      <point x="577" y="839" type="line" smooth="yes"/>
      <point x="615" y="839"/>
      <point x="850" y="857"/>
      <point x="940" y="857" type="curve" smooth="yes"/>
      <point x="971" y="857"/>
      <point x="987" y="852"/>
      <point x="987" y="844" type="curve" smooth="yes"/>
      <point x="987" y="834"/>
      <point x="974" y="820"/>
      <point x="974" y="820" type="curve"/>
      <point x="838.823" y="663.153" type="line"/>
      <point x="815.823" y="649.153"/>
      <point x="794" y="650"/>
      <point x="779" y="649" type="curve" smooth="yes"/>
      <point x="472" y="646"/>
      <point x="395" y="645"/>
      <point x="221" y="645" type="curve" smooth="yes"/>
      <point x="104" y="645"/>
      <point x="65" y="657"/>
      <point x="65" y="678" type="curve" smooth="yes"/>
      <point x="65" y="693"/>
      <point x="85.1464" y="709.906"/>
      <point x="108" y="735" type="curve" smooth="yes"/>
      <point x="210" y="847" type="line" smooth="yes"/>
      <point x="360" y="1012"/>
      <point x="422" y="1129"/>
      <point x="422" y="1199" type="curve" smooth="yes"/>
      <point x="422" y="1253"/>
      <point x="385" y="1280"/>
      <point x="324" y="1280" type="curve" smooth="yes"/>
      <point x="279" y="1280"/>
      <point x="221" y="1265"/>
      <point x="155" y="1237" type="curve" smooth="yes"/>
      <point x="127" y="1225" type="line"/>
      <point x="107" y="1238" type="line"/>
      <point x="124" y="1296"/>
      <point x="165" y="1413"/>
      <point x="169" y="1421" type="curve"/>
      <point x="226" y="1450"/>
      <point x="407" y="1493"/>
      <point x="580" y="1493" type="curve" smooth="yes"/>
      <point x="765" y="1493"/>
      <point x="941" y="1443"/>
    </contour>
  </outline>
</glyph>
<glyph name="uni00B3" format="1">
  <advance width="845"/>
  <unicode hex="00B3"/>
  <outline>
    <contour>
      <point x="765" y="831" type="curve" smooth="yes"/>
      <point x="765" y="670"/>
      <point x="637" y="541"/>
      <point x="383" y="541" type="curve" smooth="yes"/>
      <point x="269" y="541"/>
      <point x="154" y="571"/>
      <point x="91" y="604" type="curve"/>
      <point x="92" y="816" type="line"/>
      <point x="148" y="799"/>
      <point x="214" y="785"/>
      <point x="268" y="785" type="curve" smooth="yes"/>
      <point x="318" y="785"/>
      <point x="343" y="827"/>
      <point x="343" y="868" type="curve" smooth="yes"/>
      <point x="343" y="907"/>
      <point x="320" y="945"/>
      <point x="272" y="945" type="curve" smooth="yes"/>
      <point x="158" y="945" type="line"/>
      <point x="174" y="1124" type="line"/>
      <point x="248" y="1124" type="line" smooth="yes"/>
      <point x="308" y="1124"/>
      <point x="335" y="1165"/>
      <point x="335" y="1206" type="curve" smooth="yes"/>
      <point x="335" y="1248"/>
      <point x="308" y="1290"/>
      <point x="262" y="1290" type="curve" smooth="yes"/>
      <point x="202" y="1290"/>
      <point x="133" y="1274"/>
      <point x="86" y="1259" type="curve"/>
      <point x="86" y="1446" type="line"/>
      <point x="185" y="1471"/>
      <point x="287" y="1485"/>
      <point x="381" y="1485" type="curve" smooth="yes"/>
      <point x="586" y="1485"/>
      <point x="750" y="1417"/>
      <point x="750" y="1250" type="curve" smooth="yes"/>
      <point x="750" y="1148"/>
      <point x="670" y="1084"/>
      <point x="616" y="1049" type="curve"/>
      <point x="677" y="1022"/>
      <point x="765" y="963"/>
    </contour>
  </outline>
</glyph>
<glyph name="periodcentered" format="1">
  <advance width="561"/>
  <unicode hex="00B7"/>
  <unicode hex="2219"/>
  <outline>
    <contour>
      <point x="156" y="811" type="curve" smooth="yes"/>
      <point x="156" y="815" type="line"/>
      <point x="167" y="1067"/>
      <point x="154" y="853"/>
      <point x="171" y="1142" type="curve" smooth="yes"/>
      <point x="173" y="1186"/>
      <point x="175.669" y="1203"/>
      <point x="200" y="1203" type="curve" smooth="yes"/>
      <point x="317" y="1203"/>
      <point x="452" y="1204"/>
      <point x="565" y="1205" type="curve" smooth="yes"/>
      <point x="577" y="1205"/>
      <point x="587.688" y="1199.92"/>
      <point x="586" y="1181" type="curve" smooth="yes"/>
      <point x="558" y="867" type="line"/>
      <point x="553" y="823"/>
      <point x="553.146" y="807.729"/>
      <point x="528" y="807" type="curve" smooth="yes"/>
      <point x="415.146" y="803.729"/>
      <point x="296" y="804"/>
      <point x="167" y="804" type="curve" smooth="yes"/>
      <point x="159" y="804"/>
      <point x="156" y="804"/>
    </contour>
  </outline>
</glyph>
<glyph name="uni00B9" format="1">
  <advance width="749"/>
  <unicode hex="00B9"/>
  <outline>
    <contour>
      <point x="602" y="562" type="line"/>
      <point x="247" y="551" type="line" smooth="yes"/>
      <point x="224" y="551"/>
      <point x="205" y="557"/>
      <point x="197" y="573" type="curve"/>
      <point x="196" y="570"/>
      <point x="196" y="568"/>
      <point x="195" y="568" type="curve"/>
      <point x="195" y="580" type="line" smooth="yes"/>
      <point x="195" y="577"/>
      <point x="196" y="575"/>
      <point x="197" y="573" type="curve"/>
      <point x="202" y="599"/>
      <point x="243" y="1046"/>
      <point x="260" y="1196" type="curve"/>
      <point x="97" y="1169" type="line"/>
      <point x="77" y="1349" type="line"/>
      <point x="655" y="1428" type="line"/>
      <point x="655" y="1428"/>
      <point x="655" y="1427"/>
      <point x="654" y="1427" type="curve"/>
      <point x="658" y="1427"/>
      <point x="660" y="1426"/>
      <point x="660" y="1421" type="curve" smooth="yes"/>
      <point x="660" y="1420" type="line"/>
      <point x="666" y="1419"/>
      <point x="667" y="1415"/>
      <point x="667" y="1406" type="curve" smooth="yes"/>
      <point x="662" y="1350" type="line"/>
    </contour>
  </outline>
</glyph>
<glyph name="guillemotright" format="1">
  <advance width="2011"/>
  <unicode hex="00BB"/>
  <outline>
    <contour>
      <point x="1022.11" y="842.02" type="curve" smooth="yes"/>
      <point x="1015" y="521" type="line" smooth="yes"/>
      <point x="1015" y="494"/>
      <point x="1001.6" y="490.338"/>
      <point x="961" y="465" type="curve" smooth="yes"/>
      <point x="365" y="93" type="line"/>
      <point x="346" y="85"/>
      <point x="338" y="81"/>
      <point x="327" y="81" type="curve" smooth="yes"/>
      <point x="312" y="81"/>
      <point x="307" y="87"/>
      <point x="302" y="100" type="curve" smooth="yes"/>
      <point x="177" y="411" type="line" smooth="yes"/>
      <point x="176" y="415"/>
      <point x="175" y="419"/>
      <point x="175" y="423" type="curve" smooth="yes"/>
      <point x="175" y="428"/>
      <point x="176" y="431"/>
      <point x="183" y="434" type="curve" smooth="yes"/>
      <point x="252" y="470"/>
      <point x="534" y="631"/>
      <point x="579" y="655" type="curve"/>
      <point x="199" y="827" type="line"/>
      <point x="191" y="828"/>
      <point x="185.191" y="835.109"/>
      <point x="187" y="850" type="curve" smooth="yes"/>
      <point x="226" y="1171" type="line" smooth="yes"/>
      <point x="228" y="1182"/>
      <point x="233" y="1187"/>
      <point x="242" y="1187" type="curve" smooth="yes"/>
      <point x="251" y="1187"/>
      <point x="266.581" y="1185.73"/>
      <point x="287" y="1178" type="curve" smooth="yes"/>
      <point x="567.581" y="1071.73"/>
      <point x="877" y="925"/>
      <point x="1010" y="861" type="curve"/>
      <point x="1018" y="861"/>
      <point x="1022.33" y="852.067"/>
    </contour>
    <contour>
      <point x="1945" y="812" type="curve" smooth="yes"/>
      <point x="1945" y="541" type="line" smooth="yes"/>
      <point x="1945" y="514"/>
      <point x="1930.25" y="502.671"/>
      <point x="1891" y="475" type="curve" smooth="yes"/>
      <point x="1335" y="83" type="line"/>
      <point x="1316" y="75"/>
      <point x="1308" y="71"/>
      <point x="1297" y="71" type="curve" smooth="yes"/>
      <point x="1282" y="71"/>
      <point x="1277" y="77"/>
      <point x="1272" y="90" type="curve" smooth="yes"/>
      <point x="1147" y="401" type="line" smooth="yes"/>
      <point x="1146" y="405"/>
      <point x="1145" y="409"/>
      <point x="1145" y="413" type="curve" smooth="yes"/>
      <point x="1145" y="418"/>
      <point x="1146" y="421"/>
      <point x="1153" y="424" type="curve" smooth="yes"/>
      <point x="1222" y="460"/>
      <point x="1444" y="631"/>
      <point x="1489" y="655" type="curve"/>
      <point x="1159" y="817" type="line"/>
      <point x="1151" y="818"/>
      <point x="1145.19" y="825.109"/>
      <point x="1147" y="840" type="curve" smooth="yes"/>
      <point x="1186" y="1161" type="line" smooth="yes"/>
      <point x="1188" y="1172"/>
      <point x="1193" y="1177"/>
      <point x="1202" y="1177" type="curve" smooth="yes"/>
      <point x="1211" y="1177"/>
      <point x="1226.58" y="1175.73"/>
      <point x="1247" y="1168" type="curve" smooth="yes"/>
      <point x="1527.58" y="1061.73"/>
      <point x="1800.47" y="923.874"/>
      <point x="1933" y="859" type="curve" smooth="yes"/>
      <point x="1943.47" y="853.874"/>
      <point x="1945" y="822.05"/>
    </contour>
  </outline>
</glyph>
<glyph name="onequarter" format="1">
  <advance width="2325"/>
  <unicode hex="00BC"/>
  <outline>
    <contour>
      <point x="1516" y="391" type="line"/>
      <point x="1727" y="391" type="line"/>
      <point x="1777" y="823" type="line"/>
    </contour>
    <contour>
      <point x="2249" y="402" type="line"/>
      <point x="2241" y="189" type="line"/>
      <point x="2068" y="189" type="line"/>
      <point x="2051" y="24" type="line" smooth="yes"/>
      <point x="2051" y="17"/>
      <point x="2047.81" y="9.70691"/>
      <point x="2035" y="6" type="curve" smooth="yes"/>
      <point x="2009.81" y="-1.29309"/>
      <point x="1757" y="-9"/>
      <point x="1719" y="-9" type="curve" smooth="yes"/>
      <point x="1701" y="-9"/>
      <point x="1684" y="-5"/>
      <point x="1686" y="14" type="curve" smooth="yes"/>
      <point x="1702" y="187" type="line"/>
      <point x="1493" y="187"/>
      <point x="1353" y="185"/>
      <point x="1287" y="185" type="curve" smooth="yes"/>
      <point x="1178" y="185"/>
      <point x="1134.64" y="188.934"/>
      <point x="1134.64" y="206.934" type="curve"/>
      <point x="1649" y="955" type="line" smooth="yes"/>
      <point x="1657" y="967"/>
      <point x="1663" y="973"/>
      <point x="1712" y="973" type="curve" smooth="yes"/>
      <point x="2096" y="973" type="line"/>
      <point x="2106" y="974"/>
      <point x="2113" y="975"/>
      <point x="2120" y="975" type="curve" smooth="yes"/>
      <point x="2135" y="975"/>
      <point x="2142" y="972"/>
      <point x="2142" y="955" type="curve" smooth="yes"/>
      <point x="2142" y="949" type="line"/>
      <point x="2127" y="720"/>
      <point x="2113" y="631"/>
      <point x="2097" y="400" type="curve"/>
      <point x="2179" y="401"/>
      <point x="2206" y="402"/>
      <point x="2217" y="402" type="curve" smooth="yes"/>
    </contour>
    <contour>
      <point x="944" y="897" type="curve" smooth="yes"/>
      <point x="1046" y="1065"/>
      <point x="1136" y="1231"/>
      <point x="1237" y="1405" type="curve" smooth="yes"/>
      <point x="1258" y="1442"/>
      <point x="1265" y="1454"/>
      <point x="1289" y="1454" type="curve" smooth="yes"/>
      <point x="1297" y="1454" type="line"/>
      <point x="1388" y="1427"/>
      <point x="1475" y="1388"/>
      <point x="1564" y="1375" type="curve" smooth="yes"/>
      <point x="1574" y="1373"/>
      <point x="1584.32" y="1369.21"/>
      <point x="1584.32" y="1362.21" type="curve"/>
      <point x="777" y="13" type="line" smooth="yes"/>
      <point x="763" y="-10"/>
      <point x="767" y="-29"/>
      <point x="741" y="-29" type="curve" smooth="yes"/>
      <point x="731" y="-29"/>
      <point x="719.525" y="-25.6299"/>
      <point x="708" y="-22" type="curve" smooth="yes"/>
      <point x="581" y="18" type="line" smooth="yes"/>
      <point x="556" y="25"/>
      <point x="458" y="44"/>
      <point x="458" y="77" type="curve" smooth="yes"/>
      <point x="458" y="82"/>
      <point x="460" y="88"/>
      <point x="464" y="95" type="curve" smooth="yes"/>
      <point x="619" y="342"/>
      <point x="737" y="558"/>
    </contour>
    <contour>
      <point x="573" y="562" type="line"/>
      <point x="218" y="551" type="line" smooth="yes"/>
      <point x="195" y="551"/>
      <point x="176" y="557"/>
      <point x="168" y="573" type="curve"/>
      <point x="167" y="570"/>
      <point x="167" y="568"/>
      <point x="166" y="568" type="curve"/>
      <point x="166" y="580" type="line" smooth="yes"/>
      <point x="166" y="577"/>
      <point x="167" y="575"/>
      <point x="168" y="573" type="curve"/>
      <point x="173" y="599"/>
      <point x="214" y="1046"/>
      <point x="231" y="1196" type="curve"/>
      <point x="68" y="1169" type="line"/>
      <point x="48" y="1349" type="line"/>
      <point x="624.884" y="1427.85" type="line" smooth="yes"/>
      <point x="628.884" y="1427.85"/>
      <point x="631" y="1426"/>
      <point x="631" y="1421" type="curve" smooth="yes"/>
      <point x="631" y="1420" type="line"/>
      <point x="637" y="1419"/>
      <point x="637.952" y="1415.03"/>
      <point x="637.268" y="1406.06" type="curve" smooth="yes"/>
    </contour>
  </outline>
</glyph>
<glyph name="onehalf" format="1">
  <advance width="2358"/>
  <unicode hex="00BD"/>
  <outline>
    <contour>
      <point x="2179" y="624" type="curve" smooth="yes"/>
      <point x="2179" y="588"/>
      <point x="2159.79" y="550.867"/>
      <point x="2123" y="509" type="curve" smooth="yes"/>
      <point x="2101.79" y="484.867"/>
      <point x="2027" y="405"/>
      <point x="1953" y="332" type="curve" smooth="yes"/>
      <point x="1811" y="191" type="line"/>
      <point x="1815" y="191" type="line" smooth="yes"/>
      <point x="1853" y="191"/>
      <point x="2088" y="209"/>
      <point x="2178" y="209" type="curve" smooth="yes"/>
      <point x="2209" y="209"/>
      <point x="2225" y="204"/>
      <point x="2225" y="196" type="curve" smooth="yes"/>
      <point x="2225" y="186"/>
      <point x="2212" y="172"/>
      <point x="2212" y="172" type="curve"/>
      <point x="2076.82" y="15.1529" type="line"/>
      <point x="2053.82" y="1.15291"/>
      <point x="2032" y="2"/>
      <point x="2017" y="1" type="curve" smooth="yes"/>
      <point x="1710" y="-2"/>
      <point x="1633" y="-3"/>
      <point x="1459" y="-3" type="curve" smooth="yes"/>
      <point x="1342" y="-3"/>
      <point x="1303" y="9"/>
      <point x="1303" y="30" type="curve" smooth="yes"/>
      <point x="1303" y="45"/>
      <point x="1323.15" y="61.9059"/>
      <point x="1346" y="87" type="curve" smooth="yes"/>
      <point x="1448" y="199" type="line" smooth="yes"/>
      <point x="1598" y="364"/>
      <point x="1660" y="481"/>
      <point x="1660" y="551" type="curve" smooth="yes"/>
      <point x="1660" y="605"/>
      <point x="1623" y="632"/>
      <point x="1562" y="632" type="curve" smooth="yes"/>
      <point x="1517" y="632"/>
      <point x="1459" y="617"/>
      <point x="1393" y="589" type="curve" smooth="yes"/>
      <point x="1365" y="577" type="line"/>
      <point x="1345" y="590" type="line"/>
      <point x="1362" y="648"/>
      <point x="1403" y="765"/>
      <point x="1407" y="773" type="curve"/>
      <point x="1464" y="802"/>
      <point x="1645" y="845"/>
      <point x="1818" y="845" type="curve" smooth="yes"/>
      <point x="2003" y="845"/>
      <point x="2179" y="795"/>
    </contour>
    <contour>
      <point x="464" y="95" type="curve" smooth="yes"/>
      <point x="619" y="342"/>
      <point x="737" y="558"/>
      <point x="944" y="897" type="curve" smooth="yes"/>
      <point x="1046" y="1065"/>
      <point x="1136" y="1231"/>
      <point x="1237" y="1405" type="curve" smooth="yes"/>
      <point x="1258" y="1442"/>
      <point x="1265" y="1454"/>
      <point x="1289" y="1454" type="curve" smooth="yes"/>
      <point x="1297" y="1454" type="line"/>
      <point x="1388" y="1427"/>
      <point x="1475" y="1388"/>
      <point x="1564" y="1375" type="curve" smooth="yes"/>
      <point x="1574" y="1373"/>
      <point x="1584.32" y="1369.21"/>
      <point x="1584.32" y="1362.21" type="curve"/>
      <point x="777" y="13" type="line" smooth="yes"/>
      <point x="763" y="-10"/>
      <point x="767" y="-29"/>
      <point x="741" y="-29" type="curve" smooth="yes"/>
      <point x="731" y="-29"/>
      <point x="719.525" y="-25.6299"/>
      <point x="708" y="-22" type="curve" smooth="yes"/>
      <point x="581" y="18" type="line" smooth="yes"/>
      <point x="556" y="25"/>
      <point x="458" y="44"/>
      <point x="458" y="77" type="curve" smooth="yes"/>
      <point x="458" y="82"/>
      <point x="460" y="88"/>
    </contour>
    <contour>
      <point x="168" y="573" type="curve"/>
      <point x="167" y="570"/>
      <point x="167" y="568"/>
      <point x="166" y="568" type="curve"/>
      <point x="166" y="580" type="line" smooth="yes"/>
      <point x="166" y="577"/>
      <point x="167" y="575"/>
    </contour>
    <contour>
      <point x="168" y="573" type="curve"/>
      <point x="173" y="599"/>
      <point x="214" y="1046"/>
      <point x="231" y="1196" type="curve"/>
      <point x="68" y="1169" type="line"/>
      <point x="48" y="1349" type="line"/>
      <point x="624.884" y="1427.85" type="line" smooth="yes"/>
      <point x="628.884" y="1427.85"/>
      <point x="631" y="1426"/>
      <point x="631" y="1421" type="curve" smooth="yes"/>
      <point x="631" y="1420" type="line"/>
      <point x="637" y="1419"/>
      <point x="637.952" y="1415.03"/>
      <point x="637.268" y="1406.06" type="curve" smooth="yes"/>
      <point x="573" y="562" type="line"/>
      <point x="218" y="551" type="line" smooth="yes"/>
      <point x="195" y="551"/>
      <point x="176" y="557"/>
    </contour>
  </outline>
</glyph>
<glyph name="AE" format="1">
  <advance width="2842"/>
  <unicode hex="00C6"/>
  <outline>
    <contour>
      <point x="2760" y="349" type="line"/>
      <point x="2746" y="-1.69531" type="line"/>
      <point x="1128" y="-1.69531" type="line"/>
      <point x="1151" y="174" type="line"/>
      <point x="752" y="174" type="line"/>
      <point x="646" y="-14" type="line"/>
      <point x="-52" y="23" type="line"/>
      <point x="37" y="127.48"/>
      <point x="787" y="1258.5"/>
      <point x="911" y="1435" type="curve"/>
      <point x="1314" y="1441" type="line"/>
      <point x="1314" y="1444" type="line"/>
      <point x="1957.01" y="1442.27" type="line"/>
      <point x="2721" y="1444.48" type="line"/>
      <point x="2710" y="1062" type="line"/>
      <point x="1866" y="1047" type="line"/>
      <point x="1860" y="1004"/>
      <point x="1860" y="950"/>
      <point x="1854" y="880" type="curve"/>
      <point x="2029" y="882"/>
      <point x="2199" y="883.903"/>
      <point x="2320" y="883" type="curve" smooth="yes"/>
      <point x="2454" y="883" type="line"/>
      <point x="2433" y="560" type="line"/>
      <point x="2429" y="559"/>
      <point x="2376" y="556"/>
      <point x="2184" y="556" type="curve" smooth="yes"/>
      <point x="1854" y="556" type="line"/>
      <point x="1856" y="349" type="line"/>
    </contour>
    <contour>
      <point x="1169" y="545" type="line"/>
      <point x="1181" y="724"/>
      <point x="1193" y="883"/>
      <point x="1205" y="1022" type="curve"/>
      <point x="920" y="541" type="line"/>
    </contour>
  </outline>
</glyph>
<glyph name="Eth" format="1">
  <advance width="1548"/>
  <unicode hex="00D0"/>
  <outline>
    <component base="D"/>
    <contour>
      <point x="166" y="563" type="line" smooth="yes"/>
      <point x="86" y="563"/>
      <point x="43.9656" y="568.201"/>
      <point x="47" y="591" type="curve" smooth="yes"/>
      <point x="84" y="869" type="line"/>
      <point x="191" y="871" type="line"/>
      <point x="622" y="871"/>
      <point x="1074" y="873"/>
      <point x="1135" y="873" type="curve" smooth="yes"/>
      <point x="1146" y="873"/>
      <point x="1164.29" y="866.964"/>
      <point x="1163" y="844" type="curve" smooth="yes"/>
      <point x="1147" y="559" type="line"/>
    </contour>
  </outline>
</glyph>
<glyph name="multiply" format="1">
  <advance width="1130"/>
  <unicode hex="00D7"/>
  <outline>
    <contour>
      <point x="751" y="249" type="line"/>
      <point x="548" y="461" type="line"/>
      <point x="324" y="227" type="line"/>
      <point x="131" y="446" type="line"/>
      <point x="357" y="685" type="line"/>
      <point x="279.396" y="770.396"/>
      <point x="195.87" y="849.87"/>
      <point x="116" y="933" type="curve"/>
      <point x="354" y="1140" type="line"/>
      <point x="561" y="903" type="line"/>
      <point x="775" y="1128" type="line"/>
      <point x="985" y="910" type="line"/>
      <point x="913.757" y="837.243"/>
      <point x="841.289" y="765.711"/>
      <point x="768" y="695" type="curve"/>
      <point x="973" y="482" type="line"/>
    </contour>
  </outline>
</glyph>
<glyph name="Oslash" format="1">
  <advance width="2565"/>
  <unicode hex="00D8"/>
  <outline>
    <component base="O"/>
    <contour>
      <point x="1828.15" y="1627.46" type="curve"/>
      <point x="1538.34" y="1012.07"/>
      <point x="1252.35" y="392.853"/>
      <point x="960" y="-220" type="curve" smooth="yes"/>
      <point x="949" y="-243"/>
      <point x="951" y="-264"/>
      <point x="931" y="-264" type="curve" smooth="yes"/>
      <point x="923" y="-264"/>
      <point x="914" y="-262"/>
      <point x="905" y="-257" type="curve" smooth="yes"/>
      <point x="756" y="-174" type="line"/>
      <point x="756" y="-150"/>
      <point x="801.495" y="-72.2449"/>
      <point x="831" y="-10" type="curve" smooth="yes"/>
      <point x="1643" y="1703" type="line"/>
      <point x="1650" y="1703" type="line"/>
      <point x="1812" y="1641" type="line" smooth="yes"/>
      <point x="1820" y="1638"/>
      <point x="1828.15" y="1634.46"/>
    </contour>
  </outline>
</glyph>
<glyph name="Thorn" format="1">
  <advance width="2120"/>
  <unicode hex="00DE"/>
  <outline>
    <contour>
      <point x="866" y="-311" type="line"/>
      <point x="657" y="-332"/>
      <point x="325" y="-353"/>
      <point x="239" y="-353" type="curve" smooth="yes"/>
      <point x="229" y="-353" type="line"/>
      <point x="228" y="-316"/>
      <point x="224.575" y="-273.976"/>
      <point x="226" y="-232" type="curve" smooth="yes"/>
      <point x="282" y="1418" type="line"/>
      <point x="817" y="1441" type="line"/>
      <point x="839" y="1447"/>
      <point x="877" y="1454"/>
      <point x="907" y="1454" type="curve" smooth="yes"/>
      <point x="932" y="1454"/>
      <point x="949.001" y="1446.93"/>
      <point x="947" y="1420" type="curve" smooth="yes"/>
      <point x="925" y="1124" type="line"/>
      <point x="1042" y="1141"/>
      <point x="1149" y="1148"/>
      <point x="1245" y="1148" type="curve" smooth="yes"/>
      <point x="1772" y="1148"/>
      <point x="1990" y="915"/>
      <point x="1990" y="600" type="curve" smooth="yes"/>
      <point x="1990" y="241"/>
      <point x="1616" y="-10"/>
      <point x="880" y="-10" type="curve"/>
    </contour>
    <contour>
      <point x="1359" y="581" type="curve" smooth="yes"/>
      <point x="1359" y="728"/>
      <point x="1290" y="831"/>
      <point x="920" y="831" type="curve"/>
      <point x="895" y="272" type="line"/>
      <point x="1290" y="282"/>
      <point x="1359" y="436"/>
    </contour>
  </outline>
</glyph>
<glyph name="ae" format="1">
  <advance width="2612"/>
  <unicode hex="00E6"/>
  <outline>
    <contour>
      <point x="1678" y="625" type="curve"/>
      <point x="2039" y="625" type="line"/>
      <point x="2032" y="756"/>
      <point x="1967" y="796"/>
      <point x="1869" y="796" type="curve" smooth="yes"/>
      <point x="1750" y="796"/>
      <point x="1690" y="716"/>
    </contour>
    <contour>
      <point x="735" y="308" type="curve" smooth="yes"/>
      <point x="735" y="255"/>
      <point x="783" y="209"/>
      <point x="875" y="209" type="curve" smooth="yes"/>
      <point x="962" y="209"/>
      <point x="1078" y="246"/>
      <point x="1190" y="323" type="curve"/>
      <point x="1179" y="347"/>
      <point x="1163" y="387"/>
      <point x="1155" y="440" type="curve"/>
      <point x="1104" y="441"/>
      <point x="1090" y="442"/>
      <point x="1010" y="442" type="curve" smooth="yes"/>
      <point x="828" y="442"/>
      <point x="735" y="384"/>
    </contour>
    <contour>
      <point x="1315" y="145" type="curve"/>
      <point x="1140" y="-7"/>
      <point x="921" y="-37"/>
      <point x="709" y="-37" type="curve" smooth="yes"/>
      <point x="379" y="-37"/>
      <point x="181" y="63"/>
      <point x="181" y="267" type="curve" smooth="yes"/>
      <point x="181" y="495"/>
      <point x="416" y="622"/>
      <point x="817" y="622" type="curve" smooth="yes"/>
      <point x="1116" y="622" type="line"/>
      <point x="1081" y="724"/>
      <point x="973" y="776"/>
      <point x="813" y="776" type="curve" smooth="yes"/>
      <point x="682" y="776"/>
      <point x="516" y="741"/>
      <point x="325" y="671" type="curve"/>
      <point x="281" y="671" type="line"/>
      <point x="210" y="939" type="line"/>
      <point x="337" y="1001"/>
      <point x="598" y="1070"/>
      <point x="854" y="1070" type="curve" smooth="yes"/>
      <point x="1037" y="1070"/>
      <point x="1279" y="1023"/>
      <point x="1377" y="904" type="curve"/>
      <point x="1489" y="1023"/>
      <point x="1704" y="1070"/>
      <point x="1871" y="1070" type="curve" smooth="yes"/>
      <point x="2143" y="1070"/>
      <point x="2481.94" y="941.003"/>
      <point x="2481.94" y="587.003" type="curve"/>
      <point x="2476" y="441" type="line"/>
      <point x="1665" y="441" type="line"/>
      <point x="1702" y="320"/>
      <point x="1835" y="248"/>
      <point x="2019" y="248" type="curve" smooth="yes"/>
      <point x="2132" y="248"/>
      <point x="2265" y="276"/>
      <point x="2407" y="337" type="curve"/>
      <point x="2461" y="337" type="line"/>
      <point x="2452" y="83" type="line"/>
      <point x="2375" y="22"/>
      <point x="2144" y="-37"/>
      <point x="1888" y="-37" type="curve" smooth="yes"/>
      <point x="1669" y="-37"/>
      <point x="1455" y="23"/>
    </contour>
  </outline>
</glyph>
<glyph name="divide" format="1">
  <advance width="1362"/>
  <unicode hex="00F7"/>
  <outline>
    <contour>
      <point x="116.998" y="802.787" type="line"/>
      <point x="1333" y="806" type="line"/>
      <point x="1331" y="530" type="line"/>
      <point x="96" y="527" type="line"/>
    </contour>
    <contour>
      <point x="545" y="-78" type="line"/>
      <point x="545" y="-38" type="line"/>
      <point x="561" y="328" type="line"/>
      <point x="976" y="328" type="line"/>
      <point x="954.861" y="-75.9927" type="line"/>
    </contour>
    <contour>
      <point x="565.846" y="933.006" type="curve" smooth="yes"/>
      <point x="581" y="1327" type="line"/>
      <point x="996" y="1327" type="line"/>
      <point x="963.029" y="928.998" type="line"/>
      <point x="850.029" y="927.998"/>
      <point x="706" y="926"/>
      <point x="577" y="926" type="curve" smooth="yes"/>
      <point x="569" y="926"/>
      <point x="565.577" y="926.011"/>
    </contour>
  </outline>
</glyph>
<glyph name="thorn" format="1">
  <advance width="1913"/>
  <unicode hex="00FE"/>
  <outline>
    <contour>
      <point x="691" y="-311" type="curve"/>
      <point x="482" y="-332"/>
      <point x="228" y="-353"/>
      <point x="142" y="-353" type="curve" smooth="yes"/>
      <point x="132" y="-353" type="line"/>
      <point x="131" y="-316"/>
      <point x="127.246" y="-273.963"/>
      <point x="129" y="-232" type="curve" smooth="yes"/>
      <point x="193.384" y="1308.07" type="line"/>
      <point x="217" y="1339" type="line"/>
      <point x="217" y="1348"/>
      <point x="491" y="1412"/>
      <point x="590" y="1441" type="curve" smooth="yes"/>
      <point x="612" y="1447"/>
      <point x="650" y="1454"/>
      <point x="680" y="1454" type="curve" smooth="yes"/>
      <point x="705" y="1454"/>
      <point x="720.403" y="1447"/>
      <point x="720" y="1420" type="curve" smooth="yes"/>
      <point x="713" y="951" type="line"/>
      <point x="842" y="1037"/>
      <point x="1014" y="1070"/>
      <point x="1192" y="1070" type="curve" smooth="yes"/>
      <point x="1538" y="1070"/>
      <point x="1803" y="851.88"/>
      <point x="1803" y="560" type="curve" smooth="yes"/>
      <point x="1803" y="202.804"/>
      <point x="1479" y="-34"/>
      <point x="1117" y="-34" type="curve" smooth="yes"/>
      <point x="958" y="-34"/>
      <point x="805" y="9.76147"/>
      <point x="705" y="72" type="curve"/>
      <point x="705" y="65" type="line" smooth="yes"/>
      <point x="705" y="32"/>
      <point x="691" y="-152"/>
    </contour>
    <contour>
      <point x="986" y="751" type="curve" smooth="yes"/>
      <point x="727" y="751"/>
      <point x="720" y="560"/>
      <point x="720" y="450" type="curve" smooth="yes"/>
      <point x="720" y="277"/>
      <point x="824" y="233"/>
      <point x="959" y="233" type="curve" smooth="yes"/>
      <point x="1113" y="233"/>
      <point x="1212" y="378"/>
      <point x="1212" y="523" type="curve" smooth="yes"/>
      <point x="1212" y="670"/>
      <point x="1113" y="751"/>
    </contour>
  </outline>
</glyph>
<glyph name="Dcroat" format="1">
  <advance width="1548"/>
  <unicode hex="0110"/>
  <outline>
    <contour>
      <point x="166" y="562.806" type="line" smooth="yes"/>
      <point x="86" y="562.806"/>
      <point x="43.9656" y="568.201"/>
      <point x="47" y="591" type="curve" smooth="yes"/>
      <point x="84" y="869" type="line"/>
      <point x="237.429" y="871.868" type="line"/>
      <point x="249.473" y="1044"/>
      <point x="260.082" y="1226.64"/>
      <point x="267" y="1409" type="curve"/>
      <point x="267" y="1409"/>
      <point x="888" y="1461"/>
      <point x="1287" y="1461" type="curve" smooth="yes"/>
      <point x="1797" y="1461"/>
      <point x="2188" y="1264"/>
      <point x="2188" y="783" type="curve" smooth="yes"/>
      <point x="2188" y="19"/>
      <point x="1620.05" y="12.6294"/>
      <point x="1010" y="-14" type="curve" smooth="yes"/>
      <point x="864.055" y="-20.3706"/>
      <point x="720" y="-22"/>
      <point x="576" y="-22" type="curve" smooth="yes"/>
      <point x="153" y="-22" type="line"/>
      <point x="161.788" y="31.824"/>
      <point x="187.769" y="259.397"/>
      <point x="213.549" y="562.806" type="curve"/>
    </contour>
    <contour>
      <point x="931.369" y="559" type="line"/>
      <point x="922" y="360" type="line"/>
      <point x="1278" y="363"/>
      <point x="1490" y="406"/>
      <point x="1490" y="744" type="curve" smooth="yes"/>
      <point x="1490" y="976"/>
      <point x="1319" y="1072"/>
      <point x="1172" y="1072" type="curve" smooth="yes"/>
      <point x="1097" y="1072"/>
      <point x="990" y="1066"/>
      <point x="955" y="1064" type="curve"/>
      <point x="946.021" y="872.44" type="line"/>
      <point x="1044.91" y="872.757"/>
      <point x="1113.73" y="873"/>
      <point x="1135" y="873" type="curve" smooth="yes"/>
      <point x="1146" y="873"/>
      <point x="1164.29" y="866.964"/>
      <point x="1163" y="844" type="curve" smooth="yes"/>
      <point x="1147" y="559" type="line"/>
    </contour>
  </outline>
</glyph>
<glyph name="Hbar" format="1">
  <advance width="2421"/>
  <unicode hex="0126"/>
  <outline>
    <contour>
      <point x="950" y="943" type="line"/>
      <point x="1488" y="943" type="line"/>
      <point x="1489.06" y="950.435"/>
      <point x="1493.26" y="1014.91"/>
      <point x="1498.24" y="1095.1" type="curve"/>
      <point x="1309.21" y="1094.66"/>
      <point x="1125.29" y="1094.4"/>
      <point x="961.269" y="1094.24" type="curve"/>
    </contour>
    <contour>
      <point x="974.427" y="1270.84" type="line"/>
      <point x="1509.07" y="1273.12" type="line"/>
      <point x="1514.58" y="1364.94"/>
      <point x="1519" y="1440"/>
      <point x="1519" y="1440" type="curve"/>
      <point x="1561" y="1440"/>
      <point x="1622" y="1438"/>
      <point x="1661" y="1439" type="curve" smooth="yes"/>
      <point x="2237" y="1454" type="line"/>
      <point x="2237.33" y="1447.45"/>
      <point x="2233.58" y="1374.29"/>
      <point x="2228.4" y="1276.18" type="curve"/>
      <point x="2420" y="1276.18" type="line"/>
      <point x="2413" y="1099" type="line"/>
      <point x="2350.8" y="1098.55"/>
      <point x="2285.84" y="1098.14"/>
      <point x="2218.93" y="1097.77" type="curve"/>
      <point x="2209.95" y="927.995"/>
      <point x="2201" y="753.894"/>
      <point x="2201" y="717" type="curve" smooth="yes"/>
      <point x="2201" y="677"/>
      <point x="2197" y="698"/>
      <point x="2180" y="2" type="curve"/>
      <point x="2124" y="2"/>
      <point x="1537" y="-11"/>
      <point x="1462" y="-11" type="curve"/>
      <point x="1462" y="60"/>
      <point x="1470" y="317"/>
      <point x="1476" y="432" type="curve"/>
      <point x="942" y="432" type="line"/>
      <point x="916" y="2" type="line"/>
      <point x="226.005" y="-17.1665" type="line"/>
      <point x="226.005" y="102.833"/>
      <point x="229.736" y="261.01"/>
      <point x="234.988" y="402" type="curve" smooth="yes"/>
      <point x="256" y="966" type="line" smooth="yes"/>
      <point x="256.644" y="985.639"/>
      <point x="259.257" y="1034.2"/>
      <point x="262.605" y="1093.59" type="curve"/>
      <point x="62" y="1093.59" type="line"/>
      <point x="74" y="1267" type="line"/>
      <point x="272.574" y="1267" type="line"/>
      <point x="276.982" y="1344.16"/>
      <point x="280.839" y="1414.2"/>
      <point x="282" y="1444" type="curve"/>
      <point x="359" y="1448"/>
      <point x="853" y="1453"/>
      <point x="969" y="1453" type="curve" smooth="yes"/>
      <point x="988" y="1453" type="line"/>
    </contour>
  </outline>
</glyph>
<glyph name="dotlessi" format="1">
  <advance width="944"/>
  <unicode hex="0131"/>
  <outline>
    <contour>
      <point x="205" y="1020" type="curve"/>
      <point x="386" y="1032"/>
      <point x="589" y="1035"/>
      <point x="779" y="1023" type="curve"/>
      <point x="737.422" y="1.06419" type="line"/>
      <point x="701.422" y="-1.93581"/>
      <point x="261" y="2"/>
      <point x="157" y="4" type="curve"/>
      <point x="157" y="55"/>
      <point x="165.805" y="208.93"/>
      <point x="174" y="416" type="curve" smooth="yes"/>
      <point x="180.805" y="587.93"/>
      <point x="200" y="965"/>
    </contour>
  </outline>
</glyph>
<glyph name="Lslash" format="1">
  <advance width="1936"/>
  <unicode hex="0141"/>
  <outline>
    <contour>
      <point x="158" y="0" type="curve"/>
      <point x="163.73" y="78.7758"/>
      <point x="173.5" y="483"/>
      <point x="177.626" y="521.487" type="curve"/>
      <point x="41" y="486" type="line"/>
      <point x="34" y="827" type="line"/>
      <point x="69.7606" y="835.24"/>
      <point x="125.129" y="848.368"/>
      <point x="193.387" y="864.719" type="curve"/>
      <point x="202.009" y="1066.44"/>
      <point x="212.727" y="1314.45"/>
      <point x="221" y="1435" type="curve"/>
      <point x="323" y="1447"/>
      <point x="565" y="1457"/>
      <point x="965" y="1450" type="curve"/>
      <point x="946.47" y="1047.18" type="line"/>
      <point x="1135.02" y="1093.04"/>
      <point x="1292.61" y="1131.37"/>
      <point x="1350" y="1145" type="curve"/>
      <point x="1350" y="1111" type="line" smooth="yes"/>
      <point x="1350" y="1083"/>
      <point x="1325" y="818"/>
      <point x="1314" y="768" type="curve"/>
      <point x="1233.51" y="748.401"/>
      <point x="1087.85" y="716.922"/>
      <point x="927.062" y="682.864" type="curve"/>
      <point x="920.551" y="592.133"/>
      <point x="912.53" y="492.42"/>
      <point x="903" y="360" type="curve"/>
      <point x="1688.04" y="378.471" type="line"/>
      <point x="1759.04" y="378.471"/>
      <point x="1820" y="376"/>
      <point x="1877" y="367" type="curve"/>
      <point x="1877" y="323"/>
      <point x="1873.34" y="279.458"/>
      <point x="1861" y="200" type="curve" smooth="yes"/>
      <point x="1829" y="-6" type="line"/>
      <point x="1796" y="-6"/>
      <point x="1442" y="-5"/>
      <point x="1075" y="-5" type="curve" smooth="yes"/>
      <point x="799" y="-5"/>
      <point x="517" y="-6"/>
      <point x="359" y="-7" type="curve" smooth="yes"/>
      <point x="269.55" y="-7"/>
      <point x="232.717" y="-5"/>
    </contour>
  </outline>
</glyph>
<glyph name="lslash" format="1">
  <advance width="892"/>
  <unicode hex="0142"/>
  <outline>
    <contour>
      <point x="767.727" y="1035.29" type="line"/>
      <point x="860.718" y="1061.5"/>
      <point x="938.168" y="1083.34"/>
      <point x="983" y="1096" type="curve"/>
      <point x="983" y="1049"/>
      <point x="999" y="783"/>
      <point x="997" y="739" type="curve"/>
      <point x="979.972" y="735.594"/>
      <point x="882.68" y="708.063"/>
      <point x="754.384" y="671.102" type="curve"/>
      <point x="729.761" y="-0.991257" type="line"/>
      <point x="146" y="-17" type="line"/>
      <point x="162.38" y="498.977" type="line"/>
      <point x="101.495" y="481.227"/>
      <point x="51.0692" y="466.549"/>
      <point x="18" y="457" type="curve"/>
      <point x="-3" y="818" type="line"/>
      <point x="36.4852" y="829.154"/>
      <point x="98.9617" y="846.777"/>
      <point x="174.094" y="867.962" type="curve"/>
      <point x="176" y="928" type="line"/>
      <point x="183" y="1095"/>
      <point x="195" y="1436"/>
      <point x="195" y="1438" type="curve"/>
      <point x="283" y="1443"/>
      <point x="595" y="1456"/>
      <point x="786" y="1466" type="curve"/>
      <point x="779" y="1343" type="line"/>
    </contour>
  </outline>
</glyph>
<glyph name="OE" format="1">
  <advance width="3373"/>
  <unicode hex="0152"/>
  <outline>
    <contour>
      <point x="942" y="705" type="curve" smooth="yes"/>
      <point x="942" y="460.348"/>
      <point x="1074" y="336"/>
      <point x="1302" y="336" type="curve" smooth="yes"/>
      <point x="1420.17" y="336"/>
      <point x="1574.65" y="337.812"/>
      <point x="1641" y="342" type="curve"/>
      <point x="1662" y="1046" type="line"/>
      <point x="1287.58" y="1046"/>
      <point x="942" y="1082.37"/>
    </contour>
    <contour>
      <point x="2798" y="-2" type="curve" smooth="yes"/>
      <point x="1052.79" y="-0.573011"/>
      <point x="1785.41" y="1"/>
      <point x="1102" y="1" type="curve" smooth="yes"/>
      <point x="632" y="1"/>
      <point x="141" y="194.015"/>
      <point x="141" y="698" type="curve" smooth="yes"/>
      <point x="141" y="1246.04"/>
      <point x="762" y="1439"/>
      <point x="1265" y="1439" type="curve" smooth="yes"/>
      <point x="1284" y="1439" type="line" smooth="yes"/>
      <point x="1663.38" y="1439"/>
      <point x="2485.53" y="1446"/>
      <point x="3208" y="1446" type="curve" smooth="yes"/>
      <point x="3219" y="1446"/>
      <point x="3231" y="1446"/>
      <point x="3243" y="1447" type="curve"/>
      <point x="3243" y="1359.75"/>
      <point x="3232" y="1125.35"/>
      <point x="3221" y="1036" type="curve"/>
      <point x="2981.36" y="1034"/>
      <point x="2677.4" y="1034"/>
      <point x="2389" y="1031" type="curve"/>
      <point x="2377" y="871" type="line"/>
      <point x="2552" y="873"/>
      <point x="2725" y="875"/>
      <point x="2855" y="875" type="curve" smooth="yes"/>
      <point x="2919" y="875"/>
      <point x="2986" y="875.333"/>
      <point x="3044" y="877" type="curve"/>
      <point x="3044" y="795.671"/>
      <point x="3022" y="672.007"/>
      <point x="2999" y="545" type="curve"/>
      <point x="2868" y="550"/>
      <point x="2743" y="550"/>
      <point x="2610" y="550" type="curve" smooth="yes"/>
      <point x="2548" y="550" type="line" smooth="yes"/>
      <point x="2489" y="550"/>
      <point x="2429" y="549"/>
      <point x="2365" y="548" type="curve"/>
      <point x="2354" y="350" type="line"/>
      <point x="3261" y="350" type="line"/>
      <point x="3261" y="228.089"/>
      <point x="3257.69" y="88.8032"/>
      <point x="3252" y="-3" type="curve"/>
      <point x="3082.93" y="-2"/>
      <point x="2931.6" y="-2"/>
    </contour>
  </outline>
</glyph>
<glyph name="oe" format="1">
  <advance width="2665"/>
  <unicode hex="0153"/>
  <outline>
    <contour>
      <point x="1146" y="519" type="curve"/>
      <point x="1146" y="522" type="line" smooth="yes"/>
      <point x="1146" y="663"/>
      <point x="1059" y="773"/>
      <point x="899" y="773" type="curve" smooth="yes"/>
      <point x="735" y="773"/>
      <point x="668" y="631"/>
      <point x="668" y="500" type="curve" smooth="yes"/>
      <point x="668" y="332"/>
      <point x="742" y="236"/>
      <point x="904" y="236" type="curve" smooth="yes"/>
      <point x="1075.03" y="236"/>
      <point x="1135" y="355"/>
    </contour>
    <contour>
      <point x="1901" y="-38" type="curve" smooth="yes"/>
      <point x="1729" y="-37"/>
      <point x="1520" y="7"/>
      <point x="1409" y="96" type="curve"/>
      <point x="1275" y="-9"/>
      <point x="1061" y="-37"/>
      <point x="888" y="-37" type="curve" smooth="yes"/>
      <point x="521" y="-37"/>
      <point x="114" y="53"/>
      <point x="114" y="492" type="curve" smooth="yes"/>
      <point x="114" y="914"/>
      <point x="459" y="1070"/>
      <point x="945" y="1070" type="curve" smooth="yes"/>
      <point x="1137" y="1070"/>
      <point x="1326" y="1010"/>
      <point x="1434" y="914" type="curve"/>
      <point x="1544" y="1007.96"/>
      <point x="1747" y="1072.19"/>
      <point x="1906" y="1071" type="curve" smooth="yes"/>
      <point x="2178" y="1069.95"/>
      <point x="2531.68" y="938.205"/>
      <point x="2518.68" y="584.023" type="curve"/>
      <point x="2508" y="438" type="line"/>
      <point x="1697" y="442" type="line"/>
      <point x="1729" y="321"/>
      <point x="1859" y="248"/>
      <point x="2043" y="247" type="curve" smooth="yes"/>
      <point x="2156" y="247"/>
      <point x="2290" y="274"/>
      <point x="2435" y="334" type="curve"/>
      <point x="2489" y="334" type="line"/>
      <point x="2470" y="80" type="line"/>
      <point x="2390" y="19"/>
      <point x="2157" y="-39"/>
    </contour>
    <contour>
      <point x="1717" y="624" type="curve"/>
      <point x="2078" y="624" type="line"/>
      <point x="2076" y="755"/>
      <point x="2012" y="795"/>
      <point x="1914" y="796" type="curve" smooth="yes"/>
      <point x="1795" y="797.012"/>
      <point x="1732" y="716.071"/>
    </contour>
  </outline>
</glyph>
<glyph name="florin" format="1">
  <advance width="1438"/>
  <unicode hex="0192"/>
  <outline>
    <contour>
      <point x="357" y="245" type="curve" smooth="yes"/>
      <point x="389" y="745" type="line"/>
      <point x="249" y="745" type="line" smooth="yes"/>
      <point x="194" y="745"/>
      <point x="219" y="747"/>
      <point x="192" y="754" type="curve"/>
      <point x="206" y="981" type="line"/>
      <point x="415" y="981" type="line"/>
      <point x="453" y="1368"/>
      <point x="711" y="1518"/>
      <point x="1110" y="1518" type="curve" smooth="yes"/>
      <point x="1196" y="1518"/>
      <point x="1289" y="1511"/>
      <point x="1387" y="1498" type="curve"/>
      <point x="1385" y="1176" type="line"/>
      <point x="1329" y="1182"/>
      <point x="1282" y="1186"/>
      <point x="1243" y="1186" type="curve" smooth="yes"/>
      <point x="1074" y="1186"/>
      <point x="1045" y="1124"/>
      <point x="1002" y="981" type="curve"/>
      <point x="1359" y="981" type="line"/>
      <point x="1329" y="747" type="line"/>
      <point x="989" y="747" type="line"/>
      <point x="962" y="264" type="line" smooth="yes"/>
      <point x="938" y="-179"/>
      <point x="680" y="-348"/>
      <point x="391" y="-348" type="curve" smooth="yes"/>
      <point x="276" y="-348"/>
      <point x="157" y="-321"/>
      <point x="45" y="-274" type="curve"/>
      <point x="58" y="-73" type="line"/>
      <point x="93" y="-80"/>
      <point x="124" y="-83"/>
      <point x="151" y="-83" type="curve" smooth="yes"/>
      <point x="335" y="-83"/>
      <point x="346" y="69"/>
    </contour>
  </outline>
</glyph>
<glyph name="uni0237" format="1">
  <advance width="1087"/>
  <unicode hex="0237"/>
  <outline>
    <contour>
      <point x="-63" y="-438" type="line" smooth="yes"/>
      <point x="-63" y="-415"/>
      <point x="-28" y="-146"/>
      <point x="-28" y="-119" type="curve"/>
      <point x="10" y="-121"/>
      <point x="47" y="-123"/>
      <point x="80" y="-123" type="curve" smooth="yes"/>
      <point x="235" y="-123"/>
      <point x="340" y="-85"/>
      <point x="353" y="184" type="curve" smooth="yes"/>
      <point x="367" y="454"/>
      <point x="374" y="677"/>
      <point x="380" y="1000" type="curve"/>
      <point x="421" y="1003"/>
      <point x="749" y="1014"/>
      <point x="900" y="1026" type="curve"/>
      <point x="903" y="1026" type="line" smooth="yes"/>
      <point x="926" y="1026"/>
      <point x="946" y="1025"/>
      <point x="965" y="1023" type="curve"/>
      <point x="936" y="103" type="line"/>
      <point x="915" y="-310"/>
      <point x="677" y="-448"/>
      <point x="267" y="-448" type="curve" smooth="yes"/>
      <point x="174" y="-448"/>
      <point x="-30" y="-441"/>
      <point x="-63" y="-439" type="curve"/>
    </contour>
  </outline>
</glyph>
<glyph name="circumflex" format="1">
  <advance width="1104"/>
  <unicode hex="02C6"/>
  <outline>
    <contour>
      <point x="380" y="1246" type="curve"/>
      <point x="380" y="1243" type="line"/>
      <point x="374" y="1243"/>
      <point x="356.132" y="1245.99"/>
      <point x="326" y="1265" type="curve" smooth="yes"/>
      <point x="291.132" y="1286.99"/>
      <point x="165" y="1343"/>
      <point x="165" y="1369" type="curve" smooth="yes"/>
      <point x="165" y="1371"/>
      <point x="165" y="1372"/>
      <point x="166" y="1373" type="curve"/>
      <point x="165" y="1375"/>
      <point x="164" y="1377"/>
      <point x="164" y="1379" type="curve" smooth="yes"/>
      <point x="164" y="1387"/>
      <point x="172.242" y="1395.79"/>
      <point x="187" y="1412" type="curve" smooth="yes"/>
      <point x="304.242" y="1540.79"/>
      <point x="416" y="1672"/>
      <point x="524" y="1798" type="curve" smooth="yes"/>
      <point x="527" y="1801"/>
      <point x="530" y="1803"/>
      <point x="533" y="1803" type="curve" smooth="yes"/>
      <point x="535" y="1803"/>
      <point x="537" y="1802"/>
      <point x="538" y="1801" type="curve"/>
      <point x="686" y="1801" type="line" smooth="yes"/>
      <point x="688" y="1801"/>
      <point x="866" y="1534"/>
      <point x="941" y="1412" type="curve" smooth="yes"/>
      <point x="946" y="1404"/>
      <point x="948" y="1398"/>
      <point x="948" y="1393" type="curve" smooth="yes"/>
      <point x="948" y="1388"/>
      <point x="947" y="1385"/>
      <point x="945" y="1382" type="curve"/>
      <point x="946" y="1381"/>
      <point x="945" y="1381"/>
      <point x="945" y="1380" type="curve" smooth="yes"/>
      <point x="945" y="1348"/>
      <point x="728.78" y="1241.42"/>
      <point x="706.78" y="1241.42" type="curve"/>
      <point x="580" y="1506" type="line"/>
      <point x="513" y="1419"/>
      <point x="445" y="1335"/>
    </contour>
  </outline>
</glyph>
<glyph name="caron" format="1">
  <advance width="1094"/>
  <unicode hex="02C7"/>
  <outline>
    <contour>
      <point x="733" y="1833" type="curve"/>
      <point x="733" y="1836" type="line"/>
      <point x="740" y="1836"/>
      <point x="757.862" y="1833.03"/>
      <point x="790" y="1813" type="curve" smooth="yes"/>
      <point x="826.862" y="1790.03"/>
      <point x="960" y="1730"/>
      <point x="960" y="1703" type="curve" smooth="yes"/>
      <point x="960" y="1701"/>
      <point x="960" y="1700"/>
      <point x="959" y="1699" type="curve"/>
      <point x="960" y="1697"/>
      <point x="961" y="1694"/>
      <point x="961" y="1692" type="curve" smooth="yes"/>
      <point x="961" y="1684"/>
      <point x="952.698" y="1674.27"/>
      <point x="937" y="1657" type="curve" smooth="yes"/>
      <point x="812.698" y="1520.27"/>
      <point x="695" y="1383"/>
      <point x="580" y="1249" type="curve" smooth="yes"/>
      <point x="577" y="1246"/>
      <point x="574" y="1245"/>
      <point x="571" y="1245" type="curve" smooth="yes"/>
      <point x="420" y="1245" type="line" smooth="yes"/>
      <point x="417" y="1245"/>
      <point x="410" y="1245"/>
      <point x="408" y="1247" type="curve"/>
      <point x="406" y="1247"/>
      <point x="218" y="1528"/>
      <point x="138" y="1657" type="curve" smooth="yes"/>
      <point x="133" y="1665"/>
      <point x="131" y="1671"/>
      <point x="131" y="1677" type="curve" smooth="yes"/>
      <point x="131" y="1682"/>
      <point x="133" y="1686"/>
      <point x="135" y="1689" type="curve"/>
      <point x="134" y="1690"/>
      <point x="134" y="1690"/>
      <point x="134" y="1691" type="curve" smooth="yes"/>
      <point x="134" y="1725"/>
      <point x="362" y="1836"/>
      <point x="385" y="1836" type="curve" smooth="yes"/>
      <point x="389" y="1836"/>
      <point x="390.638" y="1829.41"/>
      <point x="399" y="1812" type="curve" smooth="yes"/>
      <point x="521" y="1558" type="line"/>
      <point x="592" y="1650"/>
      <point x="664" y="1739"/>
    </contour>
  </outline>
</glyph>
<glyph name="dotaccent" format="1">
  <advance width="579"/>
  <unicode hex="02D9"/>
  <outline>
    <contour>
      <point x="73" y="1396" type="curve" smooth="yes"/>
      <point x="73" y="1400" type="line"/>
      <point x="84" y="1652"/>
      <point x="71" y="1438"/>
      <point x="88" y="1727" type="curve" smooth="yes"/>
      <point x="90" y="1771"/>
      <point x="92.6689" y="1788"/>
      <point x="117" y="1788" type="curve" smooth="yes"/>
      <point x="234" y="1788"/>
      <point x="369" y="1789"/>
      <point x="482" y="1790" type="curve" smooth="yes"/>
      <point x="494" y="1790"/>
      <point x="504.688" y="1784.92"/>
      <point x="503" y="1766" type="curve" smooth="yes"/>
      <point x="475" y="1452" type="line"/>
      <point x="470" y="1408"/>
      <point x="470.146" y="1392.73"/>
      <point x="445" y="1392" type="curve" smooth="yes"/>
      <point x="332.146" y="1388.73"/>
      <point x="213" y="1389"/>
      <point x="84" y="1389" type="curve" smooth="yes"/>
      <point x="76" y="1389"/>
      <point x="73" y="1389"/>
    </contour>
  </outline>
</glyph>
<glyph name="ring" format="1">
  <advance width="710"/>
  <unicode hex="02DA"/>
  <outline>
    <contour>
      <point x="457" y="1478" type="curve" smooth="yes"/>
      <point x="457" y="1527"/>
      <point x="437" y="1594"/>
      <point x="373" y="1594" type="curve" smooth="yes"/>
      <point x="284" y="1594"/>
      <point x="245" y="1522"/>
      <point x="245" y="1456" type="curve" smooth="yes"/>
      <point x="245" y="1405"/>
      <point x="262.937" y="1338"/>
      <point x="334" y="1338" type="curve" smooth="yes"/>
      <point x="418" y="1338"/>
      <point x="457" y="1408"/>
    </contour>
    <contour>
      <point x="352" y="1192" type="curve" smooth="yes"/>
      <point x="195" y="1192"/>
      <point x="73" y="1290"/>
      <point x="73" y="1457" type="curve" smooth="yes"/>
      <point x="73" y="1609"/>
      <point x="203" y="1737"/>
      <point x="371" y="1737" type="curve" smooth="yes"/>
      <point x="519" y="1737"/>
      <point x="636" y="1637"/>
      <point x="636" y="1484" type="curve" smooth="yes"/>
      <point x="636" y="1339"/>
      <point x="527" y="1192"/>
    </contour>
  </outline>
</glyph>
<glyph name="ogonek" format="1">
  <advance width="544"/>
  <unicode hex="02DB"/>
  <outline>
    <contour>
      <point x="50" y="-386" type="curve"/>
      <point x="61" y="-226"/>
      <point x="181" y="-100"/>
      <point x="304" y="-17" type="curve"/>
      <point x="483" y="-17" type="line"/>
      <point x="451" y="-50"/>
      <point x="354" y="-181"/>
      <point x="354" y="-284" type="curve" smooth="yes"/>
      <point x="354" y="-346"/>
      <point x="389" y="-397"/>
      <point x="495" y="-412" type="curve"/>
      <point x="475" y="-565" type="line"/>
      <point x="426" y="-580"/>
      <point x="372" y="-588"/>
      <point x="320" y="-588" type="curve" smooth="yes"/>
      <point x="179" y="-588"/>
      <point x="50" y="-529"/>
    </contour>
  </outline>
</glyph>
<glyph name="tilde" format="1">
  <advance width="1120"/>
  <unicode hex="02DC"/>
  <outline>
    <contour>
      <point x="672" y="1579" type="curve" smooth="yes"/>
      <point x="697" y="1544"/>
      <point x="717" y="1531"/>
      <point x="746" y="1531" type="curve" smooth="yes"/>
      <point x="829" y="1531"/>
      <point x="805.024" y="1639.09"/>
      <point x="830" y="1638" type="curve" smooth="yes"/>
      <point x="1060" y="1628" type="line"/>
      <point x="1060" y="1436"/>
      <point x="918" y="1214"/>
      <point x="707" y="1214" type="curve" smooth="yes"/>
      <point x="621" y="1214"/>
      <point x="539" y="1239"/>
      <point x="452" y="1366" type="curve" smooth="yes"/>
      <point x="430" y="1398"/>
      <point x="406" y="1403"/>
      <point x="372" y="1403" type="curve" smooth="yes"/>
      <point x="309" y="1403"/>
      <point x="293" y="1344"/>
      <point x="293" y="1293" type="curve"/>
      <point x="63" y="1284" type="line"/>
      <point x="63" y="1535"/>
      <point x="217" y="1704"/>
      <point x="405" y="1704" type="curve" smooth="yes"/>
      <point x="511" y="1704"/>
      <point x="587" y="1698"/>
    </contour>
  </outline>
</glyph>
<glyph name="hungarumlaut" format="1">
  <advance width="1092"/>
  <unicode hex="02DD"/>
  <outline>
    <contour>
      <point x="226" y="1159" type="line"/>
      <point x="89" y="1241" type="line"/>
      <point x="240" y="1690" type="line"/>
      <point x="488" y="1528" type="line"/>
    </contour>
    <contour>
      <point x="624" y="1153" type="line"/>
      <point x="511" y="1253" type="line"/>
      <point x="511" y="1255"/>
      <point x="511" y="1254"/>
      <point x="512" y="1256" type="curve" smooth="yes"/>
      <point x="728" y="1705" type="line"/>
      <point x="978" y="1521" type="line"/>
    </contour>
  </outline>
</glyph>
<glyph name="uni030F" format="1">
  <advance width="1151"/>
  <unicode hex="030F"/>
  <outline>
    <contour>
      <point x="915" y="1157" type="line"/>
      <point x="637" y="1547" type="line"/>
      <point x="900" y="1717" type="line"/>
      <point x="1060" y="1244" type="line"/>
    </contour>
    <contour>
      <point x="494" y="1151" type="line"/>
      <point x="120" y="1539" type="line"/>
      <point x="384" y="1734" type="line"/>
      <point x="613" y="1260" type="line" smooth="yes"/>
      <point x="614" y="1258"/>
      <point x="614" y="1258"/>
      <point x="614" y="1256" type="curve"/>
    </contour>
  </outline>
</glyph>
<glyph name="uni0311" format="1">
  <advance width="681"/>
  <unicode hex="0311"/>
  <outline>
    <contour>
      <point x="476" y="1179" type="line"/>
      <point x="477.176" y="1187.86"/>
      <point x="477.807" y="1196.59"/>
      <point x="477.807" y="1205.07" type="curve" smooth="yes"/>
      <point x="477.807" y="1264.41"/>
      <point x="446.953" y="1312"/>
      <point x="356" y="1312" type="curve" smooth="yes"/>
      <point x="254.505" y="1312"/>
      <point x="225" y="1233.82"/>
      <point x="225" y="1183" type="curve" smooth="yes"/>
      <point x="57" y="1203" type="line" smooth="yes"/>
      <point x="57" y="1382.49"/>
      <point x="200.882" y="1488"/>
      <point x="381" y="1488" type="curve" smooth="yes"/>
      <point x="576.141" y="1488"/>
      <point x="657" y="1336.7"/>
      <point x="657" y="1189" type="curve" smooth="yes"/>
    </contour>
  </outline>
</glyph>
<glyph name="afii10051" format="1">
  <advance width="1972"/>
  <unicode hex="0402"/>
  <outline>
    <contour>
      <point x="1293" y="10" type="curve"/>
      <point x="1238" y="5"/>
      <point x="696" y="-5"/>
      <point x="614" y="-5" type="curve" smooth="yes"/>
      <point x="609.979" y="-5" type="line"/>
      <point x="630" y="669" type="line" smooth="yes"/>
      <point x="635" y="826"/>
      <point x="638" y="919"/>
      <point x="645" y="1051" type="curve"/>
      <point x="99" y="1051" type="line"/>
      <point x="101" y="1093"/>
      <point x="122" y="1331"/>
      <point x="138" y="1435" type="curve"/>
      <point x="526" y="1439"/>
      <point x="1287" y="1443"/>
      <point x="1755" y="1444" type="curve" smooth="yes"/>
      <point x="1812" y="1444"/>
      <point x="1871" y="1442"/>
      <point x="1921" y="1441" type="curve"/>
      <point x="1911" y="1356"/>
      <point x="1881" y="1150"/>
      <point x="1850" y="1051" type="curve"/>
      <point x="1329" y="1051" type="line"/>
      <point x="1323" y="784" type="line"/>
      <point x="1437" y="806"/>
      <point x="1541" y="819"/>
      <point x="1693" y="819" type="curve" smooth="yes"/>
      <point x="2098" y="819"/>
      <point x="2340" y="713"/>
      <point x="2340" y="422" type="curve"/>
      <point x="2338" y="170" type="line"/>
      <point x="2319" y="-392"/>
      <point x="2073" y="-469"/>
      <point x="1663" y="-469" type="curve" smooth="yes"/>
      <point x="1570" y="-469"/>
      <point x="1495.96" y="-461.998"/>
      <point x="1462.96" y="-459.998" type="curve"/>
      <point x="1476" y="-164" type="line"/>
      <point x="1631" y="-164"/>
      <point x="1736" y="-126"/>
      <point x="1749" y="143" type="curve"/>
      <point x="1754" y="345" type="line"/>
      <point x="1754" y="437"/>
      <point x="1706" y="526"/>
      <point x="1508" y="526" type="curve" smooth="yes"/>
      <point x="1454" y="526"/>
      <point x="1390" y="520"/>
      <point x="1312" y="505" type="curve"/>
      <point x="1302" y="268"/>
      <point x="1292" y="13"/>
    </contour>
  </outline>
</glyph>
<glyph name="afii10053" format="1">
  <advance width="1700"/>
  <unicode hex="0404"/>
  <outline>
    <contour>
      <point x="133" y="710" type="curve" smooth="yes"/>
      <point x="133" y="1296"/>
      <point x="752" y="1481"/>
      <point x="1343" y="1481" type="curve" smooth="yes"/>
      <point x="1409" y="1481"/>
      <point x="1474" y="1478"/>
      <point x="1536" y="1471" type="curve"/>
      <point x="1536" y="1035" type="line"/>
      <point x="1481" y="1038"/>
      <point x="1418" y="1042"/>
      <point x="1353" y="1042" type="curve" smooth="yes"/>
      <point x="1174" y="1042"/>
      <point x="983" y="1011"/>
      <point x="923" y="848" type="curve"/>
      <point x="1370" y="853" type="line"/>
      <point x="1377" y="579" type="line"/>
      <point x="927" y="581" type="line"/>
      <point x="987" y="411"/>
      <point x="1150" y="377"/>
      <point x="1312" y="377" type="curve" smooth="yes"/>
      <point x="1391" y="377"/>
      <point x="1469" y="385"/>
      <point x="1536" y="389" type="curve"/>
      <point x="1536" y="-30" type="line"/>
      <point x="1428" y="-42"/>
      <point x="1321" y="-45"/>
      <point x="1236" y="-45" type="curve" smooth="yes"/>
      <point x="698" y="-45"/>
      <point x="133" y="127"/>
    </contour>
  </outline>
</glyph>
<glyph name="afii10058" format="1">
  <advance width="3170"/>
  <unicode hex="0409"/>
  <outline>
    <contour>
      <point x="878" y="266" type="curve" smooth="yes"/>
      <point x="740.326" y="2.3535"/>
      <point x="505" y="-121"/>
      <point x="146" y="-154" type="curve"/>
      <point x="134" y="-134"/>
      <point x="79" y="-2"/>
      <point x="-18" y="217" type="curve"/>
      <point x="171" y="253"/>
      <point x="245.627" y="381.474"/>
      <point x="262.931" y="632.005" type="curve" smooth="yes"/>
      <point x="286" y="966" type="line"/>
      <point x="307" y="1440" type="line"/>
      <point x="2017" y="1450" type="line"/>
      <point x="1995" y="997" type="line"/>
      <point x="2434.99" y="1007.6" type="line"/>
      <point x="2761.99" y="1007.6"/>
      <point x="3046" y="852"/>
      <point x="3046" y="528" type="curve" smooth="yes"/>
      <point x="3046" y="217"/>
      <point x="2806.97" y="10.0105"/>
      <point x="2254" y="4" type="curve" smooth="yes"/>
      <point x="1242" y="-7" type="line"/>
      <point x="1242" y="101" type="line" smooth="yes"/>
      <point x="1242" y="216"/>
      <point x="1264" y="911"/>
      <point x="1273" y="1026" type="curve"/>
      <point x="959" y="1026" type="line"/>
      <point x="947" y="736"/>
      <point x="940.326" y="385.354"/>
    </contour>
    <contour>
      <point x="2068" y="338" type="curve" smooth="yes"/>
      <point x="2132" y="338" type="line" smooth="yes"/>
      <point x="2260" y="338"/>
      <point x="2354" y="414"/>
      <point x="2354" y="546" type="curve" smooth="yes"/>
      <point x="2354" y="650"/>
      <point x="2289" y="730"/>
      <point x="2170" y="730" type="curve" smooth="yes"/>
      <point x="1986" y="730" type="line"/>
      <point x="1969" y="342" type="line"/>
      <point x="2009" y="338"/>
      <point x="2038" y="338"/>
    </contour>
  </outline>
</glyph>
<glyph name="afii10059" format="1">
  <advance width="3315"/>
  <unicode hex="040A"/>
  <outline>
    <contour>
      <point x="1462" y="-7" type="line"/>
      <point x="1462" y="101" type="line" smooth="yes"/>
      <point x="1462" y="216"/>
      <point x="1467" y="317"/>
      <point x="1476" y="432" type="curve"/>
      <point x="942" y="432" type="line"/>
      <point x="916" y="2" type="line"/>
      <point x="225.986" y="-16.4825" type="line"/>
      <point x="225.986" y="103.517"/>
      <point x="237" y="441"/>
      <point x="256" y="966" type="curve"/>
      <point x="272" y="1444" type="line"/>
      <point x="987.997" y="1453.25" type="line"/>
      <point x="950" y="943" type="line"/>
      <point x="1488" y="943" type="line"/>
      <point x="1509" y="1429" type="line"/>
      <point x="1554" y="1435"/>
      <point x="1619" y="1438"/>
      <point x="1661" y="1439" type="curve" smooth="yes"/>
      <point x="1850" y="1441"/>
      <point x="2062" y="1448"/>
      <point x="2237" y="1449" type="curve"/>
      <point x="2215" y="997" type="line"/>
      <point x="2630" y="1007" type="line" smooth="yes"/>
      <point x="2968" y="1015"/>
      <point x="3266" y="860"/>
      <point x="3266" y="528" type="curve" smooth="yes"/>
      <point x="3266" y="217"/>
      <point x="3026.97" y="10.0105"/>
      <point x="2474" y="4" type="curve" smooth="yes"/>
    </contour>
    <contour>
      <point x="2206" y="730" type="line"/>
      <point x="2189" y="342" type="line"/>
      <point x="2255" y="336"/>
      <point x="2292" y="338"/>
      <point x="2352" y="338" type="curve" smooth="yes"/>
      <point x="2480" y="338"/>
      <point x="2574" y="414"/>
      <point x="2574" y="546" type="curve" smooth="yes"/>
      <point x="2574" y="650"/>
      <point x="2509" y="730"/>
      <point x="2390" y="730" type="curve" smooth="yes"/>
    </contour>
  </outline>
</glyph>
